<svg xmlns="http://www.w3.org/2000/svg" viewBox="0 0 40.27 22.32">
  <defs>
    <style>
      .cls-1 {
        fill: #de0b71;
      }

      .cls-2 {
        fill: #27abe3;
      }

      .cls-3 {
        fill: #fff;
      }
    </style>
  </defs>
  <g id="Capa_2" data-name="Capa 2">
    <g id="Capa_1-2" data-name="Capa 1">
      <g>
        <path class="cls-1" d="M12.24,1s0,0,0,.05,0,0,0,0c-.16.49-.37,1-.53,1.44s-.31,1-.44,1.49S11,5,10.92,5.56c0,.22-.08.46-.1.68a2.52,2.52,0,0,1-.21.9h0a.65.65,0,0,1-.18.19A.69.69,0,0,1,9.35,7a2,2,0,0,1,0-1,7.21,7.21,0,0,1,.13-.85A14.34,14.34,0,0,1,9.85,3.6a20.53,20.53,0,0,1,.68-2.24,4.44,4.44,0,0,1-.49.07c-.69.11-1.37.19-2.06.26s-1.37.12-2.07.16l-1,0,.36.38c.42.43.83.85,1.21,1.32a29.59,29.59,0,0,1,2.24,3c1.23,1.84,2.4,4,2.06,6.22a4.92,4.92,0,0,1-4,4,5.89,5.89,0,0,1-5.37-1.73l-.15.82c-.11.74-1.37.56-1.31-.16a24.35,24.35,0,0,1,.77-4.67c.18-.68.57-3,1.48-3a.66.66,0,0,1,.67.79c-.58,1.69-1.77,4.22-.16,5.7a4.32,4.32,0,0,0,4.74.55,3.63,3.63,0,0,0,1.81-3.87A13.56,13.56,0,0,0,6.79,6.1C6.27,5.34,5.7,4.6,5.12,3.88c-.31-.37-.63-.73-1-1.1a7.85,7.85,0,0,1-.93-1.14.43.43,0,0,1,0-.41A.68.68,0,0,1,3.9.55c.67-.08,1.35,0,2-.06S7.25.4,7.92.34s1.34-.11,2-.2a3.35,3.35,0,0,1,1.51,0,.72.72,0,0,1,.63.18A.73.73,0,0,1,12.24,1Z"/>
        <path class="cls-1" d="M23.2,3.19a.84.84,0,0,1-.81.81c-2.71.19-4,.28-6.74.3h-.28C14.51,8.05,12.53,16.66,12.46,17h0c0,.19-.07.37-.11.54a.2.2,0,0,0,.06-.07.73.73,0,0,1,1.21.71,4.08,4.08,0,0,1-.49.95c-.16.27-.33.53-.48.8-.33.56-.66,1.12-1,1.67a.81.81,0,0,1-1.52-.4c.15-1.22,2.57-12.77,3.07-14.8.17-.7.34-1.39.53-2.09H11.59c-.81,0-1.62,0-2.44-.07a.58.58,0,0,1-.87.53A8.12,8.12,0,0,1,7.15,4a.74.74,0,0,1,.37-1.36c1.36,0,2.71.05,4.07.06h1.83a.5.5,0,0,1,.13-.6A4,4,0,0,0,14.67.88a4.19,4.19,0,0,1,.2-.49s0,0,0,0,0,0,0,0h0a.67.67,0,0,1,1.23.33A10.46,10.46,0,0,1,15.8,2.5a1.6,1.6,0,0,0-.05.21c2.68,0,4-.16,6.64-.32A.82.82,0,0,1,23.2,3.19Z"/>
        <path class="cls-1" d="M17.28,15.66a1,1,0,0,0-.14.15,6,6,0,0,0-.4.58l-.07.12a2.55,2.55,0,0,0,.8-.7l.13-.17A.26.26,0,0,0,17.28,15.66Zm3.95-9.49c-.65,1.3-1.42,2.53-2.12,3.8L17,13.69a4.24,4.24,0,0,1-.9,1.37l-.11.07h0l-.05-.07V15a1.13,1.13,0,0,0,0-.15A3.48,3.48,0,0,1,16,14c.07-.36.15-.71.24-1.07.14-.67.29-1.34.47-2s.41-1.43.61-2.15a20.26,20.26,0,0,0,.66-2.27A.65.65,0,0,0,16.75,6a11.21,11.21,0,0,0-.94,2.16c-.27.74-.5,1.5-.71,2.26s-.39,1.49-.55,2.23a8,8,0,0,0-.32,2.41,1.79,1.79,0,0,0,1.45,1.62l.15,0c.12-.21.24-.43.38-.65a4.93,4.93,0,0,1,.44-.64,1.12,1.12,0,0,1,.21-.23.85.85,0,0,1,.58-.23.92.92,0,0,1,.5.15c.25-.42.47-.86.69-1.28.12-.21.25-.42.37-.65a22.79,22.79,0,0,0-.38,3.26.77.77,0,0,0,.76.77.78.78,0,0,0,.77-.77A45.07,45.07,0,0,1,21,11.55a40.24,40.24,0,0,1,1.52-4.82C22.82,6,21.59,5.45,21.23,6.17Z"/>
        <path class="cls-2" d="M30.27.3s0,0,0,0a4.7,4.7,0,0,0-.33.77,2.57,2.57,0,0,1-.22.32c-.25.32-.59.63-.62,1a.35.35,0,0,0,.26.33l.09,0c-.06.21-.12.41-.17.62-.28,1-.53,2.11-.79,3.16,0,.15-.06.29-.1.43a3.27,3.27,0,0,0-.66-.72,2.22,2.22,0,0,0-2.59-.26,5.15,5.15,0,0,0-1.55,2.1,16.89,16.89,0,0,0-1,2.53A16,16,0,0,0,22,13.35a4.46,4.46,0,0,0,.22,2.75,1.78,1.78,0,0,0,1.39.9.78.78,0,0,1,0-.65,1.19,1.19,0,0,1,.18-.29,1.56,1.56,0,0,1,.23-.22A4.77,4.77,0,0,1,25.44,15l.42-.13.21-.43c.41-.82.83-1.64,1.23-2.46-.07.34-.14.69-.2,1-.12.56-.23,1.14-.33,1.71h.45a2.64,2.64,0,0,1,1.2.36c.08-.44.16-.88.25-1.31.2-1.07.42-2.13.65-3.2.44-2.1.9-4.21,1.41-6.3.13-.58.26-1.17.4-1.76a8.32,8.32,0,0,0,.33-1.9A.64.64,0,0,0,30.27.3Zm-3.78,9.75c-.35.71-.72,1.42-1.07,2.13l-1.08,2.07a8.5,8.5,0,0,1-.49.88.44.44,0,0,1-.11.16l0,0s-.06-.19-.06-.21a4.65,4.65,0,0,1,0-1.12,14.3,14.3,0,0,1,.33-2,13.82,13.82,0,0,1,1.55-3.83A2.24,2.24,0,0,1,26,7.43a.57.57,0,0,1,.58,0,1.86,1.86,0,0,1,.76.83C27.05,8.84,26.79,9.46,26.49,10.05Z"/>
        <path class="cls-2" d="M33,6.38a.62.62,0,0,0-1.15-.3,4.69,4.69,0,0,0-.55,1.37c-.14.42-.26.87-.38,1.31-.25.9-.47,1.81-.69,2.72s-.39,1.79-.56,2.68q-.14.67-.24,1.35c0,.14-.06.3-.09.45a1.11,1.11,0,0,0,0,.48.88.88,0,0,0,.3.46.91.91,0,0,0,.37.18.81.81,0,0,0,1-.48.85.85,0,0,0,0-.52c.27-1.56.58-3.1.91-4.65.17-.81.36-1.62.55-2.43.11-.42.22-.84.31-1.27A4.13,4.13,0,0,0,33,6.38Zm1.14-3.6A.58.58,0,0,0,34,2.53a.35.35,0,0,0-.13-.14.5.5,0,0,0-.26-.13l-.2,0-.2,0a.58.58,0,0,0-.26.13,1,1,0,0,0-.19.21,2.43,2.43,0,0,0-.16.37l-.06.22a.79.79,0,0,0-.06.22.84.84,0,0,0-.08.41l0,.21a.54.54,0,0,0,.14.27.54.54,0,0,0,.15.15.63.63,0,0,0,.27.14,1,1,0,0,0,.42,0,.58.58,0,0,0,.27-.14.54.54,0,0,0,.22-.23v0a1.67,1.67,0,0,0,.08-.2s0,0,0-.06a.23.23,0,0,0,0-.11,1.55,1.55,0,0,0,0-.21,1,1,0,0,0,0-.23,1.44,1.44,0,0,0,0-.41Z"/>
        <path class="cls-2" d="M38.67,6.59l-.52.4h0l.41-.07h.05a1.8,1.8,0,0,1,0,.78c0,.15,0,.3-.05.45l.25-.2c.13-.1.28-.16.35-.32a.09.09,0,0,1,.07,0c.11,0,.17-.08.24-.13s.39-.22.58-.33L40.26,7c0-.12,0-.25,0-.37a1.68,1.68,0,0,0-.49-.86,1.34,1.34,0,0,1-.5.37,1.6,1.6,0,0,0-.43.32ZM39.9,8l0,0a1.37,1.37,0,0,1-.24.16,1.64,1.64,0,0,1-.31.26l-.06,0a7.48,7.48,0,0,1-.72.53l-.08,0a12.74,12.74,0,0,1-.4,1.5c-.07.21-.14.42-.22.63v0a14.29,14.29,0,0,1-1,2.12,8.68,8.68,0,0,1-1.27,1.85c-.16.16-.4.36-.6.34s-.06,0-.15-.06c.09,0-.07-.11,0,0a.82.82,0,0,1-.16-.36,3.05,3.05,0,0,1-.13-.92,11.07,11.07,0,0,1,0-1.29,11.17,11.17,0,0,1,.44-2.55,12.73,12.73,0,0,1,.6-1.61c.11-.22.22-.44.34-.66l.24-.4.18-.25.53-.11.11,0,0,0A2.11,2.11,0,0,0,37.2,7a6.86,6.86,0,0,1,1-.84l.11-.09,0,0,.1-.09.09-.07A1.47,1.47,0,0,1,39,5.57a.44.44,0,0,0,.12-.1h0a5,5,0,0,0-2.59.23A14.19,14.19,0,0,1,34,6.17h0a.67.67,0,0,0-.5.61.54.54,0,0,0,.32.78c.19,0,.37.1.56.13a8.49,8.49,0,0,0-.92,2.1,12.15,12.15,0,0,0-.54,2.9,7.87,7.87,0,0,0,.19,2.82A2,2,0,0,0,35.44,17c1.06-.24,1.67-1.23,2.2-2a17.4,17.4,0,0,0,1.43-2.65A14.81,14.81,0,0,0,40,9.54,13.75,13.75,0,0,0,40.21,8c0-.09,0-.17,0-.25h0Z"/>
      </g>
      <path class="cls-3" d="M39.64,20.65a.06.06,0,0,0-.06,0h0l-.49,0-.52,0a3.2,3.2,0,0,1-.44,0s0-.05,0-.06a7.16,7.16,0,0,0,.57-.65l.51-.68a1.76,1.76,0,0,0,.14-.23.15.15,0,0,0-.08-.21.12.12,0,0,0-.16,0,.1.1,0,0,0,0,.05,3.48,3.48,0,0,1-.28.39l-.53.66a3.57,3.57,0,0,1-.27.28,1.05,1.05,0,0,1-.25.18l-.1,0a.12.12,0,0,1-.14-.07.32.32,0,0,1,0-.14,1.93,1.93,0,0,1,.06-.63.17.17,0,0,1,.06-.11l.09,0a1.42,1.42,0,0,0,.77-.56,1.7,1.7,0,0,0,.19-.35.86.86,0,0,0,0-.45.38.38,0,0,0-.29-.29.59.59,0,0,0-.3,0,1,1,0,0,0-.44.26,2.68,2.68,0,0,0-.53.72,1.69,1.69,0,0,1-.23.36l-.16.22c-.16.21-.33.42-.51.62l-.26.24a1,1,0,0,1-.24.17l-.19.07a.19.19,0,0,1-.24-.14s0-.06,0-.08a1.77,1.77,0,0,1,0-.23,2.78,2.78,0,0,1,.11-.63,2.41,2.41,0,0,1,.33-.71,1,1,0,0,1,.23-.26.53.53,0,0,1,.17-.08.14.14,0,0,1,.17.15.28.28,0,0,1,0,.09.21.21,0,0,0,0,.08.11.11,0,0,0,0,.07.1.1,0,0,0,.16,0,.44.44,0,0,0,.15-.35.6.6,0,0,0-.2-.42.54.54,0,0,0-.38-.14.91.91,0,0,0-.45.14,1.44,1.44,0,0,0-.37.33,2.4,2.4,0,0,0-.31.51,3,3,0,0,0-.2.71.43.43,0,0,1,0,.16c-.1.17-.19.34-.29.5l-.17.24a.64.64,0,0,1-.23.2.29.29,0,0,1-.1,0,.09.09,0,0,1-.07-.06.41.41,0,0,1,0-.22,6.74,6.74,0,0,1,.17-.75c.07-.22.12-.45.17-.68a.82.82,0,0,0,0-.27A.46.46,0,0,0,34,18.4a.2.2,0,0,0-.15-.06.58.58,0,0,0-.34.07l-.17.12a3.2,3.2,0,0,0-.61.55.87.87,0,0,1-.17.16s0,0,0-.06l.06-.2a.32.32,0,0,0-.08-.28.25.25,0,0,0-.42,0,1.62,1.62,0,0,0-.1.18l-.18.47a.77.77,0,0,1-.08.19,6.16,6.16,0,0,1-.56,1l-.19.24a.7.7,0,0,1-.19.16s-.07,0-.07,0a.5.5,0,0,1,0-.12,2,2,0,0,1,.1-.76l.24-.72c.05-.13.1-.26.14-.39a.83.83,0,0,0,0-.35.25.25,0,0,0-.16-.2.25.25,0,0,0-.27.06l-.12.14a.86.86,0,0,1-.1.16s0,0,0,0a1,1,0,0,0-.08-.15.47.47,0,0,0-.4-.22.79.79,0,0,0-.41.15,1.27,1.27,0,0,0-.33.36,2.69,2.69,0,0,0-.31.61,2.05,2.05,0,0,0-.1.95.61.61,0,0,0,.07.24.25.25,0,0,0,.28.13l.08,0a.52.52,0,0,0,.21-.13,1.6,1.6,0,0,0,.25-.27,4.27,4.27,0,0,0,.3-.44s0-.08.09-.09a2.45,2.45,0,0,0,0,1.11.08.08,0,0,1-.07,0l-.41,0-.5,0-.51,0-1.33.05-.16,0c-.11,0-.21,0-.32,0l0,0,.37-.34a8.09,8.09,0,0,0,.56-.61A5.37,5.37,0,0,0,28.6,19a3.78,3.78,0,0,0,.4-1.78,1.93,1.93,0,0,0-.12-.67,1.64,1.64,0,0,0-.27-.46,2.12,2.12,0,0,0-1.44-.69,3.25,3.25,0,0,0-.54,0h-.05a5.73,5.73,0,0,0-.93.22l-.18.07a4,4,0,0,0-1.07.64l-.16.16a.24.24,0,0,0-.06.11.12.12,0,0,0,0,.15.14.14,0,0,0,.17,0l.08-.05c.18-.13.37-.26.56-.37a5,5,0,0,1,.57-.27,4.2,4.2,0,0,1,1-.25l.43,0a2.65,2.65,0,0,1,.48.07,1.44,1.44,0,0,1,.7.42l0,0a1.12,1.12,0,0,1,.28.67,3,3,0,0,1-.1,1,4.69,4.69,0,0,1-.79,1.58s0,0,0,0h-.09l-.31,0c-.5.12-1,.26-1.49.41a4.84,4.84,0,0,0-1,.44h0s0,0,0,0a0,0,0,0,1,0,0s0-.05,0-.08c.13-.35.25-.71.39-1.07.2-.53.4-1.05.62-1.57l.36-.82.12-.35a.37.37,0,0,0,0-.18.29.29,0,0,0-.1-.22.26.26,0,0,0-.37.05.78.78,0,0,0-.1.15q-.16.33-.3.66c-.2.52-.4,1-.59,1.55s-.41,1.15-.58,1.74a3.57,3.57,0,0,0-.16.79.39.39,0,0,1-.08.21l-.06,0c-.26,0-.51,0-.77,0h-.37l-.58,0h-.29q-.39,0-.78,0l-.27,0-.37,0L19,21.5l-.87,0h-.22l-.56,0h-.06s0-.05,0-.07l.73-.44,0,0,.06,0,.06.08a.67.67,0,0,0,.22.19.55.55,0,0,0,.28.06.84.84,0,0,0,.27-.08,1.35,1.35,0,0,0,.27-.2c.09-.09.18-.17.26-.26s.21-.25.31-.37,0,0,.07,0a.22.22,0,0,1,0,.08,1.7,1.7,0,0,0,0,.22.77.77,0,0,0,.15.36.5.5,0,0,0,.44.22.68.68,0,0,0,.44-.16,1.71,1.71,0,0,0,.25-.22,1.93,1.93,0,0,0,.3-.39l.08-.12s0,0,.05,0l.11,0a.54.54,0,0,0,.28,0,1,1,0,0,0,.4-.22,2.55,2.55,0,0,0,.54-.64.64.64,0,0,0,.08-.19.25.25,0,0,0,0-.12.11.11,0,0,0-.15-.06l-.1.08-.2.27a1.53,1.53,0,0,1-.39.37L22,20a.11.11,0,0,1-.12-.08.28.28,0,0,1,0-.09,1.32,1.32,0,0,1,0-.28,2.11,2.11,0,0,0,0-.35.84.84,0,0,0-.21-.53.53.53,0,0,0-.42-.2.81.81,0,0,0-.52.17,1.3,1.3,0,0,0-.35.35,2.29,2.29,0,0,0-.31.55.88.88,0,0,1-.14.23c-.17.22-.34.44-.52.65a2.63,2.63,0,0,1-.45.43.51.51,0,0,1-.18.09.1.1,0,0,1-.12,0,.16.16,0,0,1-.05-.11,1.74,1.74,0,0,1,.07-.72.06.06,0,0,1,0,0l.06-.05.06,0a1.51,1.51,0,0,0,.94-.84.94.94,0,0,0,.06-.47.33.33,0,0,0,0-.16.31.31,0,0,0-.25-.18.63.63,0,0,0-.27,0,1,1,0,0,0-.46.27,2.5,2.5,0,0,0-.58.82,2.27,2.27,0,0,0-.23,1.2.11.11,0,0,1,0,.08l-.09.05-.76.42-.73.39a.61.61,0,0,1-.24.07h-.55c-.07,0-.1,0-.1-.1a1.93,1.93,0,0,1,0-.24,5.25,5.25,0,0,1,.13-.57,14.67,14.67,0,0,1,.58-1.61,19.61,19.61,0,0,1,.86-1.79c.16-.29.32-.58.47-.88a2.1,2.1,0,0,0,.13-.26,2,2,0,0,0,.07-.26.35.35,0,0,0-.12-.3.26.26,0,0,0-.32,0,1,1,0,0,0-.14.15,6,6,0,0,0-.4.58l-.07.12a17.52,17.52,0,0,0-1,1.87,13.28,13.28,0,0,0-.57,1.48,5.9,5.9,0,0,0-.29,1.31,1.7,1.7,0,0,0,0,.39.31.31,0,0,0,0,.1.35.35,0,0,1-.17,0c-.25,0-.5,0-.74,0h-.06a.07.07,0,0,0,0,.05.34.34,0,0,0,0,.1s0,.05.05.06H14c.25,0,.5,0,.75,0a.28.28,0,0,1,.2,0,.78.78,0,0,0,.1.15.63.63,0,0,0,.49.24,1.21,1.21,0,0,0,.46-.08l.29-.12.43-.24a.36.36,0,0,1,.2-.06l.51,0,.54,0,.42,0,.49,0,1.35-.06h0l.51,0,1.33,0h0l.56,0,.43,0,.62,0h.07l0,.07a.56.56,0,0,0,.27.35.81.81,0,0,0,.33.11,2.06,2.06,0,0,0,.82-.07,4,4,0,0,0,1.08-.47l.14-.09a.21.21,0,0,1,.11,0l.77,0h.43l.52,0h.43l.5,0,.56,0a5.19,5.19,0,0,1,.56,0l.09.08a.45.45,0,0,0,.46,0l.1-.06.11-.08a2.61,2.61,0,0,0,.4,0l.69,0h.27c.22,0,.45,0,.68,0h.33a.43.43,0,0,1,.16,0,.5.5,0,0,0,.27,0l.14,0c.37,0,.74-.05,1.12-.05h.14a4.36,4.36,0,0,1,.62,0h.29A6.27,6.27,0,0,1,37,21l.27,0,.3,0,.63,0,.47,0,.95-.05h0s0,0,0,0Zm-2-1.53a.13.13,0,0,1,0-.06,2.75,2.75,0,0,1,.32-.58l.16-.18.07,0a.06.06,0,0,1,.08,0,.11.11,0,0,1,0,.05.71.71,0,0,1-.21.49,1.14,1.14,0,0,1-.41.31h0S37.68,19.13,37.69,19.12Zm-17.26,1.2a2.41,2.41,0,0,1,.45-.94A1.44,1.44,0,0,1,21.3,19h.06c0,.1.09.19,0,.29a1.1,1.1,0,0,0-.1.59.52.52,0,0,1-.05.3,2,2,0,0,1-.42.59,1,1,0,0,1-.24.15.13.13,0,0,1-.16-.07.53.53,0,0,1,0-.12.33.33,0,0,1,0-.1A.87.87,0,0,1,20.43,20.32Zm-1.58-.76a2.41,2.41,0,0,1,.38-.68.43.43,0,0,1,.19-.16s.06,0,.06,0,0,0,0,0v0a.68.68,0,0,1-.14.41,1.27,1.27,0,0,1-.45.38h0S18.84,19.59,18.85,19.56ZM25,21.48h0l0,0a1.19,1.19,0,0,1-.46.06.29.29,0,0,1-.16,0s0,0,0,0l0,0H25S25,21.48,25,21.48Zm.82-.33,0,0a.2.2,0,0,1-.11,0l-.75.05h-.39c-.05,0-.06,0-.08-.07a.1.1,0,0,1,0-.14,1.85,1.85,0,0,1,.39-.3,3.64,3.64,0,0,1,.69-.33A13.7,13.7,0,0,1,26.93,20a1.25,1.25,0,0,1,.32-.08s0,0,0,0h0s0,0,0,0A6.38,6.38,0,0,1,25.82,21.15Zm4.39-2a.24.24,0,0,1-.05.16c-.19.26-.36.53-.57.78l-.09.09h0s0,0,0,0V20.1a4.68,4.68,0,0,1,.21-.73,1.55,1.55,0,0,1,.19-.36.55.55,0,0,1,.21-.19.08.08,0,0,1,.11,0,.14.14,0,0,1,0,.06s0,.09,0,.12A.57.57,0,0,0,30.21,19.15Zm3.38-.24c-.06.2-.11.39-.17.58a5.2,5.2,0,0,0-.17.68,1.05,1.05,0,0,0,0,.63v.05l0,0-.78,0-.56,0h-.58s0,0,0-.06a2.14,2.14,0,0,0,.13-.19c0-.05.05-.05.09,0l0,0a.25.25,0,0,0,.26.07l.07,0a.45.45,0,0,0,.1-.14,5.94,5.94,0,0,1,.88-1.24l.33-.34.22-.19.08,0,0,0Zm1.22,1.9-.41,0s-.06,0-.06,0,0,0,0-.05.18-.26.28-.38,0,0,0,0l0,0a1.21,1.21,0,0,0,.18.38A.06.06,0,0,1,34.81,20.81Zm2-.09h-.17l-.64,0s0,0,0,0v0h0a5.13,5.13,0,0,0,.68-.72.14.14,0,0,1,.1-.08,2.58,2.58,0,0,1,0,.29,2.44,2.44,0,0,0,.06.26,1.57,1.57,0,0,0,.14.25A.81.81,0,0,1,36.82,20.72Z"/>
      <path class="cls-2" d="M36.27,7.39l2.36-.47L39.72,5.8a1.37,1.37,0,0,0-1-.42"/>
      <path class="cls-2" d="M40.21,6.66a5.43,5.43,0,0,1-.13,2.27c-.33,1.45-.76,1.36-.76,1.36L38.47,9s.37-1.81.16-2.1"/>
    </g>
  </g>
</svg>
