<svg xmlns="http://www.w3.org/2000/svg" viewBox="0 0 1095.89 643.47">
  <defs>
    <style>
      .cls-1 {
        fill: #fff;
      }

      .cls-2 {
        fill: none;
        stroke: #fff;
        stroke-miterlimit: 10;
        stroke-width: 3px;
      }

      .cls-3 {
        fill: #189dd9;
      }

      .cls-4 {
        fill: #dc0c72;
      }
    </style>
  </defs>
  <g id="Capa_2" data-name="Capa 2">
    <g id="Capa_1-2" data-name="Capa 1">
      <g>
        <path class="cls-1" d="M45.76,142V2h22V122H104v20Z"/>
        <path class="cls-1" d="M162.76,142,159,114.6h-25.4l-3.8,27.4h-20.4L132.16,2H162l22.8,140Zm-26.4-46.4h19.8l-10-70.6Z"/>
        <path class="cls-1" d="M227.16,142V2h33.59c21.8,0,32.8,11.6,32.8,34.6v70.8c0,23-11,34.6-32.8,34.6Zm22-20h11.19c7.4,0,11.2-4.6,11.2-13.6V35.6c0-9-3.8-13.6-11.2-13.6H249.16Z"/>
        <path class="cls-1" d="M355.35,142l-3.8-27.4h-25.4l-3.8,27.4H302L324.75,2h29.8l22.8,140ZM329,95.6h19.8l-10-70.6Z"/>
        <path class="cls-1" d="M387.75,142V2H415l22.2,83.8V2h19.6V142h-22.2L407.35,39.8V142Z"/>
        <path class="cls-1" d="M468.35,142V122.4L509.15,22h-38.8V2h62.4V21.6L492,122h40.8v20Z"/>
        <path class="cls-1" d="M592.15,142l-3.8-27.4H563l-3.8,27.4h-20.4L561.55,2h29.8l22.79,140Zm-26.4-46.4h19.8l-10-70.6Z"/>
        <path class="cls-1" d="M656.54,142V2h60V22h-38V59h30.2V79h-30.2v43h38v20Z"/>
        <path class="cls-1" d="M724.94,108.8v-8h20.8v9.6c0,9,3.8,13.6,11.4,13.6,7.8,0,11.6-4.6,11.6-14a27.54,27.54,0,0,0-4.2-15.2q-3.9-6.6-15-16.2c-9-8-15.4-15.2-19.2-21.8a44.82,44.82,0,0,1-5.4-22c0-22.2,11.4-34.8,32.8-34.8,21,0,32,12.6,32,35.2V41h-20.8V33.8c0-9.2-3.6-13.8-11-13.8s-11.2,4.4-11.2,13.4a25,25,0,0,0,4.2,14c2.8,4.2,7.8,9.6,15.2,16,9.2,8,15.6,15.4,19,22,3.6,6.6,5.4,14.2,5.4,23,0,23-11.6,35.6-33.2,35.6C735.94,144,724.94,131.4,724.94,108.8Z"/>
        <path class="cls-1" d="M834.93,142V2h60V22h-38V59h30.2V79h-30.2v43h38v20Z"/>
        <path class="cls-1" d="M906.73,142V2h22V122h36.2v20Z"/>
      </g>
      <g>
        <path class="cls-2" d="M46.62,313.56v-140h22v120h36.19v20Z"/>
        <path class="cls-2" d="M115.41,313.56v-140h60v20h-38v37h30.2v20h-30.2v43h38v20Z"/>
        <path class="cls-2" d="M187.21,313.56v-140h27.2l22.2,83.8v-83.8h19.6v140H234l-27.2-102.2v102.2Z"/>
        <path class="cls-2" d="M271,206.76c0-22.6,11.4-35.2,32.8-35.2s32.8,12.6,32.8,35.2v12h-20.8v-13.4q0-13.8-11.4-13.8T293,205.36V282c0,9,3.8,13.6,11.4,13.6s11.4-4.6,11.4-13.6v-27.4h-11v-20h31.8v45.8c0,22.6-11.4,35.2-32.8,35.2S271,303,271,280.36Z"/>
        <path class="cls-2" d="M350.21,173.56h22V282c0,9,3.8,13.6,11.2,13.6s11.2-4.6,11.2-13.6V173.56h21.2v106.8c0,22.6-11.4,35.2-32.8,35.2s-32.8-12.6-32.8-35.2Z"/>
        <path class="cls-2" d="M478.41,313.56l-3.8-27.4h-25.4l-3.8,27.4H425l22.8-140h29.8l22.8,140ZM452,267.16h19.8l-10-70.6Z"/>
        <path class="cls-2" d="M505.61,313.56v-20a27.4,27.4,0,0,0,7.2.8c8.6,0,13-4.4,13-13.4V173.56h22v106.8c0,22.6-10.6,34-32,34A50.2,50.2,0,0,1,505.61,313.56Z"/>
        <path class="cls-2" d="M563.4,313.56v-140h60v20h-38v37h30.2v20H585.4v43h38v20Z"/>
        <path class="cls-2" d="M665.6,206.76c0-22.4,11.8-35.2,33.4-35.2s33.4,12.8,33.4,35.2v73.6c0,22.4-11.8,35.2-33.4,35.2s-33.4-12.8-33.4-35.2Zm44.8-1.4q0-13.8-11.4-13.8t-11.4,13.8v76.4q0,13.8,11.4,13.8t11.4-13.8Z"/>
        <path class="cls-2" d="M745.6,206c0-21.8,11.4-34.4,32.4-34.4s32.4,12.6,32.4,34.4v14.8H789.6v-16.2c0-8.6-3.6-13-11-13s-11,4.4-11,13v78.2c0,8.6,3.6,12.8,11,12.8s11-4.2,11-12.8v-20.4h20.8v18.8c0,21.8-11.4,34.4-32.4,34.4s-32.4-12.6-32.4-34.4Z"/>
        <path class="cls-2" d="M822.6,173.56h22V282c0,9,3.8,13.6,11.2,13.6S867,291,867,282V173.56h21.2v106.8c0,22.6-11.4,35.2-32.8,35.2s-32.8-12.6-32.8-35.2Z"/>
        <path class="cls-2" d="M903.8,313.56v-140h22v120H962v20Z"/>
        <path class="cls-2" d="M974.39,313.56v-120h-23v-20h68v20h-23v120Z"/>
        <path class="cls-2" d="M1027.6,206.76c0-22.4,11.79-35.2,33.39-35.2s33.4,12.8,33.4,35.2v73.6c0,22.4-11.8,35.2-33.4,35.2s-33.39-12.8-33.39-35.2Zm44.79-1.4q0-13.8-11.4-13.8t-11.39,13.8v76.4q0,13.8,11.39,13.8t11.4-13.8Z"/>
      </g>
      <g>
        <path class="cls-1" d="M6.49,370.3c-.4,1-2.2.8-4-.8-1.8-1.4-2.8-3.6-2.4-4.8.2-.2,32-85.8,144.4-93.6,39-2.6,69.59,4.2,91.79,17,17.4,10.2,29.8,24,36.8,39.6a76.51,76.51,0,0,1,4.6,47.8c-4.2,19-15.4,38.4-34,55-29.6,26.8-67,37-100.19,36.4-18.4-.4-35.6-4-49.6-9.8-15-6.4-26.6-15.4-32.4-26.2-4-7-5.2-14.4-3-22,3.6-12.6,12.4-21.4,23.6-26.6a64.23,64.23,0,0,1,24.4-5.6,87.31,87.31,0,0,1,26.6,3.2,85.53,85.53,0,0,1,14.4,5.6c3.79-5.4,7.6-10.2,11-14.6-.21-.2-.4-.6-.8-.8-1.41-1.8-2-3.8-1-4.4l14.59-11c1-.6,3,.2,4.61,2,1.39,1.6,2,3.6,1.39,4.4l-23,28c12,7.4,22.2,17.8,28.2,31.2,1,1.8.4,3.2-1.2,2.8a7.77,7.77,0,0,1-4.4-4c-5.4-11.4-14.6-20.2-25.79-26.2-14,17.2-28.6,35-28.6,35,1.2-.6,3.2.6,4.6,2.6,1.6,1.8,1.8,3.6.6,4-19,7.8-1.6-20,16.6-44.8a70.46,70.46,0,0,0-8.4-3,78.37,78.37,0,0,0-25.2-3c-8.4.4-16.4,2-23.2,5.2-10.8,5-19.2,13.4-22.6,25.4a21,21,0,0,0,2,17c4,7.4,13,14.2,25.2,19.4a130.67,130.67,0,0,0,47.4,9.2c32.59.6,69.19-9.4,98.39-35.8,18.2-16.4,29.2-35.2,33.4-53.8,3.4-15.4,2-30.6-4-44-5.6-12.6-15.8-23.8-30.4-32.4-20.8-12-50.2-18.4-88.19-15.8C38.09,285.7,6.69,369.9,6.49,370.3Z"/>
        <path class="cls-1" d="M306.69,400.3a63.59,63.59,0,0,1-20.6,6c-13.6,29.2,40.4,4.4,46.59-6.8.6-1.2,2.6-2.6,4.4-1,1.6,1.6,1.6,2.4,1,3.6-5.59,9.8-36.79,31.4-50.59,23.6-6.8-3.8-11-11.8-9.4-19.6,1-5,4-10.2,8-14.8a89,89,0,0,1,13-11.8c5.8-4,11.2-6.4,13.4-6a8.9,8.9,0,0,1,4.8,3,8.62,8.62,0,0,1,2.4,7.2,17.25,17.25,0,0,1-2,5.6A26.49,26.49,0,0,1,306.69,400.3Zm-14.2-3.2a73.4,73.4,0,0,0,9-3.4c4.2-2.2,7.8-6.4,10-10.2.4-.8.6-1.4,1-2.2a46,46,0,0,0-7.8,4.8A77.78,77.78,0,0,0,292.49,397.1Z"/>
        <path class="cls-1" d="M389.48,399.1c.4-.6,1.2-1.8,2.8-.6,1.6,1,2.6,2.6,2.2,3.2-5,8.6-45.4,41.2-57,47-7.2,3.8-19.2,7.4-24.19-.6-11.8-16.6,65.19-126.4,67-126.8,6.4-9.2,14.8-15.4,21-17.2a10,10,0,0,1,6.4,0,9.56,9.56,0,0,1,6.8,6.4c.8,3,0,7.8-3.6,14.6-12.8,25.6-66.2,66.2-66.4,66.4-.2,0-.4.2-.8,0-14.59,25.4-25,48.4-22.19,54.4,1.79,2.6,10.4-.6,12.4-1.6C345.28,438.3,384.48,407.5,389.48,399.1Zm-3.6-73.6s-16.2,23.6-32.4,50c16.6-13.8,43.2-37.4,51.8-54.4,3-6,4-10.2,3.4-12.8a16.63,16.63,0,0,0-2.6.4C400.28,310.5,392.28,316.5,385.88,325.5Z"/>
        <path class="cls-1" d="M487.08,394.9c.8,2,.2,3.2-1.4,2.8a7.77,7.77,0,0,1-4.4-4c-4-3.8-13.8.8-17.4,3.8-7.4,6-11.6,13.2-13.8,22.4,7-2,25.2-23.2,25.2-23.2.8-.8,2.6-.2,4.4,1.6,1.4,1.6,2.2,3.4,1.6,4.4-.4,1-2.8,6.2-1.6,11.8.8,4.8,26.8-17,27.2-17.2.8-.8,2.4-1.8,4-.2,1.6,1.8,1.4,3.4.6,4.2-13.2,11.8-21,18.8-26.4,21.6-9.2,4.8-16.2,2-16-7.8-7.2,6.8-14.6,13-19,11a11.71,11.71,0,0,1-4-3,11,11,0,0,1-2.4-8.4,23.18,23.18,0,0,1,2.2-7.6,47.43,47.43,0,0,1,12.4-16C467.28,383.7,483.68,383.3,487.08,394.9Z"/>
        <path class="cls-1" d="M562.48,399.1c.4-.6,1.2-1.8,2.8-.6,1.6,1,2.6,2.6,2.2,3.2-5,8.6-45.4,41.2-57,47-7.2,3.8-19.2,7.4-24.2-.6-11.8-16.6,65.2-126.4,67-126.8,6.4-9.2,14.8-15.4,21-17.2a10,10,0,0,1,6.4,0,9.56,9.56,0,0,1,6.8,6.4c.8,3,0,7.8-3.6,14.6-12.8,25.6-66.2,66.2-66.4,66.4-.2,0-.4.2-.8,0-14.6,25.4-25,48.4-22.2,54.4,1.8,2.6,10.4-.6,12.4-1.6C518.28,438.3,557.48,407.5,562.48,399.1Zm-3.6-73.6s-16.2,23.6-32.4,50c16.6-13.8,43.2-37.4,51.8-54.4,3-6,4-10.2,3.4-12.8a16.63,16.63,0,0,0-2.6.4C573.28,310.5,565.28,316.5,558.88,325.5Z"/>
        <path class="cls-1" d="M568.28,381.9c.4-1,2.4-.4,4,1.2,1.8,1.6,2.8,3.6,2.2,4.8l-3.6,6.2c6.2-6,12.2-11,16-12.4,12.4-4.2,10.4,9.4,6.4,21.6a9.34,9.34,0,0,1,2-1,12.72,12.72,0,0,1,4.8-1.4c3.2-.2,5.8,1.4,7.6,5.2,1,2.2,1,5.6-.6,10.2-.2.4,21.4-17.4,21.6-17.4.8-.8,2.6-3,4.2-1.2,1.8,1.6,1.6,2.8.8,3.6-.2.2-48,50.6-33,9.4.2-.8.4-1.4.6-2.2l-.8.4c-5.4,2.8-12.4,8.6-13.8,11v.2c-.6,1.2-2.4.8-4.2-.8s-2.6-3.8-2.2-4.8c0-.2,12.2-26.2,11.6-26-10.8,3.8-39.6,39-39.8,39.2-.6.8-2.4.2-4-1.2-1.6-1.6-2.6-3.8-2-4.8Z"/>
        <path class="cls-1" d="M662.68,394.9c.8,2,.2,3.2-1.4,2.8a7.77,7.77,0,0,1-4.4-4c-4-3.8-13.8.8-17.4,3.8-7.4,6-11.6,13.2-13.8,22.4,7-2,25.2-23.2,25.2-23.2.8-.8,2.6-.2,4.4,1.6,1.4,1.6,2.2,3.4,1.6,4.4-.4,1-2.8,6.2-1.6,11.8.8,4.8,26.8-17,27.2-17.2.8-.8,2.4-1.8,4-.2,1.6,1.8,1.4,3.4.6,4.2-13.2,11.8-21,18.8-26.4,21.6-9.2,4.8-16.2,2-16-7.8-7.2,6.8-14.6,13-19,11a11.71,11.71,0,0,1-4-3,11,11,0,0,1-2.4-8.4,23.18,23.18,0,0,1,2.2-7.6,47.43,47.43,0,0,1,12.4-16C642.88,383.7,659.28,383.3,662.68,394.9Z"/>
      </g>
      <rect class="cls-3" x="21.68" y="545.47" width="614" height="98" rx="35.88"/>
      <g>
        <path class="cls-1" d="M97.45,593.55v.81c0,.12,0,.24-.2.24H94.7a4,4,0,0,1-.08-1.2,22.35,22.35,0,0,0-.46-3.18c-.08-.34-.2-.69-.31-1a12,12,0,0,0-.66-1.94c0-.11-.08-.19-.12-.31-.34-.69-.65-1.39-1.08-2.09a13.06,13.06,0,0,0-.81-1.23,1.06,1.06,0,0,0-.2-.24A18.2,18.2,0,0,0,86.42,579a8.66,8.66,0,0,0-1-.66,22.23,22.23,0,0,0-2.05-1.08.31.31,0,0,1-.19,0,15,15,0,0,0-3.14-1,20.88,20.88,0,0,0-4.06-.51.45.45,0,0,1-.31-.07s0-.08-.08-.16v-2.28c0-.35,0-.39.39-.43h.73a11.66,11.66,0,0,1,1.67.16.81.81,0,0,1,.58.15,23.18,23.18,0,0,1,4.26,1.09A21.77,21.77,0,0,1,93,581.36a1.53,1.53,0,0,0,.11.16,3.09,3.09,0,0,1,.47.54c.38.58.77,1.16,1.12,1.74a18.49,18.49,0,0,1,1,2.09,16.61,16.61,0,0,1,.85,2.36c.08.27.24.54.16.81a28.73,28.73,0,0,1,.58,3.1c0,.5.08,1,.12,1.47Z"/>
        <path class="cls-1" d="M53.75,581.94a1.47,1.47,0,0,1,.08-.5,2.76,2.76,0,0,1,.31-1,2.19,2.19,0,0,1,.54-.77c.85-.85,1.74-1.71,2.6-2.6a5.65,5.65,0,0,1,1-.81,4.38,4.38,0,0,1,1.16-.5c.27-.08.51-.12.78-.2h1.2a10,10,0,0,1,1,.28,5.82,5.82,0,0,1,3.37,3,8.5,8.5,0,0,1,.54,1.71c.39,1.39.78,2.78,1.12,4.18a5.09,5.09,0,0,1-.58,3.83,5.48,5.48,0,0,1-.81,1c-.46.47-.93,1-1.43,1.4a.65.65,0,0,0-.2.77c.2.54.39,1.12.59,1.66a20.47,20.47,0,0,0,.92,2A21.12,21.12,0,0,0,68.23,599c.23.27.46.58.73.85a20.33,20.33,0,0,0,5.58,4.3,22.45,22.45,0,0,0,2,.93,13.88,13.88,0,0,0,1.82.61.49.49,0,0,0,.5-.11l1.43-1.43a5.12,5.12,0,0,1,4.1-1.59,8,8,0,0,1,1.94.43c.11,0,.19.07.31.07,1.24.35,2.51.7,3.75,1a1.21,1.21,0,0,1,.35.12,6,6,0,0,1,3.06,2.63,5.39,5.39,0,0,1,.42,1,5.27,5.27,0,0,1,.24.85V610a4.36,4.36,0,0,1-.16.77,5.2,5.2,0,0,1-1.47,2.37c-.74.69-1.47,1.43-2.17,2.16a3.09,3.09,0,0,1-1,.7,7.07,7.07,0,0,1-1.55.46,18,18,0,0,1-2.44-.07c-.89,0-1.74-.16-2.63-.28s-1.94-.3-2.91-.54a34,34,0,0,1-5.1-1.62l-.58-.23-1-.47c-.81-.39-1.59-.77-2.36-1.2-1.08-.62-2.13-1.28-3.14-2-.85-.62-1.7-1.28-2.51-2s-1.78-1.58-2.59-2.47-1.4-1.59-2.09-2.44c-.2-.23-.35-.5-.55-.74a1.15,1.15,0,0,0-.27-.38c-.69-1-1.39-2.05-2-3.1a26.14,26.14,0,0,1-1.2-2.36c-.16-.27-.23-.58-.39-.85-.35-.81-.66-1.67-1-2.48a33.54,33.54,0,0,1-1-3.29,6.53,6.53,0,0,0-.2-.85,12.36,12.36,0,0,0-.27-1.32c0-.27-.15-.5,0-.77-.07-.81-.19-1.63-.23-2.48,0-.69-.08-1.39-.11-2.05v-.62Z"/>
        <path class="cls-1" d="M75.62,583.64v-2.51c0-.19.08-.23.23-.23.66,0,1.36.11,2,.15a1.3,1.3,0,0,1,.86.16,16.64,16.64,0,0,1,2.7,1,13.61,13.61,0,0,1,7.51,9.37s0,.12,0,.15a.78.78,0,0,1,.12.58c0,.62.11,1.24.15,1.86.08.43,0,.51-.42.47h-1.9a1.29,1.29,0,0,1-.39,0,.41.41,0,0,1-.11-.35,7.93,7.93,0,0,0-.08-1,4.63,4.63,0,0,0-.12-.73,11.91,11.91,0,0,0-.31-1.28,10.3,10.3,0,0,0-2.78-4.49,10.59,10.59,0,0,0-4.26-2.55,5.63,5.63,0,0,0-1.24-.31l-.69-.12c-.31,0-.66-.08-1-.08a1,1,0,0,1-.35,0Z"/>
        <path class="cls-1" d="M76,591.89a.51.51,0,0,1-.39-.54V589.1a6.86,6.86,0,0,1,2.17.43c.23,0,.38.15.58.23a1.51,1.51,0,0,1,.42.27,4.87,4.87,0,0,1,1.28,1.28,6.43,6.43,0,0,1,.62,1.08,5.55,5.55,0,0,1,.43,1.74v.39l-.08.08a5.26,5.26,0,0,1-1.05,0H78.72c-.35,0-.39,0-.47-.39a2.58,2.58,0,0,0-1.31-2,2.35,2.35,0,0,0-.7-.27c-.08,0-.19,0-.23-.12Z"/>
      </g>
      <rect class="cls-4" x="423.68" y="545.47" width="573" height="98" rx="35.88"/>
      <path class="cls-1" d="M487.73,578.15a12.92,12.92,0,0,0-7.28-3.45,16.78,16.78,0,0,1-2.28-.23h-3.44l-.54.12a13.55,13.55,0,0,0-3.57.5,17.14,17.14,0,0,0-11.3,16,22.28,22.28,0,0,0,2.29,9.72,49.91,49.91,0,0,0,11.76,15.44,5.06,5.06,0,0,0,2.52,1.35h1.35a4.14,4.14,0,0,0,2-.85c1.39-1.32,2.78-2.59,4.1-4a54.94,54.94,0,0,0,6.89-9.29,25,25,0,0,0,3.6-11.42,16.9,16.9,0,0,0-6-13.93Zm-11.22,21.51a8.44,8.44,0,1,1,.23-16.87,8.49,8.49,0,0,1,8.28,8.67A8.41,8.41,0,0,1,476.51,599.66Z"/>
      <g>
        <path class="cls-1" d="M139.73,604.14v-2.79h3.9v2.95c0,3.42,1.47,5.11,4.37,5.11s4.32-1.84,4.32-5.48v-3.21c0-3.63-1.53-5.48-4.64-5.48h-2.21V591.5h2.32c2.79,0,4.42-1.68,4.42-5v-2.42c0-3.43-1.42-5.11-4.21-5.11s-4.16,1.63-4.16,4.95v2.16h-3.9v-1.84c0-5.75,2.74-9,8.22-9,5.32,0,8.16,3.21,8.16,8.95v1.48c0,4.05-1.42,6.53-4.32,7.48v.1c2.95,1,4.43,3.42,4.43,7.48v3.42c0,5.74-2.8,9-8.33,9S139.73,609.78,139.73,604.14Z"/>
        <path class="cls-1" d="M165.75,612.62V582.5a16.76,16.76,0,0,1-6.32,1.16V580.6c4.26-.05,6.37-1.53,7.58-4.9h2.84v36.92Z"/>
        <path class="cls-1" d="M180.33,612.62V582.5a16.72,16.72,0,0,1-6.32,1.16V580.6c4.27-.05,6.37-1.53,7.59-4.9h2.84v36.92Z"/>
        <path class="cls-1" d="M189.07,600.72c0-3.85,1.37-6.37,4.16-7.48v0c-2.63-1.21-3.95-3.64-3.95-7.32v-1.79c0-5.74,2.95-8.85,8.48-8.85s8.53,3.11,8.53,8.85v1.79c0,3.68-1.31,6.11-4,7.32v0c2.79,1.11,4.22,3.63,4.22,7.48v3.42c0,5.69-3.06,9-8.75,9s-8.69-3.27-8.69-9Zm13.33,3.21v-3.58c0-3.42-1.53-5.11-4.64-5.11s-4.58,1.69-4.58,5.11v3.58c0,3.64,1.53,5.48,4.58,5.48S202.4,607.57,202.4,603.93Zm-.21-17.27V584c0-3.32-1.48-5-4.43-5s-4.37,1.68-4.37,5v2.69c0,3.21,1.48,4.84,4.37,4.84S202.19,589.76,202.19,586.66Z"/>
        <path class="cls-1" d="M221.14,612.62V605.2H209.19v-3.8l11.48-25.64h4.58v25.7h2.95v3.74h-2.95v7.42ZM213,601.46h8.11V583Z"/>
        <path class="cls-1" d="M231.25,604V584.29c0-5.85,3-9.06,8.43-9.06s8.48,3.21,8.48,9.06V604c0,5.84-3,9.11-8.48,9.11S231.25,609.88,231.25,604Zm12.8.26V584c0-3.37-1.47-5-4.37-5s-4.32,1.68-4.32,5V604.3c0,3.42,1.42,5.11,4.32,5.11S244.05,607.72,244.05,604.3Z"/>
        <path class="cls-1" d="M263.17,612.62V605.2h-12v-3.8l11.48-25.64h4.59v25.7h3v3.74h-3v7.42Zm-8.11-11.16h8.11V583Z"/>
        <path class="cls-1" d="M272.7,612.62v-3.16a16.81,16.81,0,0,1,1.53-7.42,29.3,29.3,0,0,1,5-6.69,34.43,34.43,0,0,0,4.63-5.74,10.32,10.32,0,0,0,1.37-5.16c0-3.64-1.42-5.48-4.26-5.48s-4.37,1.68-4.37,5v3.32h-3.9v-3.05c0-5.64,2.68-9.06,8.37-9.06,5.48,0,8.27,3.42,8.27,9.06,0,4.47-2,8.16-6.95,13.27a27.64,27.64,0,0,0-4.37,5.37,10.3,10.3,0,0,0-1.27,5.16v.79h12.17v3.74Z"/>
        <path class="cls-1" d="M294,612.62,304.3,579.5H291.5v-3.74h16.85v3.63l-10.11,33.23Z"/>
        <path class="cls-1" d="M311.09,604v-2.48H315v2.79c0,3.37,1.47,5.06,4.37,5.06s4.31-1.69,4.31-5.06v-8c0-3.32-1.36-4.95-4.05-4.95-2.48,0-3.95,1.37-4.48,4.06v.31h-3.89l1.05-20.06h14.64v3.74h-11l-.58,11.21a6.3,6.3,0,0,1,5.8-3q6.63,0,6.63,8.37v8c0,5.74-2.79,9.11-8.32,9.11S311.09,609.72,311.09,604Z"/>
      </g>
      <g>
        <path class="cls-1" d="M518.77,606.67V586.35c0-5.53,3-8.8,8.21-8.8s8.22,3.27,8.22,8.8v3.79h-3.9v-4.06c0-3.1-1.63-4.79-4.21-4.79s-4.21,1.69-4.21,4.79v20.86c0,3.11,1.63,4.79,4.21,4.79s4.21-1.68,4.21-4.79v-5.16h3.9v4.89c0,5.53-3,8.8-8.22,8.8S518.77,612.2,518.77,606.67Z"/>
        <path class="cls-1" d="M539.31,614.94V578.08h4v36.86Z"/>
        <path class="cls-1" d="M548.31,614.94V578.08h4v36.86Z"/>
        <path class="cls-1" d="M557.53,614.94v-5.32h4.16v5.32Z"/>
        <path class="cls-1" d="M576.38,614.94l10.32-33.12H573.9v-3.74h16.86v3.63l-10.12,33.23Z"/>
        <path class="cls-1" d="M593.49,606.36v-2.48h3.9v2.79c0,3.38,1.47,5.06,4.37,5.06s4.32-1.68,4.32-5.06v-7.95c0-3.32-1.37-5-4.06-5-2.47,0-3.95,1.37-4.47,4.06v.31h-3.9l1.05-20.06h14.64v3.74h-11L597.76,593a6.28,6.28,0,0,1,5.79-3q6.65,0,6.64,8.38v8c0,5.74-2.79,9.11-8.32,9.11S593.49,612.05,593.49,606.36Z"/>
        <path class="cls-1" d="M625.67,614.94a19.49,19.49,0,0,1-.42-3.58,6.12,6.12,0,0,1-6.16,4.11c-3.64,0-5.9-2.53-5.9-6.53s1.79-6.43,6.58-8.69a23.19,23.19,0,0,0,4.16-2.21,2.6,2.6,0,0,0,.84-2.11v-.63c0-2.63-1.15-3.95-3.42-3.95s-3.69,1.47-3.69,4v.79h-3.73v-.57c0-4.9,2.68-7.69,7.47-7.69s7.32,2.68,7.32,8v11.8a34.39,34.39,0,0,0,.58,7.21Zm-.9-9v-5.32c-.42.58-1.68,1.37-3.84,2.48-2.48,1.26-3.74,3-3.74,5.21,0,2.42,1.11,3.63,3.27,3.63C623.14,612,624.77,609.78,624.77,606Z"/>
        <path class="cls-1" d="M649.79,604.46h3.89v2.37c0,3.27,1.43,4.9,4.27,4.9s4.32-1.63,4.32-5A8,8,0,0,0,661,602.3a20.36,20.36,0,0,0-4.42-4.63,22.93,22.93,0,0,1-5.32-5.64,10.89,10.89,0,0,1-1.47-5.68c0-5.53,3-8.8,8.26-8.8s8.12,3.21,8.12,8.9v1.48h-3.9v-1.74c0-3.27-1.42-4.9-4.22-4.9s-4.21,1.58-4.21,4.79a7.24,7.24,0,0,0,1.27,4.16,23.09,23.09,0,0,0,4.58,4.59,21.41,21.41,0,0,1,5.21,5.74,11.26,11.26,0,0,1,1.48,5.89c0,5.74-3.06,9-8.38,9s-8.21-3.21-8.21-9Z"/>
        <path class="cls-1" d="M681.54,588.45h4v26.49h-3.42l-.05-3.53a5.93,5.93,0,0,1-5.85,4.06c-4.06,0-6.11-2.58-6.11-7.69V588.45h4v18.86c0,3.1,1.11,4.63,3.32,4.63,2.48,0,4.16-2.11,4.16-5.9Z"/>
        <path class="cls-1" d="M701.29,588.24v3.9a5,5,0,0,0-1.63-.26c-3.43,0-5.16,2.52-5.16,7.63v15.43h-4V588.45H694l0,4.37q1.35-4.89,5.53-4.89A4,4,0,0,1,701.29,588.24Z"/>
        <path class="cls-1" d="M713.45,614.94l1.21-11.21h-3l.27-2.8h3L716,590h-3l.26-2.79h3.11l.9-9.17h3.1l-.89,9.17h5l.95-9.17h3.11l-.95,9.17h2.95L730.2,590h-2.9l-1.1,10.95h2.89l-.26,2.8h-2.9l-1.15,11.21h-3.11l1.1-11.21h-5l-1.16,11.21Zm4.58-14h5.06l1-10.95h-5Z"/>
        <path class="cls-1" d="M739.15,614.94V584.82a16.72,16.72,0,0,1-6.32,1.16v-3.06c4.27,0,6.37-1.52,7.59-4.9h2.84v36.92Z"/>
        <path class="cls-1" d="M748.26,606.36V586.61c0-5.85,3-9.06,8.43-9.06s8.48,3.21,8.48,9.06v19.75c0,5.84-3,9.11-8.48,9.11S748.26,612.2,748.26,606.36Zm12.8.26V586.35c0-3.37-1.48-5.06-4.37-5.06s-4.32,1.69-4.32,5.06v20.27c0,3.43,1.42,5.11,4.32,5.11S761.06,610.05,761.06,606.62Z"/>
        <path class="cls-1" d="M781.07,614.94a19.49,19.49,0,0,1-.42-3.58,6.12,6.12,0,0,1-6.16,4.11c-3.64,0-5.9-2.53-5.9-6.53s1.79-6.43,6.58-8.69a23.19,23.19,0,0,0,4.16-2.21,2.61,2.61,0,0,0,.85-2.11v-.63c0-2.63-1.16-3.95-3.43-3.95s-3.68,1.47-3.68,4v.79h-3.74v-.57c0-4.9,2.68-7.69,7.47-7.69s7.33,2.68,7.33,8v11.8a35.24,35.24,0,0,0,.57,7.21Zm-.89-9v-5.32c-.43.58-1.69,1.37-3.85,2.48-2.47,1.26-3.74,3-3.74,5.21,0,2.42,1.11,3.63,3.27,3.63C778.54,612,780.18,609.78,780.18,606Z"/>
        <path class="cls-1" d="M788.13,600.83v-3.37h10.79v3.37Z"/>
        <path class="cls-1" d="M802.24,603c0-3.84,1.37-6.37,4.16-7.48v0c-2.63-1.21-3.95-3.63-3.95-7.32V586.4c0-5.74,2.95-8.85,8.48-8.85s8.53,3.11,8.53,8.85v1.79c0,3.69-1.32,6.11-4,7.32v0c2.79,1.11,4.21,3.64,4.21,7.48v3.42c0,5.69-3,9-8.74,9s-8.69-3.27-8.69-9Zm13.32,3.21v-3.58c0-3.42-1.52-5.11-4.63-5.11s-4.58,1.69-4.58,5.11v3.58c0,3.64,1.52,5.48,4.58,5.48S815.56,609.89,815.56,606.25ZM815.35,589v-2.69c0-3.31-1.47-5-4.42-5s-4.37,1.69-4.37,5V589c0,3.21,1.47,4.84,4.37,4.84S815.35,592.09,815.35,589Z"/>
        <path class="cls-1" d="M834.31,614.94v-7.42H822.36v-3.79l11.48-25.65h4.58v25.7h3v3.74h-3v7.42Zm-8.11-11.16h8.11V585.35Z"/>
        <path class="cls-1" d="M853.43,614.94V578.08h8.05c5.53,0,8.32,3,8.32,8.95v3.16c0,5.95-2.79,8.9-8.32,8.9h-4v15.85Zm4.1-19.59h4c2.95,0,4.22-1.37,4.22-5v-3.63c0-3.58-1.27-4.95-4.22-4.95h-4Z"/>
        <path class="cls-1" d="M873.59,584.66V579h3.95v5.69Zm0,30.28V588.45h3.95v26.49Z"/>
        <path class="cls-1" d="M881.49,607.83v-.89h3.85v1c0,2.68,1.21,4,3.63,4s3.64-1.26,3.64-3.84a3.59,3.59,0,0,0-.74-2.16c-.9-1.32-1.9-1.84-3.85-2.84-1-.58-1.84-1-2.31-1.32a14.54,14.54,0,0,1-1.85-1.48,6.69,6.69,0,0,1-2.1-5.37c0-4.37,2.68-7.05,7.16-7.05s7.16,2.79,7.16,7.37v.53h-3.74v-.64c0-2.58-1.1-3.84-3.37-3.84a3.24,3.24,0,0,0-3.37,3.58,4,4,0,0,0,.74,2.32c1,1.31,1.89,1.79,4,2.84a15.21,15.21,0,0,1,4.16,2.79,6.52,6.52,0,0,1,2.06,5.22c0,4.58-2.69,7.37-7.38,7.37S881.49,612.63,881.49,607.83Z"/>
        <path class="cls-1" d="M899.92,606.89V596.46c0-5.48,2.74-8.53,7.8-8.53s7.79,3.05,7.79,8.53v10.43c0,5.47-2.79,8.58-7.79,8.58S899.92,612.36,899.92,606.89Zm11.59.36V596.09c0-3.11-1.26-4.64-3.79-4.64s-3.85,1.53-3.85,4.64v11.16c0,3.11,1.27,4.69,3.85,4.69S911.51,610.36,911.51,607.25Z"/>
        <path class="cls-1" d="M939,614.94v-7.42H927v-3.79l11.48-25.65h4.59v25.7h2.95v3.74h-2.95v7.42Zm-8.11-11.16H939V585.35Z"/>
      </g>
    </g>
  </g>
</svg>
