<svg xmlns="http://www.w3.org/2000/svg" viewBox="0 0 63.74 47.51">
  <defs>
    <style>
      .cls-1 {
        fill: #de0b71;
      }

      .cls-2 {
        fill: #27abe3;
      }

      .cls-3 {
        font-size: 4.14px;
        fill: #1d1d1b;
        font-family: Poppins-ExtraLight, Poppins;
        font-weight: 200;
      }

      .cls-4 {
        fill: #fff;
      }
    </style>
  </defs>
  <g id="Capa_2" data-name="Capa 2">
    <g id="Capa_1-2" data-name="Capa 1">
      <g>
        <path class="cls-1" d="M16.25,19.14a.35.35,0,0,1,0,.06.06.06,0,0,0,0,.05c-.22.64-.5,1.25-.71,1.91s-.41,1.32-.58,2-.31,1.4-.42,2.11a9.07,9.07,0,0,0-.14.91,3.35,3.35,0,0,1-.29,1.19v0a.61.61,0,0,1-.23.25.91.91,0,0,1-1.43-.45,2.69,2.69,0,0,1,0-1.26c.05-.39.1-.77.17-1.13a19.2,19.2,0,0,1,.46-2.1,26.52,26.52,0,0,1,.91-3c-.22,0-.45.06-.66.1-.91.14-1.82.25-2.73.34s-1.82.16-2.75.21c-.42,0-.85,0-1.27.07.16.16.33.33.49.51.55.56,1.1,1.13,1.6,1.74a39.78,39.78,0,0,1,3,4c1.63,2.43,3.19,5.25,2.73,8.25a6.56,6.56,0,0,1-5.3,5.36c-2.5.4-5.51-.32-7.15-2.31-.06.38-.12.74-.18,1.1-.16,1-1.83.74-1.75-.22a33.85,33.85,0,0,1,1-6.2c.24-.9.76-4,2-4a.87.87,0,0,1,.89,1.05c-.77,2.24-2.35,5.6-.22,7.57a5.76,5.76,0,0,0,6.3.72,4.84,4.84,0,0,0,2.4-5.14C12,30.3,10.43,28,9,26,8.32,25,7.57,24,6.8,23c-.41-.49-.83-1-1.26-1.46A11.19,11.19,0,0,1,4.3,20.05a.57.57,0,0,1,0-.55.92.92,0,0,1,.89-.91c.88-.1,1.79-.05,2.67-.08s1.78-.11,2.67-.19,1.77-.15,2.65-.26a4.56,4.56,0,0,1,2,0,1.05,1.05,0,0,1,.84.24A1,1,0,0,1,16.25,19.14Z"/>
        <path class="cls-1" d="M30.8,22.11a1.09,1.09,0,0,1-1.06,1.06c-3.6.25-5.36.38-8.95.41h-.38c-1.14,5-3.77,16.41-3.86,16.85h0c-.05.25-.1.48-.14.72l.08-.1a1,1,0,0,1,1.6,1,5,5,0,0,1-.65,1.25c-.22.36-.44.71-.64,1.07-.44.74-.88,1.49-1.34,2.21a1.08,1.08,0,0,1-2-.53c.2-1.62,3.42-17,4.08-19.66.22-.92.46-1.83.71-2.76H15.39c-1.07,0-2.15-.05-3.24-.1a.77.77,0,0,1-1.16.71,11,11,0,0,1-1.49-1A1,1,0,0,1,10,21.38c1.8,0,3.59.07,5.4.08.81,0,1.61,0,2.43,0a.67.67,0,0,1,.17-.8A5.25,5.25,0,0,0,19.49,19a4,4,0,0,1,.26-.65l0,0s0,0,0,0h0a.88.88,0,0,1,1.63.44A12.54,12.54,0,0,1,21,21.18c0,.09-.05.19-.07.28,3.57-.05,5.28-.2,8.83-.42A1.08,1.08,0,0,1,30.8,22.11Z"/>
        <path class="cls-1" d="M23,38.66a1.8,1.8,0,0,0-.19.2,8,8,0,0,0-.52.77,1.4,1.4,0,0,0-.1.16,3.65,3.65,0,0,0,1.07-.93l.16-.22A.33.33,0,0,0,23,38.66Zm5.25-12.6c-.86,1.73-1.89,3.36-2.83,5s-1.87,3.3-2.79,4.95a5.88,5.88,0,0,1-1.2,1.82l-.15.09h0s-.07-.08-.07-.1,0,0,0,0l0,0c0-.06,0-.14,0-.21a4,4,0,0,1,.14-1.13c.09-.47.2-.94.31-1.41.19-.89.39-1.79.63-2.67s.55-1.9.81-2.85a27.9,27.9,0,0,0,.87-3,.86.86,0,0,0-1.57-.66A14.38,14.38,0,0,0,21,28.71c-.36,1-.66,2-.94,3s-.52,2-.72,3a10.33,10.33,0,0,0-.43,3.2A2.38,2.38,0,0,0,20.82,40l.2,0c.16-.28.32-.56.5-.85a8.35,8.35,0,0,1,.59-.86,2.53,2.53,0,0,1,.28-.31,1.19,1.19,0,0,1,1.44-.09c.33-.56.61-1.15.91-1.71.16-.28.33-.56.49-.86a29.17,29.17,0,0,0-.5,4.33,1,1,0,1,0,2,0,62.73,62.73,0,0,1,1.15-6.5,51.15,51.15,0,0,1,2-6.4A1,1,0,0,0,28.2,26.06Z"/>
        <path class="cls-2" d="M40.19,18.26a.43.43,0,0,0,0,0,5.07,5.07,0,0,0-.44,1,4.5,4.5,0,0,1-.3.42c-.33.42-.79.83-.82,1.38a.47.47,0,0,0,.35.44.45.45,0,0,0,.11,0c-.08.29-.16.55-.22.83-.38,1.39-.71,2.8-1,4.2a5.43,5.43,0,0,1-.13.58,4.08,4.08,0,0,0-.88-1,3,3,0,0,0-3.44-.35,6.76,6.76,0,0,0-2.05,2.78A22.67,22.67,0,0,0,30,32a21.3,21.3,0,0,0-.73,3.55,6,6,0,0,0,.29,3.66,2.4,2.4,0,0,0,1.85,1.2,1,1,0,0,1,0-.87,1.28,1.28,0,0,1,.24-.39,2.69,2.69,0,0,1,.3-.29,6.17,6.17,0,0,1,1.92-1.09l.55-.17c.09-.2.19-.39.28-.57.55-1.09,1.1-2.19,1.63-3.27-.09.46-.19.91-.27,1.37-.15.75-.3,1.52-.43,2.27h.6a3.78,3.78,0,0,1,1.59.47l.33-1.74c.27-1.41.57-2.82.87-4.24.58-2.79,1.19-5.59,1.86-8.36.18-.77.35-1.56.54-2.34a11.1,11.1,0,0,0,.44-2.53A.86.86,0,0,0,40.19,18.26Zm-5,13c-.47.94-1,1.88-1.42,2.83l-1.43,2.74c-.21.4-.41.8-.66,1.18a.63.63,0,0,1-.14.21l0-.05a3,3,0,0,0-.09-.29,5.73,5.73,0,0,1,.05-1.49,17.82,17.82,0,0,1,.44-2.68,18.12,18.12,0,0,1,2-5.09,3,3,0,0,1,.63-.84.75.75,0,0,1,.77,0,2.59,2.59,0,0,1,1,1.11C35.92,29.61,35.58,30.43,35.18,31.21Z"/>
        <path class="cls-2" d="M43.77,26.34a.82.82,0,0,0-1.52-.4,6,6,0,0,0-.74,1.82c-.19.56-.34,1.16-.5,1.74-.33,1.19-.63,2.4-.91,3.61s-.52,2.37-.75,3.56c-.11.6-.23,1.2-.32,1.79,0,.19-.08.39-.11.6a1.38,1.38,0,0,0,0,.64,1.15,1.15,0,0,0,.41.61,1.25,1.25,0,0,0,.49.24,1.08,1.08,0,0,0,1.28-.64,1,1,0,0,0,0-.69c.36-2.08.77-4.12,1.21-6.17.23-1.09.49-2.15.74-3.24.14-.55.28-1.11.41-1.68A5.75,5.75,0,0,0,43.77,26.34Zm1.51-4.78a.69.69,0,0,0-.19-.33.52.52,0,0,0-.17-.19.78.78,0,0,0-.35-.18l-.26,0-.27,0a.84.84,0,0,0-.35.18,1.35,1.35,0,0,0-.25.28,3.64,3.64,0,0,0-.22.49l-.08.3a1.28,1.28,0,0,0-.07.28,1.15,1.15,0,0,0-.11.55c0,.09,0,.19,0,.28a.84.84,0,0,0,.19.36.58.58,0,0,0,.19.19.84.84,0,0,0,.36.19,1.37,1.37,0,0,0,.57,0,.78.78,0,0,0,.36-.19.73.73,0,0,0,.28-.3l0,0,.11-.27s0,0,0-.08a.32.32,0,0,0,0-.14,1.27,1.27,0,0,0,.06-.28,1.84,1.84,0,0,0,.07-.3,2.57,2.57,0,0,0,.06-.55Z"/>
        <path class="cls-2" d="M51.35,26.61l-.69.54h0l.53-.09h.08a2.36,2.36,0,0,1,0,1c0,.2,0,.4-.07.6l.34-.26c.17-.14.38-.22.47-.44a.11.11,0,0,1,.09-.06c.15,0,.22-.1.32-.18s.52-.29.77-.44a1.18,1.18,0,0,0,.19-.11,4.53,4.53,0,0,0-.06-.5,2.27,2.27,0,0,0-.66-1.14,1.62,1.62,0,0,1-.65.5,2.09,2.09,0,0,0-.58.42ZM53,28.44l0,0a1.24,1.24,0,0,1-.32.21,2.75,2.75,0,0,1-.4.35l-.09.06a10.45,10.45,0,0,1-1,.7l-.1.06a20.33,20.33,0,0,1-.53,2c-.09.28-.19.55-.29.83l0,.06a19.66,19.66,0,0,1-1.36,2.81A11.91,11.91,0,0,1,47.19,38c-.2.22-.53.49-.8.46s-.07,0-.19-.07c.12,0-.09-.16,0,0a1.25,1.25,0,0,1-.22-.47,4.39,4.39,0,0,1-.17-1.22,16.29,16.29,0,0,1,0-1.71,14.5,14.5,0,0,1,.58-3.39,16,16,0,0,1,.8-2.14c.14-.3.29-.59.45-.88s.21-.36.32-.53l.24-.33.7-.14.14,0,.05,0a2.67,2.67,0,0,0,.34-.29,8.92,8.92,0,0,1,1.29-1.12l.15-.12,0,0,.13-.11a.53.53,0,0,0,.12-.1,2,2,0,0,1,.72-.45.7.7,0,0,0,.15-.13h0a6.52,6.52,0,0,0-3.44.3,18.54,18.54,0,0,1-3.39.64v0a.87.87,0,0,0-.66.8.71.71,0,0,0,.42,1,5,5,0,0,0,.74.18,11.49,11.49,0,0,0-1.22,2.79,16,16,0,0,0-.71,3.85A10.3,10.3,0,0,0,44,38.48a2.6,2.6,0,0,0,3.11,1.9c1.4-.33,2.21-1.63,2.92-2.73a24.42,24.42,0,0,0,1.9-3.52,20.11,20.11,0,0,0,1.18-3.59,20.42,20.42,0,0,0,.33-2l0-.33h0Z"/>
      </g>
      <text class="cls-3" transform="translate(54.05 27.18)">®</text>
      <path class="cls-4" d="M40.41,13.63s0,0,0-.05a1.83,1.83,0,0,0-.6-.39l-.31-.11-.7-.21a4.39,4.39,0,0,0-1.25-.17,5.92,5.92,0,0,1-.94,0L36,12.58a3.07,3.07,0,0,0-1.28,0,1.16,1.16,0,0,1-.32,0,4.49,4.49,0,0,0-1,.09,2,2,0,0,1-.34.06,1.4,1.4,0,0,1-.54,0,3.69,3.69,0,0,0-.45-.11,8.89,8.89,0,0,0-1-.19.33.33,0,0,1-.13,0,.13.13,0,0,1-.06-.11s0-.05,0-.08a1.39,1.39,0,0,1,.68-.77l.12-.05a.51.51,0,0,1,.3,0l.22.09a.74.74,0,0,0,.29.05.24.24,0,0,0,.22-.14.53.53,0,0,1,.11-.21.35.35,0,0,0,.1-.19.61.61,0,0,1,.22-.33.26.26,0,0,0,.07-.34.61.61,0,0,0,0-.12.78.78,0,0,1-.09-.47.28.28,0,0,0,0-.09A.23.23,0,0,0,33,9.53a.81.81,0,0,1-.15-.37s0-.09,0-.13a.71.71,0,0,0-.13-.35,1,1,0,0,0-.28-.29,1.42,1.42,0,0,0-.69-.23h-.37a1.39,1.39,0,0,0-.73.27A1.8,1.8,0,0,0,30,9.5l-.06.27,0,.07a.18.18,0,0,1-.05.07l-.07,0s-.05,0-.06,0a1.31,1.31,0,0,0-.26-.56A2.78,2.78,0,0,0,29.18,9l-.48-.48L28.18,8a3.56,3.56,0,0,1-.39-.48l-.25-.36c-.08-.13-.18-.25-.27-.37a3.21,3.21,0,0,1-.46-.88,1.25,1.25,0,0,0-.22-.37l-.15-.16a7,7,0,0,1-.76-.95c-.23-.33-.43-.68-.67-1a1.2,1.2,0,0,1-.23-.71V2.53a.28.28,0,0,0-.07-.17l-.1-.09a.19.19,0,0,0-.2,0s0,0-.06-.06a.75.75,0,0,1,0-.12c.12-.44.2-.89.29-1.34l.09-.45c0-.14,0-.2-.17-.24l-.19,0a.13.13,0,0,0-.12.08.64.64,0,0,0-.06.18c-.11.54-.22,1.08-.34,1.62,0,.12-.05.24-.08.36l-.13.06a.16.16,0,0,0-.09.16,2,2,0,0,1,0,.35,1.36,1.36,0,0,1,0,.29c0,.25-.09.5-.14.74-.1.5-.19,1-.29,1.49l-.3,1.56-.3,1.51c-.1.5-.2,1-.31,1.48L22,10.6a.11.11,0,0,1-.15.07l-.2-.08-1.1-.52a6.11,6.11,0,0,1-.67-.35,3.85,3.85,0,0,1-1.36-1.36,3.29,3.29,0,0,0-.94-1A5.32,5.32,0,0,0,17,7c-.55-.25-1.08-.54-1.62-.81A.55.55,0,0,1,15,5.74a.8.8,0,0,0-.05-.21.4.4,0,0,0-.22-.22l-.21-.06-.18,0a2.14,2.14,0,0,1-.62-.26l-.54-.32-.28-.16a.39.39,0,0,0-.26,0l-.34.08a.75.75,0,0,0-.34.21.14.14,0,0,0,0,.2L12,5a1.28,1.28,0,0,1,.39.47.3.3,0,0,0,.17.16,1.32,1.32,0,0,1,.29.15l.68.44a4.77,4.77,0,0,0,.83.46,2.61,2.61,0,0,1,.56.32c.3.21.59.44.87.68.45.38.86.79,1.28,1.21a2.33,2.33,0,0,1,.56.85.93.93,0,0,0,.37.48,1.53,1.53,0,0,1,.39.37c.09.12.17.23.27.34l1.47,1.58c.24.26.49.51.74.76l.1.12a.09.09,0,0,1,0,.1l-.08.08a5.25,5.25,0,0,0-.6.65l-.69.87c-.26.34-.55.67-.84,1a1.17,1.17,0,0,1-.47.31c-.17.07-.34.16-.51.24l-.51.25a4.56,4.56,0,0,0-1.77,1.43l-.22.3a2.83,2.83,0,0,1-.43.48l-.37.36,0,0-.31.3a.64.64,0,0,1-.27.18s0-.05,0-.07l-.56,1.62,1.78,0h-.35l-.63,0H14s0,0,0,0l.09-.1.51-.53a2.93,2.93,0,0,1,.54-.45c.48-.35,1-.69,1.46-1l.23-.17a3.64,3.64,0,0,0,.48-.4,3.21,3.21,0,0,1,1.36-.76l.26-.06a.5.5,0,0,0,.26-.13,2.18,2.18,0,0,1,.46-.28l.38-.2a2.37,2.37,0,0,1,.5-.2s.07,0,.07.06a.66.66,0,0,1,0,.14l-.18,1,0,.09-.12.17.78-.12v-.05h0c.06-.27.11-.54.17-.81l.18-.74a.32.32,0,0,1,.15-.21,9.7,9.7,0,0,1,.95-.51c.31-.14.61-.28.9-.44a1.63,1.63,0,0,1,.64-.19l1.06-.05h.56l.49,0c.31,0,.61,0,.92,0a3.08,3.08,0,0,0,.61-.07,6.19,6.19,0,0,0,1.25-.44l1.53-.74a1.8,1.8,0,0,1,1.07-.18l.21,0a10.66,10.66,0,0,0,1.6,0l.9-.15a5.48,5.48,0,0,1,1.21-.14,3.25,3.25,0,0,0,.54,0c.27,0,.55,0,.83-.08l.58-.1.56-.11a.59.59,0,0,1,.37,0l.69.3a1.34,1.34,0,0,1,.48.3,1.17,1.17,0,0,0,.51.29l.1,0s.07,0,.07-.08,0,0,0-.08-.13-.23-.2-.35l-.1-.19a0,0,0,0,1,0,0l0,0,.11,0,.25.15.1,0s.06,0,.07,0A0,0,0,0,0,40.41,13.63ZM27.71,9.89a1.05,1.05,0,0,1,0,.18,2.58,2.58,0,0,1-.26.59,4.86,4.86,0,0,1-.42.59,2,2,0,0,1-.43.38c-.11.08-.24.15-.36.24l-.31.21a1.15,1.15,0,0,1-.43.21,2.54,2.54,0,0,1-.48.09.2.2,0,0,1-.18-.09l-.11-.22c-.07-.11-.13-.22-.2-.32a1.13,1.13,0,0,0-.55-.41,2.6,2.6,0,0,0-.4-.1,4.36,4.36,0,0,1-.87-.26l-.07,0a.17.17,0,0,1-.08-.17c0-.08,0-.17,0-.26.23-1.11.46-2.22.7-3.33s.49-2.3.73-3.45c0-.05,0-.09,0-.14l0-.07a.11.11,0,0,1,.16,0,.91.91,0,0,1,.19.29l.06.15a4.19,4.19,0,0,0,.33.71,3.09,3.09,0,0,1,.29.73,2.46,2.46,0,0,0,.31.68,1.76,1.76,0,0,1,.24.42.72.72,0,0,0,.16.25,6.53,6.53,0,0,1,.67,1c.13.21.25.44.37.66a6.41,6.41,0,0,0,.73,1.13l.07.08A.49.49,0,0,1,27.71,9.89Z"/>
      <path class="cls-4" d="M52.64,45.29s0-.06-.07-.06h-.06l-.66,0-.68,0a5.76,5.76,0,0,1-.59,0s0-.06,0-.08a7,7,0,0,0,.76-.87l.69-.89a1.92,1.92,0,0,0,.18-.31.21.21,0,0,0-.1-.28.18.18,0,0,0-.22,0,.18.18,0,0,0,0,.07,4.74,4.74,0,0,1-.37.51c-.23.3-.47.59-.71.88a4.17,4.17,0,0,1-.36.37,1.31,1.31,0,0,1-.33.25L50,45a.15.15,0,0,1-.18-.08.41.41,0,0,1-.05-.19,2.64,2.64,0,0,1,.08-.84.31.31,0,0,1,.08-.15l.13,0A1.87,1.87,0,0,0,51,43a1.55,1.55,0,0,0,.24-.46.92.92,0,0,0,0-.59.44.44,0,0,0-.38-.38.78.78,0,0,0-.4,0A1.35,1.35,0,0,0,50,42a3.39,3.39,0,0,0-.7.94,1.93,1.93,0,0,1-.31.49l-.21.29a10.69,10.69,0,0,1-.69.82c-.1.11-.22.22-.33.33a1.18,1.18,0,0,1-.32.21,1.3,1.3,0,0,1-.25.1.25.25,0,0,1-.32-.19.36.36,0,0,1,0-.11c0-.1,0-.2,0-.3A3.91,3.91,0,0,1,47,43.7a3,3,0,0,1,.43-1,1.45,1.45,0,0,1,.31-.34.61.61,0,0,1,.23-.11.2.2,0,0,1,.23.21s0,.07,0,.1a.22.22,0,0,0,0,.11.18.18,0,0,0,0,.1.15.15,0,0,0,.22,0,.59.59,0,0,0,.19-.47.75.75,0,0,0-.27-.55.71.71,0,0,0-.5-.19,1.12,1.12,0,0,0-.59.19,1.69,1.69,0,0,0-.49.43,2.8,2.8,0,0,0-.41.68,3.66,3.66,0,0,0-.27.95.48.48,0,0,1-.07.21c-.13.22-.25.44-.39.66a2.27,2.27,0,0,1-.22.32,1,1,0,0,1-.3.27l-.13,0a.1.1,0,0,1-.1-.08,1,1,0,0,1,0-.3c.07-.33.14-.66.24-1s.15-.6.22-.91a1,1,0,0,0,0-.35.67.67,0,0,0-.2-.44.3.3,0,0,0-.2-.08.71.71,0,0,0-.45.1,1.82,1.82,0,0,0-.23.15,5.16,5.16,0,0,0-.82.73.77.77,0,0,1-.22.22s0-.06,0-.08,0-.17.07-.26a.43.43,0,0,0-.11-.39.34.34,0,0,0-.56,0,1.08,1.08,0,0,0-.12.24c-.09.2-.17.41-.24.61a2,2,0,0,1-.11.26,8.73,8.73,0,0,1-.75,1.28l-.25.32a1,1,0,0,1-.26.21s-.08,0-.08,0a.5.5,0,0,1,0-.16,2.65,2.65,0,0,1,.13-1c.1-.32.22-.64.33-1,.06-.17.12-.34.17-.52a.9.9,0,0,0,0-.46.3.3,0,0,0-.21-.26.32.32,0,0,0-.36.07,1.49,1.49,0,0,0-.15.2,2.26,2.26,0,0,0-.13.2l-.07,0a1.24,1.24,0,0,0-.1-.2.58.58,0,0,0-.53-.28,1,1,0,0,0-.54.19,1.59,1.59,0,0,0-.45.48,3.82,3.82,0,0,0-.4.81A2.73,2.73,0,0,0,38.35,45a.71.71,0,0,0,.1.31.31.31,0,0,0,.37.17l.1,0a1,1,0,0,0,.28-.17,2.9,2.9,0,0,0,.34-.36,6.17,6.17,0,0,0,.39-.6s0-.09.12-.11a3.31,3.31,0,0,0,0,1.47.1.1,0,0,1-.09.06l-.55,0-.66,0-.68,0-1.76.08-.22,0a2.91,2.91,0,0,1-.42,0l0-.08.49-.44c.26-.26.51-.53.74-.81a7.92,7.92,0,0,0,1-1.57,5.24,5.24,0,0,0,.53-2.37,2.92,2.92,0,0,0-.17-.88,2.14,2.14,0,0,0-.36-.62,2.93,2.93,0,0,0-.41-.38,2.86,2.86,0,0,0-1.49-.54,3.47,3.47,0,0,0-.72,0h-.08a7.25,7.25,0,0,0-1.22.3l-.25.09a5.41,5.41,0,0,0-1.42.85l-.21.21a.39.39,0,0,0-.08.14.18.18,0,0,0,0,.21.2.2,0,0,0,.23,0l.11-.07a8.6,8.6,0,0,1,.74-.49,5.4,5.4,0,0,1,.77-.36,5.74,5.74,0,0,1,1.28-.33,5.17,5.17,0,0,1,.57,0,2.93,2.93,0,0,1,.65.1,1.8,1.8,0,0,1,.92.56l0,0a1.4,1.4,0,0,1,.37.89,3.72,3.72,0,0,1-.13,1.25,6,6,0,0,1-1,2.11l0,0h-.12a1.44,1.44,0,0,0-.41,0q-1,.22-2,.54a6.79,6.79,0,0,0-1.36.58l0,0h0s0,0,0,0a.18.18,0,0,1,0-.1c.17-.48.33-.95.51-1.42.27-.71.54-1.41.83-2.1.16-.36.32-.72.47-1.08.06-.15.11-.31.17-.47a.65.65,0,0,0,0-.24.37.37,0,0,0-.14-.29.35.35,0,0,0-.49.06,1.13,1.13,0,0,0-.12.21c-.15.29-.28.58-.4.88-.28.68-.53,1.36-.79,2S32.18,44,32,44.79a4.08,4.08,0,0,0-.21,1.05.52.52,0,0,1-.11.28h-.08c-.34,0-.67.06-1,.06l-.5,0-.77,0c-.12,0-.25,0-.38,0-.35,0-.7,0-1,0l-.36,0-.49,0c-.61,0-1.21,0-1.82.07l-1.15,0h-.3l-.74,0-.08,0s0-.06.06-.08l1-.59.05,0a.1.1,0,0,1,.07,0,1,1,0,0,1,.08.11,1.16,1.16,0,0,0,.29.25.69.69,0,0,0,.37.08,1,1,0,0,0,.37-.11,1.52,1.52,0,0,0,.35-.26c.12-.11.24-.23.35-.35l.41-.48a.1.1,0,0,1,.09-.06s0,.07,0,.1a2.72,2.72,0,0,0,0,.3,1.16,1.16,0,0,0,.21.48.69.69,0,0,0,.59.29A.94.94,0,0,0,27.8,46a3.11,3.11,0,0,0,.33-.29,3.51,3.51,0,0,0,.4-.53,1.4,1.4,0,0,1,.1-.16l.07,0,.14,0a.62.62,0,0,0,.38,0,1.25,1.25,0,0,0,.52-.28,3.74,3.74,0,0,0,.73-.86.77.77,0,0,0,.1-.25.33.33,0,0,0,0-.17.16.16,0,0,0-.21-.07l-.13.11c-.09.11-.18.23-.26.35a1.87,1.87,0,0,1-.52.49,1,1,0,0,1-.25.11A.15.15,0,0,1,29,44.3s0-.07,0-.11a2.36,2.36,0,0,1,0-.38,1.86,1.86,0,0,0,0-.47,1.07,1.07,0,0,0-.27-.7.74.74,0,0,0-.56-.26,1.09,1.09,0,0,0-.69.22,2.56,2.56,0,0,0-.47.46,3.16,3.16,0,0,0-.41.74,1.33,1.33,0,0,1-.18.31l-.69.86a3.61,3.61,0,0,1-.6.57.68.68,0,0,1-.24.12.16.16,0,0,1-.17,0,.47.47,0,0,1-.06-.15,2.6,2.6,0,0,1,.09-1s0,0,0,0l.08-.07.08,0a2,2,0,0,0,1.24-1.12,1.11,1.11,0,0,0,.09-.62.83.83,0,0,0-.06-.21.43.43,0,0,0-.35-.24,1,1,0,0,0-.35,0,1.52,1.52,0,0,0-.61.36,3.6,3.6,0,0,0-.77,1.09,3,3,0,0,0-.31,1.6.1.1,0,0,1,0,.1l-.12.07-1,.56-1,.52a.69.69,0,0,1-.32.08l-.3,0h-.44c-.09,0-.13,0-.12-.13s0-.22,0-.33a4.79,4.79,0,0,1,.17-.75c.22-.73.48-1.44.77-2.15a25.8,25.8,0,0,1,1.14-2.37l.63-1.16a3.78,3.78,0,0,0,.17-.35,1.89,1.89,0,0,0,.09-.34.38.38,0,0,0,0-.24.4.4,0,0,0-.12-.16.33.33,0,0,0-.42,0,1.8,1.8,0,0,0-.19.2,8,8,0,0,0-.52.77,1.4,1.4,0,0,0-.1.16,23.48,23.48,0,0,0-1.31,2.48,17.41,17.41,0,0,0-.76,2A8,8,0,0,0,19.68,46a3,3,0,0,0,0,.52.62.62,0,0,1,0,.13.3.3,0,0,1-.22,0c-.33,0-.66,0-1,0l-.08,0a.07.07,0,0,0,0,.06v.14s0,.07.07.07h.11c.33,0,.66,0,1,0a.46.46,0,0,1,.26,0,1.13,1.13,0,0,0,.15.21.82.82,0,0,0,.64.32,1.62,1.62,0,0,0,.62-.11l.38-.16.57-.32a.52.52,0,0,1,.26-.08l.69,0,.71,0,.55,0,.66,0,1.79-.07h.05l.69,0,1.76-.07h.05l.74,0,.58,0,.82,0,.09,0a1,1,0,0,1,0,.1A.76.76,0,0,0,32,47a1,1,0,0,0,.44.14,2.85,2.85,0,0,0,1.09-.08A5.56,5.56,0,0,0,35,46.46l.19-.12a.25.25,0,0,1,.15-.05l1,0,.58,0,.69,0,.57,0,.66,0,.74,0c.25,0,.5,0,.75,0l.13.1a.55.55,0,0,0,.6,0l.14-.08.15-.11.53,0c.3,0,.6,0,.9,0l.36,0c.3,0,.61,0,.91,0l.44,0a.83.83,0,0,1,.22,0,.83.83,0,0,0,.35,0,.58.58,0,0,1,.19,0c.49,0,1-.06,1.48-.06h.19c.28,0,.55,0,.83,0,.12,0,.25,0,.38,0,.33,0,.66,0,1,0l.36,0,.41,0,.82,0,.63,0,1.26-.06h0s0,0,0,0Zm-2.59-2a.24.24,0,0,1,0-.08,3.4,3.4,0,0,1,.42-.77l.22-.24s.06,0,.09-.06a.08.08,0,0,1,.11.06s0,0,0,.07a1,1,0,0,1-.28.65,1.55,1.55,0,0,1-.54.41l-.05,0A0,0,0,0,1,50.05,43.26ZM27.13,44.85a3.09,3.09,0,0,1,.6-1.25,1.86,1.86,0,0,1,.56-.48s.07,0,.07,0a.37.37,0,0,1,.05.38,1.4,1.4,0,0,0-.12.78.68.68,0,0,1-.07.4,2.39,2.39,0,0,1-.56.78,1,1,0,0,1-.32.2.17.17,0,0,1-.21-.09.42.42,0,0,1,0-.15.86.86,0,0,1,0-.15A1.49,1.49,0,0,1,27.13,44.85Zm-2.1-1a3.22,3.22,0,0,1,.51-.9.69.69,0,0,1,.24-.21.08.08,0,0,1,.09,0s0,0,0,0v.06a1,1,0,0,1-.19.53,1.49,1.49,0,0,1-.61.5,0,0,0,0,1-.05,0S25,43.88,25,43.84Zm8.17,2.55h0l0,0h0l0,0a1.85,1.85,0,0,1-.62.07.39.39,0,0,1-.21-.06v0l0,0,.71,0h.17S33.23,46.39,33.2,46.39ZM34.29,46l0,0a.32.32,0,0,1-.15.06l-1,0h0l-.52,0c-.07,0-.09,0-.12-.09a.16.16,0,0,1,0-.2,3.42,3.42,0,0,1,.52-.4,6.29,6.29,0,0,1,.91-.43,17.6,17.6,0,0,1,1.82-.6,2.09,2.09,0,0,1,.43-.11h0s0,0,0,0a.08.08,0,0,1,0,0A8.59,8.59,0,0,1,34.29,46Zm5.83-2.65a.34.34,0,0,1-.06.2c-.25.35-.49.71-.77,1l-.11.12a0,0,0,0,1,0,0v-.1a6.35,6.35,0,0,1,.28-1,2.3,2.3,0,0,1,.26-.49.76.76,0,0,1,.28-.25.11.11,0,0,1,.14,0,.21.21,0,0,1,0,.07,1.28,1.28,0,0,1,0,.17C40.13,43.21,40.12,43.25,40.12,43.3ZM44.6,43c-.07.26-.14.51-.22.77a6.57,6.57,0,0,0-.22.9,1.39,1.39,0,0,0,.06.83s0,.05,0,.08l-.06,0-1,.06-.74,0-.69,0-.08,0,0-.08.17-.25c0-.06.07-.07.12,0l0,0a.36.36,0,0,0,.36.09.24.24,0,0,0,.09-.06.55.55,0,0,0,.13-.17,8,8,0,0,1,1.17-1.65c.14-.16.29-.31.44-.46a2.17,2.17,0,0,1,.29-.24s.07,0,.1-.05.06,0,.06,0A.37.37,0,0,1,44.6,43Zm1.63,2.52-.54,0s-.08,0-.09,0,0-.05,0-.07l.37-.51s0,0,0,0a0,0,0,0,1,0,0,1.52,1.52,0,0,0,.25.51A.15.15,0,0,1,46.23,45.5Zm2.66-.12h-.21l-.86,0s0,0,0,0,0,0,0,0l0,0a6.82,6.82,0,0,0,.9-1s.06-.09.13-.1a2.32,2.32,0,0,1,0,.38A3.38,3.38,0,0,0,49,45a2.79,2.79,0,0,0,.18.34A.88.88,0,0,1,48.89,45.38Z"/>
      <path d="M63.68,23.9h-.06l-.2-.07-.52-.15a.08.08,0,0,0,.05.07c.15.08.3.14.43.22s.06.06.09.1a.07.07,0,0,1,0,.1H63.3a1.55,1.55,0,0,1-.23-.07v0a2.92,2.92,0,0,1,.28.21.2.2,0,0,1,0,.09.06.06,0,0,1-.06.09h-.1c-.16-.06-.32-.14-.48-.21h-.13a.42.42,0,0,0,0,.12c.07.09.15.18.22.28l0,.08a.06.06,0,0,1-.07.08.15.15,0,0,1-.1,0,1.29,1.29,0,0,0-.75-.5l-.12,0a.38.38,0,0,0-.36,0c-.34.15-.68.28-1,.46a2,2,0,0,1-.57.24,2.5,2.5,0,0,0-.51.16c-.14.05-.26.15-.4.19a.27.27,0,0,0-.2.22c0,.21-.1.42-.14.63s-.23.42-.22.68-.06.41,0,.61a7,7,0,0,1,.12,1.45s0,.06,0,.09a1,1,0,0,1-.17.85.46.46,0,0,0-.06.55c.14.3.29.59.45.89.26.48.54,1,.79,1.44.16.33.3.67.45,1a4.23,4.23,0,0,0,.23.48.8.8,0,0,1-.07.84c-.07.07-.14.16-.22.23a1.1,1.1,0,0,1-.23.2,3,3,0,0,1-.45.19.2.2,0,0,0-.16.23,2.77,2.77,0,0,1-.06,1,1.79,1.79,0,0,0-.09.4c-.06.28-.1.56-.18.82-.15.52-.33,1-.49,1.54a1,1,0,0,1-.47.68c-.22.12-.2.14-.1.37a3.4,3.4,0,0,1,.12.34l0,0H58c0,.06,0,.12,0,.14.3.22.6.43.91.63.15.1.37.09.47.29a.36.36,0,0,1,0,.23c0,.19-.11.37-.35.42a3.59,3.59,0,0,1-1.46,0c-.42-.08-.83-.19-1.24-.29l-.59-.16c-.07,0-.11-.12-.16-.18s0-.42,0-.46,0-.08,0-.11.06-.26.07-.38a1.08,1.08,0,0,0,0-.4c-.05-.23,0-.27.16-.4l0,0a.81.81,0,0,0,.27-.68.92.92,0,0,1,.24-.74.38.38,0,0,0,.05-.15c0-.26.09-.53.14-.79s.15-.8.24-1.19c0-.1,0-.14-.11-.14L56,36.57a.38.38,0,0,0-.39.15.53.53,0,0,1-.25.17c-.17.06-.35.08-.52.13s-.26.13-.39.19c0,.21-.14.21-.26.3a1.65,1.65,0,0,0-.43.48,6.28,6.28,0,0,0-.27.59.31.31,0,0,1-.57.06.92.92,0,0,1-.16-.29,2.63,2.63,0,0,1,.06-1.64c.1-.24.18-.49.27-.73s.2-.64.33-.94.24-.27.5-.16a2.76,2.76,0,0,0,.65.1l0,0,.29-.08c.14,0,.2,0,.17.21l.14-.18c.07-.09.14-.14.25,0s.11,0,.17,0a.9.9,0,0,0,.16,0,1.8,1.8,0,0,0,.43-.13s0-.21,0-.32a.5.5,0,0,0-.08-.14c-.14-.26-.29-.51-.44-.78a3.47,3.47,0,0,1-.34-.7,3.61,3.61,0,0,0-.42-.86,1.49,1.49,0,0,1-.17-.36c-.09-.3-.15-.61-.24-.91a1.35,1.35,0,0,1,.05-.69,1.48,1.48,0,0,0,0-.3c0-.13,0-.26,0-.39s.06-.37.07-.55a1.67,1.67,0,0,0,0-.63c-.1-.36-.26-.7-.39-1-.07-.18-.09-.19-.26-.1l-.42.25a1.18,1.18,0,0,1-.19.11c-.25.15-.52.28-.77.44s-.17.18-.32.18a.11.11,0,0,0-.09.06c-.09.22-.3.3-.47.44l-.34.26a5.3,5.3,0,0,1-.54.39c-.21.13-.46.19-.61.42,0,0-.08.05-.12.07a2.47,2.47,0,0,0-.36.19.58.58,0,0,0-.3.45c0,.23,0,.46,0,.69a.58.58,0,0,0,.07.21,1.93,1.93,0,0,1,.3.88.18.18,0,0,1,0,.12s-.08,0-.11,0a3,3,0,0,1-.67-.71,1.83,1.83,0,0,0-.33-.35l-.06,0-.12.54c0,.1,0,.26-.17.25s-.12-.17-.11-.27c0-.54.09-1.07.15-1.61,0-.13,0-.24-.1-.33a.4.4,0,0,1-.15-.19.18.18,0,0,1,0-.16s.11-.05.17-.06.06,0,.1.05.18.06.25-.11a.38.38,0,0,1,.12-.18,1.64,1.64,0,0,0,.56-.55.63.63,0,0,1,.12-.11,6.22,6.22,0,0,0,.68-.57,6.06,6.06,0,0,1,.64-.6h0l.69-.54.16-.13a2.09,2.09,0,0,1,.58-.42,1.62,1.62,0,0,0,.65-.5l.08-.07c.19-.16.31-.39.5-.55a.77.77,0,0,0,.26-.45.2.2,0,0,1,.06-.11.31.31,0,0,0,.1-.34.74.74,0,0,1,.41-.82,3.53,3.53,0,0,0,.67-.44,3.4,3.4,0,0,0,.34-.32,1.13,1.13,0,0,1,.25-.24A4.27,4.27,0,0,1,56,22a.85.85,0,0,1,.32,0l.54.09c0-.14,0-.25,0-.37a1.75,1.75,0,0,1-.06-.5,5.39,5.39,0,0,1,.28-.86,1.23,1.23,0,0,1,1.3-.91,1.27,1.27,0,0,1,.44.08,5,5,0,0,1,.6.32.74.74,0,0,1,.42.9c0,.2-.07.39-.11.59a.18.18,0,0,0,.11.24l.27.18a.36.36,0,0,1-.37,0c-.17-.07-.24,0-.3.14a.85.85,0,0,1-.06.17,2,2,0,0,1-.57,1,.14.14,0,0,0,0,.11c0,.17.11.33.15.49s.06.22.27.16l.1,0a1.86,1.86,0,0,0,.8-.2.2.2,0,0,1,.11,0,1.91,1.91,0,0,0,.88-.13,1.17,1.17,0,0,1,.36-.08.38.38,0,0,0,.33-.19,1.74,1.74,0,0,1,.28-.32.72.72,0,0,0,.3-.37.06.06,0,0,1,0,0,.1.1,0,0,1,.18,0,.07.07,0,0,1,0,.06,1.29,1.29,0,0,1-.12.38c-.09.2-.08.25.12.33l.55.19c.21.1.41.21.61.32a.11.11,0,0,1,0,.05A.08.08,0,0,1,63.68,23.9Z"/>
      <path d="M47.61,28.54c-.16.29-.31.58-.45.88a1,1,0,0,1,.23-.7A1.74,1.74,0,0,1,47.61,28.54Z"/>
      <path d="M50.57,32a1,1,0,0,1-.32.77l0-.06c.1-.28.2-.55.29-.83C50.56,31.88,50.57,31.92,50.57,32Z"/>
      <path d="M63.74,23.82a.08.08,0,0,1-.06.08h-.06l-.2-.07-.52-.15a.08.08,0,0,0,.05.07c.15.08.3.14.43.22s.06.06.09.1a.07.07,0,0,1,0,.1H63.3a1.55,1.55,0,0,1-.23-.07v0a2.92,2.92,0,0,1,.28.21.2.2,0,0,1,0,.09.06.06,0,0,1-.06.09h-.1c-.16-.06-.32-.14-.48-.21h-.13a.42.42,0,0,0,0,.12c.07.09.15.18.22.28l0,.08a.06.06,0,0,1-.07.08.15.15,0,0,1-.1,0,1.29,1.29,0,0,0-.75-.5l-.12,0a.38.38,0,0,0-.36,0c-.34.15-.68.28-1,.46a2,2,0,0,1-.57.24,2.5,2.5,0,0,0-.51.16c-.14.05-.26.15-.4.19a.27.27,0,0,0-.2.22c0,.21-.1.42-.14.63s-.23.42-.22.68-.06.41,0,.61a7,7,0,0,1,.12,1.45s0,.06,0,.09a1,1,0,0,1-.17.85.46.46,0,0,0-.06.55c.14.3.29.59.45.89.26.48.54,1,.79,1.44.16.33.3.67.45,1a4.23,4.23,0,0,0,.23.48.8.8,0,0,1-.07.84c-.07.07-.14.16-.22.23a1.1,1.1,0,0,1-.23.2,3,3,0,0,1-.45.19.2.2,0,0,0-.16.23,2.77,2.77,0,0,1-.06,1,1.79,1.79,0,0,0-.09.4c-.06.28-.1.56-.18.82-.15.52-.33,1-.49,1.54a1,1,0,0,1-.47.68c-.22.12-.2.14-.1.37a3.4,3.4,0,0,1,.12.34l0,0H58c0,.06,0,.12,0,.14.3.22.6.43.91.63.15.1.37.09.47.29a.36.36,0,0,1,0,.23c0,.19-.11.37-.35.42a3.59,3.59,0,0,1-1.46,0c-.42-.08-.83-.19-1.24-.29l-.59-.16c-.07,0-.11-.12-.16-.18s0-.42,0-.46,0-.08,0-.11.06-.26.07-.38a1.08,1.08,0,0,0,0-.4c-.05-.23,0-.27.16-.4l0,0a.81.81,0,0,0,.27-.68.92.92,0,0,1,.24-.74.38.38,0,0,0,.05-.15c0-.26.09-.53.14-.79s.15-.8.24-1.19c0-.1,0-.14-.11-.14L56,36.57a.38.38,0,0,0-.39.15.53.53,0,0,1-.25.17c-.17.06-.35.08-.52.13s-.26.13-.39.19c0,.21-.14.21-.26.3a1.65,1.65,0,0,0-.43.48,6.28,6.28,0,0,0-.27.59.31.31,0,0,1-.57.06.92.92,0,0,1-.16-.29,2.63,2.63,0,0,1,.06-1.64c.1-.24.18-.49.27-.73s.2-.64.33-.94.24-.27.5-.16a2.76,2.76,0,0,0,.65.1l0,0,.29-.08c.14,0,.2,0,.17.21l.14-.18c.07-.09.14-.14.25,0s.11,0,.17,0a.9.9,0,0,0,.16,0,1.8,1.8,0,0,0,.43-.13s0-.21,0-.32a.5.5,0,0,0-.08-.14c-.14-.26-.29-.51-.44-.78a3.47,3.47,0,0,1-.34-.7,3.61,3.61,0,0,0-.42-.86,1.49,1.49,0,0,1-.17-.36c-.09-.3-.15-.61-.24-.91a1.35,1.35,0,0,1,.05-.69,1.48,1.48,0,0,0,0-.3c0-.13,0-.26,0-.39s.06-.37.07-.55a1.67,1.67,0,0,0,0-.63c-.1-.36-.26-.7-.39-1-.07-.18-.09-.19-.26-.1l-.42.25a1.18,1.18,0,0,1-.19.11c-.25.15-.52.28-.77.44s-.17.18-.32.18a.11.11,0,0,0-.09.06c-.09.22-.3.3-.47.44l-.34.26a5.3,5.3,0,0,1-.54.39c-.21.13-.46.19-.61.42,0,0-.08.05-.12.07a2.47,2.47,0,0,0-.36.19.58.58,0,0,0-.3.45c0,.23,0,.46,0,.69a.58.58,0,0,0,.07.21,1.93,1.93,0,0,1,.3.88.18.18,0,0,1,0,.12s-.08,0-.11,0a3,3,0,0,1-.67-.71,1.83,1.83,0,0,0-.33-.35l-.06,0-.12.54c0,.1,0,.26-.17.25s-.12-.17-.11-.27c0-.54.09-1.07.15-1.61,0-.13,0-.24-.1-.33a.4.4,0,0,1-.15-.19.18.18,0,0,1,0-.16s.11-.05.17-.06.06,0,.1.05.18.06.25-.11a.38.38,0,0,1,.12-.18,1.64,1.64,0,0,0,.56-.55.63.63,0,0,1,.12-.11,6.22,6.22,0,0,0,.68-.57,6.06,6.06,0,0,1,.64-.6h0l.69-.54.16-.13a2.09,2.09,0,0,1,.58-.42,1.62,1.62,0,0,0,.65-.5l.08-.07c.19-.16.31-.39.5-.55a.77.77,0,0,0,.26-.45.2.2,0,0,1,.06-.11.31.31,0,0,0,.1-.34.74.74,0,0,1,.41-.82,3.53,3.53,0,0,0,.67-.44,3.4,3.4,0,0,0,.34-.32,1.13,1.13,0,0,1,.25-.24A4.27,4.27,0,0,1,56,22a.85.85,0,0,1,.32,0l.54.09c0-.14,0-.25,0-.37a1.75,1.75,0,0,1-.06-.5,5.39,5.39,0,0,1,.28-.86,1.23,1.23,0,0,1,1.3-.91,1.27,1.27,0,0,1,.44.08,5,5,0,0,1,.6.32.74.74,0,0,1,.42.9c0,.2-.07.39-.11.59a.18.18,0,0,0,.11.24l.27.18a.36.36,0,0,1-.37,0c-.17-.07-.24,0-.3.14a.85.85,0,0,1-.06.17,2,2,0,0,1-.57,1,.14.14,0,0,0,0,.11c0,.17.11.33.15.49s.06.22.27.16l.1,0a1.86,1.86,0,0,0,.8-.2.2.2,0,0,1,.11,0,1.91,1.91,0,0,0,.88-.13,1.17,1.17,0,0,1,.36-.08.38.38,0,0,0,.33-.19,1.74,1.74,0,0,1,.28-.32.72.72,0,0,0,.3-.37.06.06,0,0,1,0,0,.1.1,0,0,1,.18,0,.07.07,0,0,1,0,.06,1.29,1.29,0,0,1-.12.38c-.09.2-.08.25.12.33l.55.19c.21.1.41.21.61.32A.11.11,0,0,1,63.74,23.82Z"/>
      <path class="cls-4" d="M63.74,23.82a.08.08,0,0,1-.06.08h-.06l-.2-.07-.52-.15a.08.08,0,0,0,.05.07c.15.08.3.14.43.22s.06.06.09.1a.07.07,0,0,1,0,.1H63.3a1.55,1.55,0,0,1-.23-.07v0a2.92,2.92,0,0,1,.28.21.2.2,0,0,1,0,.09.06.06,0,0,1-.06.09h-.1c-.16-.06-.32-.14-.48-.21h-.13a.42.42,0,0,0,0,.12c.07.09.15.18.22.28l0,.08a.06.06,0,0,1-.07.08.15.15,0,0,1-.1,0,1.29,1.29,0,0,0-.75-.5l-.12,0a.38.38,0,0,0-.36,0c-.34.15-.68.28-1,.46a2,2,0,0,1-.57.24,2.5,2.5,0,0,0-.51.16c-.14.05-.26.15-.4.19a.27.27,0,0,0-.2.22c0,.21-.1.42-.14.63s-.23.42-.22.68-.06.41,0,.61a7,7,0,0,1,.12,1.45s0,.06,0,.09a1,1,0,0,1-.17.85.46.46,0,0,0-.06.55c.14.3.29.59.45.89.26.48.54,1,.79,1.44.16.33.3.67.45,1a4.23,4.23,0,0,0,.23.48.8.8,0,0,1-.07.84c-.07.07-.14.16-.22.23a1.1,1.1,0,0,1-.23.2,3,3,0,0,1-.45.19.2.2,0,0,0-.16.23,2.77,2.77,0,0,1-.06,1,1.79,1.79,0,0,0-.09.4c-.06.28-.1.56-.18.82-.15.52-.33,1-.49,1.54a1,1,0,0,1-.47.68c-.22.12-.2.14-.1.37a3.4,3.4,0,0,1,.12.34l0,0H58c0,.06,0,.12,0,.14.3.22.6.43.91.63.15.1.37.09.47.29a.36.36,0,0,1,0,.23c0,.19-.11.37-.35.42a3.59,3.59,0,0,1-1.46,0c-.42-.08-.83-.19-1.24-.29l-.59-.16c-.07,0-.11-.12-.16-.18s0-.42,0-.46,0-.08,0-.11.06-.26.07-.38a1.08,1.08,0,0,0,0-.4c-.05-.23,0-.27.16-.4l0,0a.81.81,0,0,0,.27-.68.92.92,0,0,1,.24-.74.38.38,0,0,0,.05-.15c0-.26.09-.53.14-.79s.15-.8.24-1.19c0-.1,0-.14-.11-.14L56,36.57a.38.38,0,0,0-.39.15.53.53,0,0,1-.25.17c-.17.06-.35.08-.52.13s-.26.13-.39.19c0,.21-.14.21-.26.3a1.65,1.65,0,0,0-.43.48,6.28,6.28,0,0,0-.27.59.31.31,0,0,1-.57.06.92.92,0,0,1-.16-.29,2.63,2.63,0,0,1,.06-1.64c.1-.24.18-.49.27-.73s.2-.64.33-.94.24-.27.5-.16a2.76,2.76,0,0,0,.65.1l0,0,.29-.08c.14,0,.2,0,.17.21l.14-.18c.07-.09.14-.14.25,0s.11,0,.17,0a.9.9,0,0,0,.16,0,1.8,1.8,0,0,0,.43-.13s0-.21,0-.32a.5.5,0,0,0-.08-.14c-.14-.26-.29-.51-.44-.78a3.47,3.47,0,0,1-.34-.7,3.61,3.61,0,0,0-.42-.86,1.49,1.49,0,0,1-.17-.36c-.09-.3-.15-.61-.24-.91a1.35,1.35,0,0,1,.05-.69,1.48,1.48,0,0,0,0-.3c0-.13,0-.26,0-.39s.06-.37.07-.55a1.67,1.67,0,0,0,0-.63c-.1-.36-.26-.7-.39-1-.07-.18-.09-.19-.26-.1l-.42.25a1.18,1.18,0,0,1-.19.11c-.25.15-.52.28-.77.44s-.17.18-.32.18a.11.11,0,0,0-.09.06c-.09.22-.3.3-.47.44l-.34.26a5.3,5.3,0,0,1-.54.39c-.21.13-.46.19-.61.42,0,0-.08.05-.12.07a2.47,2.47,0,0,0-.36.19.58.58,0,0,0-.3.45c0,.23,0,.46,0,.69a.58.58,0,0,0,.07.21,1.93,1.93,0,0,1,.3.88.18.18,0,0,1,0,.12s-.08,0-.11,0a3,3,0,0,1-.67-.71,1.83,1.83,0,0,0-.33-.35l-.06,0-.12.54c0,.1,0,.26-.17.25s-.12-.17-.11-.27c0-.54.09-1.07.15-1.61,0-.13,0-.24-.1-.33a.4.4,0,0,1-.15-.19.18.18,0,0,1,0-.16s.11-.05.17-.06.06,0,.1.05.18.06.25-.11a.38.38,0,0,1,.12-.18,1.64,1.64,0,0,0,.56-.55.63.63,0,0,1,.12-.11,6.22,6.22,0,0,0,.68-.57,6.06,6.06,0,0,1,.64-.6h0l.69-.54.16-.13a2.09,2.09,0,0,1,.58-.42,1.62,1.62,0,0,0,.65-.5l.08-.07c.19-.16.31-.39.5-.55a.77.77,0,0,0,.26-.45.2.2,0,0,1,.06-.11.31.31,0,0,0,.1-.34.74.74,0,0,1,.41-.82,3.53,3.53,0,0,0,.67-.44,3.4,3.4,0,0,0,.34-.32,1.13,1.13,0,0,1,.25-.24A4.27,4.27,0,0,1,56,22a.85.85,0,0,1,.32,0l.54.09c0-.14,0-.25,0-.37a1.75,1.75,0,0,1-.06-.5,5.39,5.39,0,0,1,.28-.86,1.23,1.23,0,0,1,1.3-.91,1.27,1.27,0,0,1,.44.08,5,5,0,0,1,.6.32.74.74,0,0,1,.42.9c0,.2-.07.39-.11.59a.18.18,0,0,0,.11.24l.27.18a.36.36,0,0,1-.37,0c-.17-.07-.24,0-.3.14a.85.85,0,0,1-.06.17,2,2,0,0,1-.57,1,.14.14,0,0,0,0,.11c0,.17.11.33.15.49s.06.22.27.16l.1,0a1.86,1.86,0,0,0,.8-.2.2.2,0,0,1,.11,0,1.91,1.91,0,0,0,.88-.13,1.17,1.17,0,0,1,.36-.08.38.38,0,0,0,.33-.19,1.74,1.74,0,0,1,.28-.32.72.72,0,0,0,.3-.37.06.06,0,0,1,0,0,.1.1,0,0,1,.18,0,.07.07,0,0,1,0,.06,1.29,1.29,0,0,1-.12.38c-.09.2-.08.25.12.33l.55.19c.21.1.41.21.61.32A.11.11,0,0,1,63.74,23.82Z"/>
    </g>
  </g>
</svg>
