<svg xmlns="http://www.w3.org/2000/svg" viewBox="0 0 23.09 17.21">
  <defs>
    <style>
      .cls-1 {
        fill: #e41679;
      }

      .cls-2 {
        fill: #fff;
      }

      .cls-3 {
        font-size: 1.5px;
        fill: #1d1d1b;
        font-family: Poppins-ExtraLight, Poppins;
        font-weight: 200;
      }
    </style>
  </defs>
  <g id="Capa_2" data-name="Capa 2">
    <g id="Capa_1-2" data-name="Capa 1">
      <g>
        <path class="cls-1" d="M5.89,6.93a0,0,0,0,1,0,0V7c-.08.24-.19.46-.26.7s-.15.47-.21.71-.11.51-.15.76,0,.23-.06.33a1.13,1.13,0,0,1-.1.44h0A.23.23,0,0,1,5,10a.34.34,0,0,1-.52-.16,1,1,0,0,1,0-.46c0-.14,0-.28.06-.41a6.91,6.91,0,0,1,.17-.76,8.76,8.76,0,0,1,.33-1.07l-.24,0-1,.12-1,.08-.46,0,.18.18c.2.2.4.41.58.63A14.88,14.88,0,0,1,4.22,9.63a4.41,4.41,0,0,1,1,3,2.38,2.38,0,0,1-1.92,1.94A2.84,2.84,0,0,1,.7,13.73c0,.13,0,.26-.07.4-.05.35-.66.26-.63-.08A12,12,0,0,1,.37,11.8c.09-.32.27-1.44.71-1.46a.33.33,0,0,1,.33.39c-.28.81-.86,2-.08,2.74a2.08,2.08,0,0,0,2.28.26,1.76,1.76,0,0,0,.87-1.86A6.39,6.39,0,0,0,3.26,9.41C3,9,2.74,8.68,2.46,8.34,2.32,8.16,2.16,8,2,7.81a3.38,3.38,0,0,1-.45-.55.2.2,0,0,1,0-.2.34.34,0,0,1,.33-.33c.32,0,.65,0,1,0s.65,0,1-.06l1-.1a1.64,1.64,0,0,1,.73,0,.36.36,0,0,1,.3.08A.35.35,0,0,1,5.89,6.93Z"/>
        <path class="cls-1" d="M11.16,8a.4.4,0,0,1-.39.38c-1.3.09-1.94.14-3.24.15H7.39C7,10.34,6,14.48,6,14.64H6a2,2,0,0,1-.05.26l0,0a.35.35,0,0,1,.58.34,2,2,0,0,1-.23.46l-.24.38c-.16.27-.31.54-.48.8a.4.4,0,0,1-.44.19.38.38,0,0,1-.29-.38c.07-.58,1.24-6.14,1.48-7.12.08-.33.16-.66.25-1h-1L4.4,8.5A.28.28,0,0,1,4,8.76a4.61,4.61,0,0,1-.54-.36.35.35,0,0,1,.18-.65c.65,0,1.3,0,2,0h.89a.24.24,0,0,1,.06-.29,2.06,2.06,0,0,0,.54-.6,1.57,1.57,0,0,1,.09-.23h0s0,0,0,0h0a.32.32,0,0,1,.59.16,4.4,4.4,0,0,1-.16.88.44.44,0,0,0,0,.1c1.29,0,1.91-.07,3.19-.15A.4.4,0,0,1,11.16,8Z"/>
        <path class="cls-1" d="M8.31,14l-.07.08a2,2,0,0,0-.19.28l0,.05a1.26,1.26,0,0,0,.39-.34L8.46,14A.11.11,0,0,0,8.31,14Zm1.9-4.56c-.31.63-.68,1.22-1,1.83s-.68,1.19-1,1.79a2.42,2.42,0,0,1-.43.66l-.06,0h0l0,0h0s0,0,0-.08a1.48,1.48,0,0,1,0-.41c0-.17.07-.34.11-.51.07-.32.14-.65.23-1s.2-.69.29-1A10.45,10.45,0,0,0,8.63,9.6a.31.31,0,0,0-.57-.24,4.84,4.84,0,0,0-.46,1c-.13.36-.24.72-.34,1.09s-.18.71-.26,1.07a3.56,3.56,0,0,0-.15,1.16.86.86,0,0,0,.69.78h.07c.06-.1.12-.21.19-.31A1.41,1.41,0,0,1,8,13.89a.52.52,0,0,1,.1-.11.43.43,0,0,1,.28-.11.4.4,0,0,1,.24.07c.12-.2.22-.41.33-.62l.18-.31A9.45,9.45,0,0,0,9,14.38a.37.37,0,0,0,.36.37.38.38,0,0,0,.37-.37A21,21,0,0,1,10.11,12a18.38,18.38,0,0,1,.73-2.32C11,9.34,10.38,9.09,10.21,9.44Z"/>
        <path class="cls-2" d="M14.56,6.61v0a2,2,0,0,0-.16.37.78.78,0,0,1-.1.15c-.12.16-.29.31-.3.5a.17.17,0,0,0,.12.16l0,0c0,.1-.05.19-.08.3-.13.5-.25,1-.38,1.51a1.12,1.12,0,0,1,0,.21,1.74,1.74,0,0,0-.32-.34,1.07,1.07,0,0,0-1.25-.13,2.48,2.48,0,0,0-.74,1,8.63,8.63,0,0,0-.49,1.22,7.85,7.85,0,0,0-.26,1.28,2.16,2.16,0,0,0,.1,1.33.87.87,0,0,0,.67.43.37.37,0,0,1,0-.31.47.47,0,0,1,.08-.14l.11-.11a2.29,2.29,0,0,1,.7-.39l.2-.07.1-.2c.2-.4.4-.79.59-1.19,0,.17-.07.33-.1.5l-.15.82h.21a1.51,1.51,0,0,1,.58.17l.12-.63c.1-.51.21-1,.31-1.53.21-1,.44-2,.68-3,.06-.28.13-.57.19-.85a3.62,3.62,0,0,0,.16-.92A.31.31,0,0,0,14.56,6.61Zm-1.82,4.7-.51,1-.52,1a3.62,3.62,0,0,1-.24.43.14.14,0,0,1-.05.07h0a.76.76,0,0,0,0-.11,2.44,2.44,0,0,1,0-.54,6.76,6.76,0,0,1,.16-1,6.15,6.15,0,0,1,.75-1.84,1,1,0,0,1,.22-.31.3.3,0,0,1,.28,0,1,1,0,0,1,.37.41C13,10.73,12.89,11,12.74,11.31Z"/>
        <path class="cls-2" d="M15.86,9.54a.31.31,0,0,0-.56-.15,2.22,2.22,0,0,0-.26.66c-.07.21-.13.42-.19.64-.12.43-.22.87-.33,1.3s-.18.86-.27,1.29c0,.22-.08.44-.11.65s0,.14,0,.22a.45.45,0,0,0,0,.23.4.4,0,0,0,.14.22.76.76,0,0,0,.18.09.4.4,0,0,0,.47-.23.44.44,0,0,0,0-.25c.13-.76.27-1.49.43-2.24l.27-1.17.15-.61A2.38,2.38,0,0,0,15.86,9.54Zm.54-1.73a.19.19,0,0,0-.07-.12.13.13,0,0,0-.06-.07.27.27,0,0,0-.12-.06l-.1,0-.1,0a.34.34,0,0,0-.12.06.28.28,0,0,0-.09.1,1.42,1.42,0,0,0-.08.18l0,.11a.38.38,0,0,0,0,.1.45.45,0,0,0,0,.2l0,.1a.31.31,0,0,0,.06.13.23.23,0,0,0,.07.07.33.33,0,0,0,.13.07h.21a.27.27,0,0,0,.13-.07.27.27,0,0,0,.1-.11h0a1,1,0,0,0,0-.1v0a.13.13,0,0,0,0-.06.29.29,0,0,0,0-.1s0-.07,0-.11a.65.65,0,0,0,0-.2Z"/>
        <path class="cls-2" d="M18.6,9.64l-.25.2h0l.2,0h0a.88.88,0,0,1,0,.37c0,.08,0,.15,0,.22l.12-.09c.06-.05.13-.08.17-.16l0,0c.05,0,.08,0,.12-.07l.28-.16.06,0a1.1,1.1,0,0,0,0-.18.82.82,0,0,0-.24-.41.58.58,0,0,1-.23.18c-.08,0-.14.1-.21.15Zm.59.66h0a.35.35,0,0,1-.11.07.81.81,0,0,1-.15.13l0,0-.35.26,0,0a6.44,6.44,0,0,1-.2.72c0,.1-.06.2-.1.3v0a6,6,0,0,1-.49,1,4.29,4.29,0,0,1-.62.89c-.07.08-.19.18-.29.17s0,0-.06,0,0-.06,0,0a.44.44,0,0,1-.08-.17,1.56,1.56,0,0,1-.06-.44c0-.21,0-.42,0-.62a5.65,5.65,0,0,1,.21-1.23,6,6,0,0,1,.29-.77,3.24,3.24,0,0,1,.17-.32,2,2,0,0,1,.11-.2l.09-.11L17.7,10h.07a.63.63,0,0,0,.12-.1,3.54,3.54,0,0,1,.47-.41l.05,0h0l0,0,.05,0a.78.78,0,0,1,.26-.16l0-.05h0a2.29,2.29,0,0,0-1.24.11,6.51,6.51,0,0,1-1.23.23h0a.31.31,0,0,0-.24.29.26.26,0,0,0,.15.37l.27.06a4.37,4.37,0,0,0-.44,1,6,6,0,0,0-.26,1.39,3.89,3.89,0,0,0,.09,1.36,1,1,0,0,0,1.13.69c.51-.12.8-.6,1.06-1a9.24,9.24,0,0,0,.68-1.28,6.83,6.83,0,0,0,.43-1.3,6.17,6.17,0,0,0,.12-.73s0-.08,0-.12h0Z"/>
      </g>
      <text class="cls-3" transform="translate(19.58 9.85)">®</text>
      <path class="cls-2" d="M14.64,4.94v0a.74.74,0,0,0-.22-.14l-.11,0L14,4.66a1.63,1.63,0,0,0-.45-.06h-.34l-.22,0a1.06,1.06,0,0,0-.47,0,.25.25,0,0,1-.12,0,1.32,1.32,0,0,0-.34,0l-.13,0a.59.59,0,0,1-.19,0l-.17,0a2.2,2.2,0,0,0-.37-.07h-.05a.08.08,0,0,1,0,0,0,0,0,0,1,0,0,.48.48,0,0,1,.24-.28l.05,0h.1l.09,0a.18.18,0,0,0,.1,0,.09.09,0,0,0,.08-.05.2.2,0,0,1,0-.08s0,0,0-.06A.16.16,0,0,1,12,3.88a.1.1,0,0,0,0-.13l0,0a.34.34,0,0,1,0-.17v0a.07.07,0,0,0,0-.06.31.31,0,0,1-.06-.13v0a.21.21,0,0,0-.05-.13.32.32,0,0,0-.1-.1A.46.46,0,0,0,11.5,3h-.13a.44.44,0,0,0-.27.09.62.62,0,0,0-.24.39.36.36,0,0,0,0,.1,0,0,0,0,0,0,0s0,0,0,0h0a0,0,0,0,1,0,0,.4.4,0,0,0-.09-.2l-.1-.12-.18-.17-.18-.19a.75.75,0,0,1-.14-.17L10,2.6l-.1-.14a1.23,1.23,0,0,1-.17-.32A.35.35,0,0,0,9.63,2L9.58,2a2.3,2.3,0,0,1-.28-.34l-.24-.37A.38.38,0,0,1,9,1V.92A.06.06,0,0,0,9,.86a.08.08,0,0,0,0,0,.06.06,0,0,0-.07,0s0,0,0,0a.1.1,0,0,1,0,0c0-.16.07-.32.1-.48L9,.09S9,0,8.9,0H8.83s0,0,0,0a.14.14,0,0,0,0,.07c0,.19-.08.39-.13.58l0,.13,0,0s0,0,0,.06a.56.56,0,0,1,0,.13.34.34,0,0,1,0,.1c0,.09,0,.18,0,.27s-.07.36-.11.54-.07.38-.11.57-.07.36-.1.54-.08.36-.11.54L8,3.84s0,0-.05,0l-.08,0-.39-.18-.25-.13A1.35,1.35,0,0,1,6.72,3a1.17,1.17,0,0,0-.34-.36l-.24-.13c-.2-.09-.39-.2-.59-.3a.19.19,0,0,1-.12-.16.24.24,0,0,0,0-.08.15.15,0,0,0-.08-.08l-.07,0-.07,0A1.09,1.09,0,0,1,5,1.79l-.19-.12-.1,0a.12.12,0,0,0-.1,0l-.12,0a.2.2,0,0,0-.12.08,0,0,0,0,0,0,.07l0,0A.39.39,0,0,1,4.49,2,.13.13,0,0,0,4.56,2l.1.05.25.16a1.46,1.46,0,0,0,.3.17l.2.11a3.92,3.92,0,0,1,.32.25c.16.14.31.29.46.44a.79.79,0,0,1,.2.31.33.33,0,0,0,.14.17.62.62,0,0,1,.14.14l.1.12.53.57.27.28,0,0a0,0,0,0,1,0,0l0,0-.22.24-.25.32c-.09.12-.2.24-.3.35a.52.52,0,0,1-.17.12L6.44,6l-.18.09a1.62,1.62,0,0,0-.64.52l-.08.11-.16.18L5.25,7h0l-.11.11L5,7.22s0,0,0,0l-.2.59h.23v0l0,0,.19-.19a1,1,0,0,1,.19-.17L6,7l.09-.06a1.22,1.22,0,0,0,.17-.15,1.13,1.13,0,0,1,.49-.27l.1,0,.09,0a1,1,0,0,1,.17-.1l.14-.08a.75.75,0,0,1,.18-.07,0,0,0,0,1,0,0v0c0,.13,0,.25-.07.38a0,0,0,0,1,0,0l0,.06.28,0v0h0l.06-.29c0-.09,0-.18.07-.27a.1.1,0,0,1,0-.08c.12-.06.23-.13.35-.18l.32-.16a.62.62,0,0,1,.23-.07l.39,0h.71a.78.78,0,0,0,.22,0,2.18,2.18,0,0,0,.45-.16L11,5.1A.65.65,0,0,1,11.41,5h.07a5.56,5.56,0,0,0,.58,0L12.39,5a2.1,2.1,0,0,1,.43-.05H13l.3,0,.21,0,.2,0a.23.23,0,0,1,.14,0l.25.11a.62.62,0,0,1,.17.11.44.44,0,0,0,.19.1h0s0,0,0,0a0,0,0,0,0,0,0L14.46,5a.25.25,0,0,0,0-.07h.06l.09.06h.06S14.64,5,14.64,4.94ZM10,3.58l0,.07a1,1,0,0,1-.09.21,1.7,1.7,0,0,1-.15.22.93.93,0,0,1-.15.13l-.14.09-.11.08a.51.51,0,0,1-.15.07l-.18,0a0,0,0,0,1-.06,0,.2.2,0,0,1,0-.08,1,1,0,0,0-.08-.11.34.34,0,0,0-.2-.15l-.14,0A1.92,1.92,0,0,1,8.21,4h0a.09.09,0,0,1,0-.06.3.3,0,0,1,0-.1c.08-.4.17-.8.25-1.2L8.7,1.35a.06.06,0,0,1,0,0,0,0,0,0,1,0,0s0,0,0,0a.26.26,0,0,1,.07.1.17.17,0,0,1,0,0A2.06,2.06,0,0,0,9,1.68a1.19,1.19,0,0,1,.11.26.71.71,0,0,0,.11.25l.09.15a.31.31,0,0,0,.05.1,1.48,1.48,0,0,1,.25.35c.05.08.09.16.13.24a2.63,2.63,0,0,0,.27.41l0,0A.18.18,0,0,1,10,3.58Z"/>
      <path class="cls-2" d="M19.07,16.41a0,0,0,0,0,0,0h-.72a0,0,0,0,1,0,0,2.61,2.61,0,0,0,.27-.31l.25-.33a.41.41,0,0,0,.07-.11.07.07,0,0,0,0-.1s-.05,0-.08,0l0,0-.13.18a4,4,0,0,1-.26.32l-.13.14-.12.09h0a.05.05,0,0,1-.07,0,.14.14,0,0,1,0-.07,1.53,1.53,0,0,1,0-.3s0,0,0-.05l.05,0a.67.67,0,0,0,.37-.27.91.91,0,0,0,.09-.17.38.38,0,0,0,0-.21.16.16,0,0,0-.14-.14.22.22,0,0,0-.14,0,.48.48,0,0,0-.21.12,1.28,1.28,0,0,0-.26.35.62.62,0,0,1-.11.17.76.76,0,0,1-.08.11,3.36,3.36,0,0,1-.24.29,1.36,1.36,0,0,1-.12.12.42.42,0,0,1-.12.08l-.09,0a.1.1,0,0,1-.12-.07v0a.41.41,0,0,1,0-.11,1.59,1.59,0,0,1,.06-.3.93.93,0,0,1,.16-.35.41.41,0,0,1,.11-.12l.08,0a.07.07,0,0,1,.08.08v0s0,0,0,0a0,0,0,0,0,0,0,0,0,0,0,0,.08,0,.21.21,0,0,0,.07-.17.32.32,0,0,0-.1-.2.28.28,0,0,0-.18-.06.37.37,0,0,0-.21.06.69.69,0,0,0-.18.16,1.28,1.28,0,0,0-.15.25,1.33,1.33,0,0,0-.1.34.24.24,0,0,1,0,.08l-.14.24-.08.11a.35.35,0,0,1-.11.1h0s0,0,0,0a.34.34,0,0,1,0-.1c0-.12.05-.24.08-.36s.06-.22.08-.33a.57.57,0,0,0,0-.13.29.29,0,0,0-.07-.16.11.11,0,0,0-.08,0,.32.32,0,0,0-.16,0l-.08.05a1.93,1.93,0,0,0-.3.27.2.2,0,0,1-.08.08v0l0-.1a.18.18,0,0,0,0-.14.13.13,0,0,0-.21,0,.59.59,0,0,0,0,.08l-.09.23,0,.09a3.52,3.52,0,0,1-.28.46l-.09.12s-.05.06-.09.07a0,0,0,0,1,0,0,.13.13,0,0,1,0-.06.9.9,0,0,1,.05-.36c0-.12.07-.23.11-.35l.07-.19a.47.47,0,0,0,0-.17.12.12,0,0,0-.08-.09.11.11,0,0,0-.13,0,.18.18,0,0,0-.05.07l-.05.07,0,0,0-.07a.23.23,0,0,0-.2-.11.44.44,0,0,0-.19.07.55.55,0,0,0-.16.18,1.59,1.59,0,0,0-.15.29,1,1,0,0,0,0,.46.36.36,0,0,0,0,.11.11.11,0,0,0,.13.07l0,0a.21.21,0,0,0,.1-.06l.12-.13.15-.21a.05.05,0,0,1,0-.05,1.23,1.23,0,0,0,0,.54l0,0H13.8l-.63,0h-.24s0,0,0,0l.18-.16a2.55,2.55,0,0,0,.26-.3,2.59,2.59,0,0,0,.37-.56,1.86,1.86,0,0,0,.19-.86.87.87,0,0,0-.06-.32.61.61,0,0,0-.13-.22.66.66,0,0,0-.15-.14,1,1,0,0,0-.54-.2h-.29a3.15,3.15,0,0,0-.44.11l-.09,0a1.88,1.88,0,0,0-.51.31.6.6,0,0,0-.08.08l0,0a.06.06,0,0,0,0,.07.08.08,0,0,0,.09,0l0,0,.26-.17a1.75,1.75,0,0,1,.28-.13,2,2,0,0,1,.46-.12H13l.24,0a.7.7,0,0,1,.33.2h0a.54.54,0,0,1,.13.33,1.71,1.71,0,0,1,0,.45,2.36,2.36,0,0,1-.38.76h-.06a.39.39,0,0,0-.15,0c-.24,0-.48.12-.72.19a3,3,0,0,0-.49.21h0a.06.06,0,0,1,0,0l.18-.51c.1-.26.2-.51.31-.76s.11-.26.17-.39l.06-.17a.28.28,0,0,0,0-.09.13.13,0,0,0-.06-.1.12.12,0,0,0-.17,0l-.05.07c0,.11-.1.21-.14.32s-.2.49-.29.74-.19.56-.28.84a1.69,1.69,0,0,0-.07.38.3.3,0,0,1,0,.1h0l-.37,0h-.6a2.3,2.3,0,0,1-.37,0H9.78l-.66,0-.42,0H8.3s0,0,0,0l.35-.21h0l0,0a.24.24,0,0,0,.11.09.28.28,0,0,0,.13,0,.28.28,0,0,0,.13,0l.13-.09a1.59,1.59,0,0,1,.13-.13l.14-.18a.05.05,0,0,1,0,0v0s0,.07,0,.11a.51.51,0,0,0,.07.17.28.28,0,0,0,.22.11.32.32,0,0,0,.21-.08l.12-.1.14-.19,0-.06h.08a.2.2,0,0,0,.13,0,.39.39,0,0,0,.19-.1,1.58,1.58,0,0,0,.27-.31.32.32,0,0,0,0-.09.07.07,0,0,0,0-.06.05.05,0,0,0-.07,0l-.05,0-.09.13a.66.66,0,0,1-.19.18l-.09,0s-.05,0-.06,0,0,0,0,0,0-.1,0-.14a1,1,0,0,0,0-.17.33.33,0,0,0-.1-.25.23.23,0,0,0-.2-.1.46.46,0,0,0-.25.08,1.37,1.37,0,0,0-.17.17,1.17,1.17,0,0,0-.15.27.6.6,0,0,1-.06.11c-.09.1-.17.21-.25.31a1,1,0,0,1-.22.2.19.19,0,0,1-.09.05s0,0-.06,0a.11.11,0,0,1,0-.06,1,1,0,0,1,0-.34s0,0,0,0l0,0h0a.73.73,0,0,0,.45-.41.41.41,0,0,0,0-.22.24.24,0,0,0,0-.08.14.14,0,0,0-.13-.08.2.2,0,0,0-.13,0,.56.56,0,0,0-.22.13,1.21,1.21,0,0,0-.28.39,1.18,1.18,0,0,0-.11.58s0,0,0,0a.05.05,0,0,0,0,0l-.37.2-.35.19a.23.23,0,0,1-.11,0H7.49s0,0,0-.05a.49.49,0,0,1,0-.12,1.31,1.31,0,0,1,.06-.27,7.25,7.25,0,0,1,.28-.78c.12-.29.26-.58.41-.86l.23-.42.06-.12a.31.31,0,0,0,0-.13.14.14,0,0,0,0-.09.12.12,0,0,0,0-.05.11.11,0,0,0-.15,0l-.07.08a2,2,0,0,0-.19.28l0,.05a7.77,7.77,0,0,0-.48.9,5.62,5.62,0,0,0-.27.72,3.21,3.21,0,0,0-.14.63.54.54,0,0,0,0,.18v.05a.11.11,0,0,1-.08,0H6.67l0,0V17a0,0,0,0,0,0,0h0c.12,0,.24,0,.35,0s.07,0,.1,0l0,.07a.29.29,0,0,0,.24.12.57.57,0,0,0,.22,0l.14-.06L8,17l.1,0h.94l.65,0H10l.63,0h.83s0,0,0,0a.26.26,0,0,0,.13.16.44.44,0,0,0,.16.06,1.29,1.29,0,0,0,.39,0,2.22,2.22,0,0,0,.52-.23l.07,0s0,0,0,0l.37,0h.9l.27,0h.27l.05,0a.2.2,0,0,0,.22,0l.05,0,.05,0h1.41c.18,0,.36,0,.54,0h1.67l.46,0h0s0,0,0,0Zm-.94-.74a0,0,0,0,1,0,0,1.08,1.08,0,0,1,.15-.28l.08-.09,0,0,0,0v0a.37.37,0,0,1-.1.24.52.52,0,0,1-.19.14h0Zm-8.3.58a1.28,1.28,0,0,1,.21-.46.68.68,0,0,1,.21-.17h0c0,.05.05.09,0,.14a.55.55,0,0,0,0,.28.37.37,0,0,1,0,.15.9.9,0,0,1-.2.28.24.24,0,0,1-.12.07.05.05,0,0,1-.07,0,.14.14,0,0,1,0-.06V16.4A.36.36,0,0,1,9.83,16.25Zm-.76-.37a1.06,1.06,0,0,1,.18-.33s.05-.06.09-.07a0,0,0,0,1,0,0v0a.4.4,0,0,1-.07.19.67.67,0,0,1-.22.19h0S9.06,15.9,9.07,15.88Zm3,.92h0a0,0,0,0,1,0,0,.78.78,0,0,1-.22,0l-.08,0h0a0,0,0,0,1,0,0H12Zm.39-.16h0l-.05,0-.36,0H11.8s0,0,0,0a.06.06,0,0,1,0-.07,1.15,1.15,0,0,1,.19-.14,1.5,1.5,0,0,1,.34-.16,5,5,0,0,1,.65-.22l.16,0h0a0,0,0,0,1,0,0A2.73,2.73,0,0,1,12.42,16.64Zm2.11-1a.19.19,0,0,1,0,.08c-.09.12-.18.25-.28.37l0,.05h0v0a3.57,3.57,0,0,1,.1-.35l.09-.18a.33.33,0,0,1,.11-.09s0,0,0,0,0,0,0,0a.13.13,0,0,0,0,.06A.11.11,0,0,0,14.53,15.68Zm1.63-.11c0,.09-.05.18-.08.28a1.68,1.68,0,0,0-.09.32.54.54,0,0,0,0,.31v0h0l-.38,0h-.54a0,0,0,0,1,0,0l.06-.09s0,0,0,0h0a.13.13,0,0,0,.13,0l0,0a.16.16,0,0,0,0-.07,3.48,3.48,0,0,1,.43-.6l.15-.16.11-.09,0,0,0,0Zm.59.91h-.23s0,0,0,0l.13-.18h0a.66.66,0,0,0,.09.19Zm1,0h-.39a2.12,2.12,0,0,0,.33-.34s0,0,.05,0,0,.09,0,.14l0,.12.07.12S17.74,16.43,17.71,16.44Z"/>
      <path d="M23.07,8.66h0l-.07,0-.19-.05,0,0,.16.08,0,0s0,0,0,0h0l-.09,0h0l.1.08,0,0s0,0,0,0h0l-.17-.07h-.05a.06.06,0,0,1,0,0,.39.39,0,0,1,.08.1,0,0,0,0,1,0,0s0,0,0,0h0a.45.45,0,0,0-.27-.18l0,0a.17.17,0,0,0-.14,0c-.12.06-.24.1-.36.17a.72.72,0,0,1-.2.09l-.19,0a.91.91,0,0,1-.14.07c-.05,0-.07,0-.07.08l-.06.23c0,.08-.08.15-.07.25a1.5,1.5,0,0,0,0,.22,2.24,2.24,0,0,1,0,.52v0a.33.33,0,0,1-.06.3.17.17,0,0,0,0,.2,3.18,3.18,0,0,0,.16.32c.1.18.2.35.29.53s.1.24.16.36a.91.91,0,0,0,.09.17.34.34,0,0,1,0,.31l-.08.08a.31.31,0,0,1-.09.07l-.16.07s-.06,0-.06.08a.83.83,0,0,1,0,.35.66.66,0,0,0,0,.15c0,.09,0,.2-.07.29s-.11.37-.17.56a.39.39,0,0,1-.17.25c-.08,0-.08.05,0,.13a.56.56,0,0,1,0,.12H21s0,.05,0,.05l.33.23c.06,0,.14,0,.18.11a.11.11,0,0,1,0,.08.16.16,0,0,1-.12.15,1.35,1.35,0,0,1-.53,0l-.45-.11a1.8,1.8,0,0,1-.22-.06.15.15,0,0,1-.05-.06s0-.16,0-.17v0a.7.7,0,0,0,0-.14.33.33,0,0,0,0-.14c0-.08,0-.1.06-.15h0a.3.3,0,0,0,.1-.25.34.34,0,0,1,.08-.27.08.08,0,0,0,0-.05c0-.1,0-.19.05-.29l.09-.43s0-.05,0-.05l-.29,0a.14.14,0,0,0-.15.05.15.15,0,0,1-.09.06l-.18.05-.15.07c0,.07-.05.08-.09.11a.87.87,0,0,0-.16.17,1.89,1.89,0,0,0-.09.21c-.05.11-.14.12-.21,0a.6.6,0,0,1-.06-.11.92.92,0,0,1,0-.59l.09-.27c0-.11.07-.23.12-.34s.09-.09.18,0l.24,0h0l.11,0c.05,0,.07,0,.06.08l.05-.06s.05-.06.09,0h.12a.49.49,0,0,0,.16,0s0-.07,0-.11,0,0,0-.05-.1-.19-.16-.28a1.51,1.51,0,0,1-.12-.26,1.48,1.48,0,0,0-.15-.31.31.31,0,0,1-.06-.13c0-.11-.06-.22-.09-.33a.43.43,0,0,1,0-.25v-.11a.61.61,0,0,1,0-.14c0-.07,0-.13,0-.2a.59.59,0,0,0,0-.23,2.35,2.35,0,0,0-.14-.37c0-.07,0-.07-.09,0l-.16.09-.06,0-.28.16s-.07.07-.12.07l0,0c0,.08-.11.11-.17.16l-.12.09-.2.14c-.08.05-.17.07-.22.15s0,0-.05,0a.47.47,0,0,0-.12.07c-.06,0-.11.08-.11.16a2.08,2.08,0,0,0,0,.25.13.13,0,0,0,0,.08.71.71,0,0,1,.1.32.06.06,0,0,1,0,0s0,0,0,0a1.18,1.18,0,0,1-.25-.25.74.74,0,0,0-.12-.13h0c0,.06,0,.13,0,.19s0,.1-.06.09,0-.06,0-.09c0-.2,0-.39.05-.59,0,0,0-.09,0-.12a.13.13,0,0,1-.05-.07,0,0,0,0,1,0-.05.07.07,0,0,1,.06,0s0,0,0,0,.07,0,.09,0a.15.15,0,0,1,.05-.06.76.76,0,0,0,.2-.2l0,0a2.52,2.52,0,0,0,.25-.21,1.51,1.51,0,0,1,.23-.21h0l.25-.2.06-.05c.07-.05.13-.13.21-.15a.58.58,0,0,0,.23-.18l0,0c.07-.06.12-.14.18-.2a.25.25,0,0,0,.1-.16l0,0s0-.07,0-.12a.27.27,0,0,1,.15-.3,1.25,1.25,0,0,0,.24-.16L20,8.14s.05-.07.09-.09L20.29,8h.11l.2,0s0-.09,0-.13a.55.55,0,0,1,0-.18,1.6,1.6,0,0,1,.1-.31A.44.44,0,0,1,21.14,7a.45.45,0,0,1,.16,0l.21.11a.27.27,0,0,1,.16.33c0,.07,0,.14,0,.21s0,.07,0,.09l.1.06a.12.12,0,0,1-.14,0c-.06,0-.09,0-.11,0a.19.19,0,0,1,0,.07.73.73,0,0,1-.21.37v0a1.09,1.09,0,0,1,.05.17c0,.08,0,.09.1.06h0a.59.59,0,0,0,.29-.07h0a.83.83,0,0,0,.32,0,.22.22,0,0,1,.13,0,.17.17,0,0,0,.13-.07.58.58,0,0,1,.1-.12.26.26,0,0,0,.1-.13v0a0,0,0,0,1,.06,0s0,0,0,0a.78.78,0,0,1-.05.14c0,.07,0,.09.05.12l.2.07.22.11v0Z"/>
      <path d="M17.25,10.34a3.24,3.24,0,0,0-.17.32.38.38,0,0,1,.09-.26Z"/>
      <path d="M18.32,11.58a.34.34,0,0,1-.12.27v0c0-.1.07-.2.1-.3S18.32,11.56,18.32,11.58Z"/>
      <path d="M23.09,8.63l0,0h0l-.07,0-.19-.05,0,0,.16.08,0,0s0,0,0,0h0l-.09,0h0l.1.08,0,0s0,0,0,0h0l-.17-.07h-.05a.06.06,0,0,1,0,0,.39.39,0,0,1,.08.1,0,0,0,0,1,0,0s0,0,0,0h0a.45.45,0,0,0-.27-.18l0,0a.17.17,0,0,0-.14,0c-.12.06-.24.1-.36.17a.72.72,0,0,1-.2.09l-.19,0a.91.91,0,0,1-.14.07c-.05,0-.07,0-.07.08l-.06.23c0,.08-.08.15-.07.25a1.5,1.5,0,0,0,0,.22,2.24,2.24,0,0,1,0,.52v0a.33.33,0,0,1-.06.3.17.17,0,0,0,0,.2,3.18,3.18,0,0,0,.16.32c.1.18.2.35.29.53s.1.24.16.36a.91.91,0,0,0,.09.17.34.34,0,0,1,0,.31l-.08.08a.31.31,0,0,1-.09.07l-.16.07s-.06,0-.06.08a.83.83,0,0,1,0,.35.66.66,0,0,0,0,.15c0,.09,0,.2-.07.29s-.11.37-.17.56a.39.39,0,0,1-.17.25c-.08,0-.08.05,0,.13a.56.56,0,0,1,0,.12H21s0,.05,0,.05l.33.23c.06,0,.14,0,.18.11a.11.11,0,0,1,0,.08.16.16,0,0,1-.12.15,1.35,1.35,0,0,1-.53,0l-.45-.11a1.8,1.8,0,0,1-.22-.06.15.15,0,0,1-.05-.06s0-.16,0-.17v0a.7.7,0,0,0,0-.14.33.33,0,0,0,0-.14c0-.08,0-.1.06-.15h0a.3.3,0,0,0,.1-.25.34.34,0,0,1,.08-.27.08.08,0,0,0,0-.05c0-.1,0-.19.05-.29l.09-.43s0-.05,0-.05l-.29,0a.14.14,0,0,0-.15.05.15.15,0,0,1-.09.06l-.18.05-.15.07c0,.07-.05.08-.09.11a.87.87,0,0,0-.16.17,1.89,1.89,0,0,0-.09.21c-.05.11-.14.12-.21,0a.6.6,0,0,1-.06-.11.92.92,0,0,1,0-.59l.09-.27c0-.11.07-.23.12-.34s.09-.09.18,0l.24,0h0l.11,0c.05,0,.07,0,.06.08l.05-.06s.05-.06.09,0h.12a.49.49,0,0,0,.16,0s0-.07,0-.11,0,0,0-.05-.1-.19-.16-.28a1.51,1.51,0,0,1-.12-.26,1.48,1.48,0,0,0-.15-.31.31.31,0,0,1-.06-.13c0-.11-.06-.22-.09-.33a.43.43,0,0,1,0-.25v-.11a.61.61,0,0,1,0-.14c0-.07,0-.13,0-.2a.59.59,0,0,0,0-.23,2.35,2.35,0,0,0-.14-.37c0-.07,0-.07-.09,0l-.16.09-.06,0-.28.16s-.07.07-.12.07l0,0c0,.08-.11.11-.17.16l-.12.09-.2.14c-.08.05-.17.07-.22.15s0,0-.05,0a.47.47,0,0,0-.12.07c-.06,0-.11.08-.11.16a2.08,2.08,0,0,0,0,.25.13.13,0,0,0,0,.08.71.71,0,0,1,.1.32.06.06,0,0,1,0,0s0,0,0,0a1.18,1.18,0,0,1-.25-.25.74.74,0,0,0-.12-.13h0c0,.06,0,.13,0,.19s0,.1-.06.09,0-.06,0-.09c0-.2,0-.39.05-.59,0,0,0-.09,0-.12a.13.13,0,0,1-.05-.07,0,0,0,0,1,0-.05.07.07,0,0,1,.06,0s0,0,0,0,.07,0,.09,0a.15.15,0,0,1,.05-.06.76.76,0,0,0,.2-.2l0,0a2.52,2.52,0,0,0,.25-.21,1.51,1.51,0,0,1,.23-.21h0l.25-.2.06-.05c.07-.05.13-.13.21-.15a.58.58,0,0,0,.23-.18l0,0c.07-.06.12-.14.18-.2a.25.25,0,0,0,.1-.16l0,0s0-.07,0-.12a.27.27,0,0,1,.15-.3,1.25,1.25,0,0,0,.24-.16L20,8.14s.05-.07.09-.09L20.29,8h.11l.2,0s0-.09,0-.13a.55.55,0,0,1,0-.18,1.6,1.6,0,0,1,.1-.31A.44.44,0,0,1,21.14,7a.45.45,0,0,1,.16,0l.21.11a.27.27,0,0,1,.16.33c0,.07,0,.14,0,.21s0,.07,0,.09l.1.06a.12.12,0,0,1-.14,0c-.06,0-.09,0-.11,0a.19.19,0,0,1,0,.07.73.73,0,0,1-.21.37v0a1.09,1.09,0,0,1,.05.17c0,.08,0,.09.1.06h0a.59.59,0,0,0,.29-.07h0a.83.83,0,0,0,.32,0,.22.22,0,0,1,.13,0,.17.17,0,0,0,.13-.07.58.58,0,0,1,.1-.12.26.26,0,0,0,.1-.13v0a0,0,0,0,1,.06,0s0,0,0,0a.78.78,0,0,1-.05.14c0,.07,0,.09.05.12l.2.07.22.11Z"/>
      <path class="cls-2" d="M23.09,8.63l0,0h0l-.07,0-.19-.05,0,0,.16.08,0,0s0,0,0,0h0l-.09,0h0l.1.08,0,0s0,0,0,0h0l-.17-.07h-.05a.06.06,0,0,1,0,0,.39.39,0,0,1,.08.1,0,0,0,0,1,0,0s0,0,0,0h0a.45.45,0,0,0-.27-.18l0,0a.17.17,0,0,0-.14,0c-.12.06-.24.1-.36.17a.72.72,0,0,1-.2.09l-.19,0a.91.91,0,0,1-.14.07c-.05,0-.07,0-.07.08l-.06.23c0,.08-.08.15-.07.25a1.5,1.5,0,0,0,0,.22,2.24,2.24,0,0,1,0,.52v0a.33.33,0,0,1-.06.3.17.17,0,0,0,0,.2,3.18,3.18,0,0,0,.16.32c.1.18.2.35.29.53s.1.24.16.36a.91.91,0,0,0,.09.17.34.34,0,0,1,0,.31l-.08.08a.31.31,0,0,1-.09.07l-.16.07s-.06,0-.06.08a.83.83,0,0,1,0,.35.66.66,0,0,0,0,.15c0,.09,0,.2-.07.29s-.11.37-.17.56a.39.39,0,0,1-.17.25c-.08,0-.08.05,0,.13a.56.56,0,0,1,0,.12H21s0,.05,0,.05l.33.23c.06,0,.14,0,.18.11a.11.11,0,0,1,0,.08.16.16,0,0,1-.12.15,1.35,1.35,0,0,1-.53,0l-.45-.11a1.8,1.8,0,0,1-.22-.06.15.15,0,0,1-.05-.06s0-.16,0-.17v0a.7.7,0,0,0,0-.14.33.33,0,0,0,0-.14c0-.08,0-.1.06-.15h0a.3.3,0,0,0,.1-.25.34.34,0,0,1,.08-.27.08.08,0,0,0,0-.05c0-.1,0-.19.05-.29l.09-.43s0-.05,0-.05l-.29,0a.14.14,0,0,0-.15.05.15.15,0,0,1-.09.06l-.18.05-.15.07c0,.07-.05.08-.09.11a.87.87,0,0,0-.16.17,1.89,1.89,0,0,0-.09.21c-.05.11-.14.12-.21,0a.6.6,0,0,1-.06-.11.92.92,0,0,1,0-.59l.09-.27c0-.11.07-.23.12-.34s.09-.09.18,0l.24,0h0l.11,0c.05,0,.07,0,.06.08l.05-.06s.05-.06.09,0h.12a.49.49,0,0,0,.16,0s0-.07,0-.11,0,0,0-.05-.1-.19-.16-.28a1.51,1.51,0,0,1-.12-.26,1.48,1.48,0,0,0-.15-.31.31.31,0,0,1-.06-.13c0-.11-.06-.22-.09-.33a.43.43,0,0,1,0-.25v-.11a.61.61,0,0,1,0-.14c0-.07,0-.13,0-.2a.59.59,0,0,0,0-.23,2.35,2.35,0,0,0-.14-.37c0-.07,0-.07-.09,0l-.16.09-.06,0-.28.16s-.07.07-.12.07l0,0c0,.08-.11.11-.17.16l-.12.09-.2.14c-.08.05-.17.07-.22.15s0,0-.05,0a.47.47,0,0,0-.12.07c-.06,0-.11.08-.11.16a2.08,2.08,0,0,0,0,.25.13.13,0,0,0,0,.08.71.71,0,0,1,.1.32.06.06,0,0,1,0,0s0,0,0,0a1.18,1.18,0,0,1-.25-.25.74.74,0,0,0-.12-.13h0c0,.06,0,.13,0,.19s0,.1-.06.09,0-.06,0-.09c0-.2,0-.39.05-.59,0,0,0-.09,0-.12a.13.13,0,0,1-.05-.07,0,0,0,0,1,0-.05.07.07,0,0,1,.06,0s0,0,0,0,.07,0,.09,0a.15.15,0,0,1,.05-.06.76.76,0,0,0,.2-.2l0,0a2.52,2.52,0,0,0,.25-.21,1.51,1.51,0,0,1,.23-.21h0l.25-.2.06-.05c.07-.05.13-.13.21-.15a.58.58,0,0,0,.23-.18l0,0c.07-.06.12-.14.18-.2a.25.25,0,0,0,.1-.16l0,0s0-.07,0-.12a.27.27,0,0,1,.15-.3,1.25,1.25,0,0,0,.24-.16L20,8.14s.05-.07.09-.09L20.29,8h.11l.2,0s0-.09,0-.13a.55.55,0,0,1,0-.18,1.6,1.6,0,0,1,.1-.31A.44.44,0,0,1,21.14,7a.45.45,0,0,1,.16,0l.21.11a.27.27,0,0,1,.16.33c0,.07,0,.14,0,.21s0,.07,0,.09l.1.06a.12.12,0,0,1-.14,0c-.06,0-.09,0-.11,0a.19.19,0,0,1,0,.07.73.73,0,0,1-.21.37v0a1.09,1.09,0,0,1,.05.17c0,.08,0,.09.1.06h0a.59.59,0,0,0,.29-.07h0a.83.83,0,0,0,.32,0,.22.22,0,0,1,.13,0,.17.17,0,0,0,.13-.07.58.58,0,0,1,.1-.12.26.26,0,0,0,.1-.13v0a0,0,0,0,1,.06,0s0,0,0,0a.78.78,0,0,1-.05.14c0,.07,0,.09.05.12l.2.07.22.11Z"/>
    </g>
  </g>
</svg>
