<svg xmlns="http://www.w3.org/2000/svg" viewBox="0 0 25.41 18.94">
  <defs>
    <style>
      .cls-1 {
        fill: #fff;
      }

      .cls-2 {
        fill: #27abe3;
      }

      .cls-3 {
        font-size: 1.65px;
        fill: #1d1d1b;
        font-family: Poppins-ExtraLight, Poppins;
        font-weight: 200;
      }

      .cls-4 {
        fill: #262626;
      }
    </style>
  </defs>
  <g id="Capa_2" data-name="Capa 2">
    <g id="Capa_1-2" data-name="Capa 1">
      <g>
        <path class="cls-1" d="M6.48,7.63v0c-.09.26-.2.5-.29.77S6,9,6,9.22s-.12.56-.17.84c0,.12,0,.25,0,.37a1.31,1.31,0,0,1-.12.47h0a.41.41,0,0,1-.09.1A.37.37,0,0,1,5,10.81a1.06,1.06,0,0,1,0-.5c0-.15,0-.3.07-.45s.11-.56.18-.84a11.41,11.41,0,0,1,.37-1.18l-.27,0C5,7.94,4.59,8,4.23,8l-1.1.08-.51,0c.07.06.13.13.2.2.22.23.44.45.64.69A18,18,0,0,1,4.64,10.6a4.78,4.78,0,0,1,1.09,3.29A2.62,2.62,0,0,1,3.62,16a3.14,3.14,0,0,1-2.85-.92c0,.15-.05.29-.07.44-.07.38-.73.29-.7-.09A12.74,12.74,0,0,1,.41,13c.09-.36.3-1.59.78-1.61a.35.35,0,0,1,.36.42c-.31.9-.94,2.24-.09,3A2.28,2.28,0,0,0,4,15.11a1.94,1.94,0,0,0,1-2,7.17,7.17,0,0,0-1.34-2.71C3.32,10,3,9.56,2.71,9.17l-.5-.58A3.14,3.14,0,0,1,1.72,8a.22.22,0,0,1,0-.22.37.37,0,0,1,.36-.36c.35,0,.71,0,1.06,0s.71,0,1.06-.08l1.06-.1a2,2,0,0,1,.8,0,.42.42,0,0,1,.33.1A.38.38,0,0,1,6.48,7.63Z"/>
        <path class="cls-1" d="M12.28,8.81a.44.44,0,0,1-.43.43c-1.43.1-2.13.15-3.56.16H8.14c-.46,2-1.51,6.54-1.54,6.72h0a2.33,2.33,0,0,1,0,.28l0,0a.39.39,0,0,1,.64.37,2,2,0,0,1-.26.5l-.26.43-.53.88a.44.44,0,0,1-.49.2.43.43,0,0,1-.31-.41c.08-.65,1.36-6.76,1.62-7.84.09-.37.18-.73.28-1.1H6.13l-1.29,0a.31.31,0,0,1-.46.28,3.83,3.83,0,0,1-.59-.4A.39.39,0,0,1,4,8.52c.72,0,1.43,0,2.15,0h1a.28.28,0,0,1,.07-.32,2.07,2.07,0,0,0,.6-.65,2,2,0,0,1,.1-.26h0a0,0,0,0,1,0,0h0c.17-.27.67-.19.65.17a4.61,4.61,0,0,1-.18,1s0,.08,0,.12c1.42,0,2.1-.09,3.51-.17A.42.42,0,0,1,12.28,8.81Z"/>
        <path class="cls-1" d="M9.15,15.41a.6.6,0,0,0-.08.08l-.21.31,0,.06a1.47,1.47,0,0,0,.42-.37l.07-.09A.15.15,0,0,0,9.15,15.41Zm2.09-5c-.34.69-.75,1.34-1.13,2s-.74,1.31-1.11,2a2.26,2.26,0,0,1-.48.73l-.06,0h0l0,0h0v0a.31.31,0,0,0,0-.08,1.74,1.74,0,0,1,.06-.45L8.57,14c.08-.36.16-.71.26-1.07s.21-.75.32-1.13a10.37,10.37,0,0,0,.34-1.21.34.34,0,0,0-.62-.26,5.34,5.34,0,0,0-.5,1.15c-.15.39-.26.79-.38,1.19s-.2.79-.29,1.18a4.32,4.32,0,0,0-.16,1.28A.94.94,0,0,0,8.3,16h.08c.06-.12.13-.23.2-.35a4.1,4.1,0,0,1,.23-.34l.11-.12A.47.47,0,0,1,9.23,15a.5.5,0,0,1,.27.08c.13-.22.24-.45.36-.68a3.79,3.79,0,0,0,.2-.34,11.32,11.32,0,0,0-.2,1.73.4.4,0,0,0,.8,0c.12-.88.26-1.74.46-2.59a21.12,21.12,0,0,1,.81-2.56C12.08,10.28,11.43,10,11.24,10.39Z"/>
        <path class="cls-2" d="M16,7.28v0a1.76,1.76,0,0,0-.18.4,1,1,0,0,1-.12.17c-.13.17-.31.33-.32.55a.2.2,0,0,0,.13.18h.05l-.09.33c-.15.55-.28,1.12-.42,1.67a1.69,1.69,0,0,1-.05.24,1.65,1.65,0,0,0-.35-.39,1.16,1.16,0,0,0-1.37-.13,2.64,2.64,0,0,0-.82,1.1,11,11,0,0,0-.54,1.34,8.73,8.73,0,0,0-.29,1.42,2.43,2.43,0,0,0,.12,1.46,1,1,0,0,0,.74.47.37.37,0,0,1,0-.34.51.51,0,0,1,.09-.16l.12-.11a2.57,2.57,0,0,1,.77-.44,1.41,1.41,0,0,1,.22-.06c0-.08.07-.16.11-.23.22-.44.44-.87.65-1.31,0,.19-.07.37-.11.55s-.12.6-.17.9h.24a1.55,1.55,0,0,1,.63.19c.05-.23.09-.46.14-.69.1-.56.22-1.13.34-1.69.23-1.11.48-2.23.75-3.34.06-.3.13-.62.21-.93a4.36,4.36,0,0,0,.17-1A.34.34,0,0,0,16,7.28Zm-2,5.16c-.19.38-.39.75-.57,1.13s-.39.73-.57,1.09a4.39,4.39,0,0,1-.27.47.18.18,0,0,1,0,.08s0,0,0,0,0-.1,0-.11a2.33,2.33,0,0,1,0-.59,6.44,6.44,0,0,1,.17-1.07,7.33,7.33,0,0,1,.82-2,1.43,1.43,0,0,1,.25-.34.33.33,0,0,1,.31,0,1,1,0,0,1,.4.45C14.32,11.8,14.18,12.13,14,12.44Z"/>
        <path class="cls-2" d="M17.45,10.5a.33.33,0,0,0-.61-.16,2.37,2.37,0,0,0-.29.72c-.08.23-.14.47-.2.7-.13.48-.25,1-.37,1.44s-.2.94-.3,1.42l-.12.71a2,2,0,0,1-.05.24.57.57,0,0,0,0,.26.47.47,0,0,0,.16.24.57.57,0,0,0,.19.1.44.44,0,0,0,.51-.26.39.39,0,0,0,0-.28c.15-.82.31-1.64.49-2.46.09-.43.19-.85.29-1.29.06-.21.11-.44.16-.67A2.15,2.15,0,0,0,17.45,10.5Zm.6-1.91A.26.26,0,0,0,18,8.46a.13.13,0,0,0-.06-.07.27.27,0,0,0-.14-.07l-.11,0-.1,0a.27.27,0,0,0-.14.07.35.35,0,0,0-.1.11,1.11,1.11,0,0,0-.09.19l0,.12a.61.61,0,0,0,0,.11.59.59,0,0,0-.05.22l0,.12a.29.29,0,0,0,.08.14.27.27,0,0,0,.07.08.45.45,0,0,0,.37.07.35.35,0,0,0,.15-.07.41.41,0,0,0,.11-.12v0a.31.31,0,0,0,0-.1v0a.14.14,0,0,0,0-.06A.52.52,0,0,0,18,9s0-.08,0-.12a.86.86,0,0,0,0-.22Z"/>
        <path class="cls-2" d="M20.47,10.61l-.27.21h0l.21,0h0a1,1,0,0,1,0,.42l0,.24.14-.11c.06-.05.15-.09.18-.17l0,0c.06,0,.09,0,.13-.07l.31-.17.07-.05a1.23,1.23,0,0,0,0-.19,1,1,0,0,0-.27-.46.59.59,0,0,1-.26.2,1.13,1.13,0,0,0-.23.17Zm.65.73h0a.46.46,0,0,1-.12.09,1,1,0,0,1-.17.14l0,0a4.17,4.17,0,0,1-.38.28l0,0a7.76,7.76,0,0,1-.22.79c0,.11-.07.22-.11.33v0a8.23,8.23,0,0,1-.54,1.12,5.05,5.05,0,0,1-.68,1c-.08.08-.21.19-.32.18s0,0-.07,0,0-.07,0,0a.52.52,0,0,1-.08-.19,1.57,1.57,0,0,1-.07-.49,5.12,5.12,0,0,1,0-.68,5.61,5.61,0,0,1,.23-1.35,5.88,5.88,0,0,1,.32-.85,2.31,2.31,0,0,1,.18-.35,1.59,1.59,0,0,1,.13-.22L19.2,11l.28,0h.06l0,0,.13-.11a3.5,3.5,0,0,1,.51-.45l.07-.05h0l0,0,.05,0a.85.85,0,0,1,.28-.18s0,0,.07-.05h0a2.82,2.82,0,0,0-1.38.12,8.12,8.12,0,0,1-1.35.26h0a.34.34,0,0,0-.26.31.29.29,0,0,0,.17.42l.29.07a4.19,4.19,0,0,0-.48,1.11,6.77,6.77,0,0,0-.29,1.53,4.2,4.2,0,0,0,.1,1.5,1,1,0,0,0,1.24.76A2.15,2.15,0,0,0,19.93,15a9.94,9.94,0,0,0,.75-1.4,7.57,7.57,0,0,0,.47-1.44,7.9,7.9,0,0,0,.14-.8.66.66,0,0,1,0-.14h0A1,1,0,0,0,21.12,11.34Z"/>
      </g>
      <text class="cls-3" transform="translate(21.55 10.83)">®</text>
      <path class="cls-4" d="M16.11,5.43v0a.87.87,0,0,0-.24-.15l-.13,0-.27-.08a2.15,2.15,0,0,0-.5-.07,2.41,2.41,0,0,1-.38,0l-.24,0a1.51,1.51,0,0,0-.52,0,.25.25,0,0,1-.12,0,2.58,2.58,0,0,0-.39,0l-.14,0a.5.5,0,0,1-.21,0l-.18,0L12.37,5h0a.05.05,0,0,1,0,0,.08.08,0,0,0,0,0,.57.57,0,0,1,.27-.3l0,0a.13.13,0,0,1,.12,0l.09,0a.22.22,0,0,0,.11,0A.11.11,0,0,0,13,4.56a.25.25,0,0,1,0-.09.12.12,0,0,0,0-.07.2.2,0,0,1,.08-.13.11.11,0,0,0,0-.14s0,0,0,0a.31.31,0,0,1,0-.19v0a.07.07,0,0,0,0-.06.34.34,0,0,1-.06-.15.09.09,0,0,0,0,0A.24.24,0,0,0,13,3.46a.29.29,0,0,0-.11-.11.52.52,0,0,0-.27-.1h-.15a.57.57,0,0,0-.29.11.73.73,0,0,0-.27.43.36.36,0,0,0,0,.1,0,0,0,0,0,0,0s0,0,0,0h0s0,0,0,0a.49.49,0,0,0-.1-.22.69.69,0,0,0-.11-.13l-.19-.19-.21-.21A.9.9,0,0,1,11.08,3L11,2.86l-.11-.15a1.16,1.16,0,0,1-.18-.35.46.46,0,0,0-.09-.15l-.06-.06a2.79,2.79,0,0,1-.3-.38L10,1.37a.5.5,0,0,1-.09-.29V1a.09.09,0,0,0,0-.07l0,0a.06.06,0,0,0-.08,0s0,0,0,0v0c0-.18.08-.36.12-.54l0-.18S9.85,0,9.79,0H9.72a.05.05,0,0,0-.05,0,.24.24,0,0,0,0,.08c-.05.21-.09.42-.14.64l0,.14-.05,0a.05.05,0,0,0,0,.06.66.66,0,0,1,0,.14s0,.08,0,.12l-.06.29-.12.59-.12.63c0,.2-.07.4-.11.6s-.09.39-.13.59l-.06.28a0,0,0,0,1-.06,0l-.08,0L8.2,4l-.26-.14a1.61,1.61,0,0,1-.55-.55A1.15,1.15,0,0,0,7,2.94a1.35,1.35,0,0,0-.26-.15l-.65-.32A.21.21,0,0,1,6,2.29s0-.06,0-.08a.11.11,0,0,0-.08-.09l-.09,0-.07,0A1.09,1.09,0,0,1,5.46,2l-.21-.13-.11-.06a.14.14,0,0,0-.11,0l-.13,0a.42.42,0,0,0-.14.09s0,.05,0,.08l0,0A.49.49,0,0,1,5,2.17.09.09,0,0,0,5,2.23l.11.06.27.18a2.11,2.11,0,0,0,.33.18A1,1,0,0,1,6,2.78a2.33,2.33,0,0,1,.35.27,5.79,5.79,0,0,1,.51.48A.83.83,0,0,1,7,3.87a.4.4,0,0,0,.15.19.57.57,0,0,1,.16.15.69.69,0,0,0,.11.13L8,5l.3.31,0,0a.06.06,0,0,1,0,0l0,0a1.48,1.48,0,0,0-.24.26L7.82,6l-.34.39a.57.57,0,0,1-.18.12l-.21.1-.2.1a1.72,1.72,0,0,0-.71.57l-.09.12a1,1,0,0,1-.17.19l-.15.14h0l-.13.12a.21.21,0,0,1-.11.07v0l-.22.65h.26v0l0,0,.2-.21A1.18,1.18,0,0,1,6,8.08l.58-.41.1-.07.19-.16a1.2,1.2,0,0,1,.54-.3l.1,0a.24.24,0,0,0,.11-.06L7.82,7,8,6.87l.2-.08a0,0,0,0,1,0,0v0c0,.14,0,.28-.07.41s0,0,0,0l0,.07.31,0v0h0c0-.11.05-.22.07-.33a2.46,2.46,0,0,0,.07-.29.11.11,0,0,1,.07-.08c.12-.07.24-.15.37-.21a3,3,0,0,0,.36-.17.61.61,0,0,1,.26-.08l.42,0h.78a1,1,0,0,0,.25,0,2.05,2.05,0,0,0,.49-.18l.62-.29a.61.61,0,0,1,.42-.07h.09a4.42,4.42,0,0,0,.63,0l.36-.06a2,2,0,0,1,.48-.05h.22c.11,0,.22,0,.33,0l.23,0,.23,0a.23.23,0,0,1,.14,0l.28.12a.55.55,0,0,1,.19.12.56.56,0,0,0,.2.11h0l0,0a0,0,0,0,0,0,0l-.08-.14a.25.25,0,0,0,0-.07h0a0,0,0,0,1,0,0h0l.1.06h.07S16.12,5.44,16.11,5.43ZM11.05,3.94A.41.41,0,0,1,11,4a1,1,0,0,1-.1.24l-.17.24-.17.14a.71.71,0,0,1-.14.1l-.12.09a1,1,0,0,1-.18.08,1.08,1.08,0,0,1-.19,0s-.05,0-.07,0l-.05-.09a.83.83,0,0,0-.07-.13.5.5,0,0,0-.22-.16l-.16,0A2,2,0,0,1,9,4.38l0,0A.06.06,0,0,1,9,4.3a.43.43,0,0,1,0-.11c.09-.44.19-.88.28-1.32s.19-.92.29-1.38a.11.11,0,0,0,0-.05s0,0,0,0a0,0,0,0,1,.06,0,.32.32,0,0,1,.08.12.14.14,0,0,1,0,.06,2.39,2.39,0,0,0,.13.28.81.81,0,0,1,.12.29.84.84,0,0,0,.13.27,1.4,1.4,0,0,1,.09.17l.06.1a2.09,2.09,0,0,1,.27.39l.15.26a2.66,2.66,0,0,0,.29.45l0,0A.19.19,0,0,1,11.05,3.94Z"/>
      <path class="cls-1" d="M21,18.06s0,0,0,0h-.8a0,0,0,0,0,0,0c.11-.11.21-.23.31-.35l.27-.36a.47.47,0,0,0,.07-.12.09.09,0,0,0,0-.11s-.06,0-.09,0,0,0,0,0l-.14.21c-.1.11-.19.23-.29.35l-.14.15a.6.6,0,0,1-.13.09l0,0a.08.08,0,0,1-.08,0s0-.05,0-.08a1.24,1.24,0,0,1,0-.33.07.07,0,0,1,0-.06l.05,0a.8.8,0,0,0,.41-.29.66.66,0,0,0,.09-.19.4.4,0,0,0,0-.24.19.19,0,0,0-.15-.15.29.29,0,0,0-.16,0,.72.72,0,0,0-.24.14,1.46,1.46,0,0,0-.27.38,1.27,1.27,0,0,1-.13.19l-.08.12-.27.32-.14.14L18.9,18l-.11,0c-.05,0-.1,0-.12-.08s0,0,0,0v-.12a1.28,1.28,0,0,1,.06-.33,1.3,1.3,0,0,1,.17-.38A.86.86,0,0,1,19,16.9a.19.19,0,0,1,.09,0,.08.08,0,0,1,.09.08s0,0,0,0v0a.08.08,0,0,0,0,0,0,0,0,0,0,.08,0,.25.25,0,0,0,.08-.18.3.3,0,0,0-.11-.22.28.28,0,0,0-.2-.08.48.48,0,0,0-.23.07.86.86,0,0,0-.2.18.92.92,0,0,0-.16.27,1.27,1.27,0,0,0-.11.38.11.11,0,0,1,0,.08l-.15.27-.09.12a.43.43,0,0,1-.12.11h0s0,0,0,0a.24.24,0,0,1,0-.12c0-.13.05-.26.09-.39a2.37,2.37,0,0,0,.09-.36.71.71,0,0,0,0-.14.3.3,0,0,0-.08-.18.11.11,0,0,0-.08,0,.39.39,0,0,0-.18,0l-.09.06a1.81,1.81,0,0,0-.33.29l-.08.09v0l0-.11a.16.16,0,0,0,0-.15A.13.13,0,0,0,17,17a.47.47,0,0,0,0,.1,2.44,2.44,0,0,0-.1.24.49.49,0,0,1,0,.11,3.68,3.68,0,0,1-.3.5,1.47,1.47,0,0,1-.1.13.28.28,0,0,1-.1.09l0,0s0,0,0-.06a1.08,1.08,0,0,1,.06-.4l.12-.39.08-.2a.61.61,0,0,0,0-.19.12.12,0,0,0-.09-.1.12.12,0,0,0-.14,0l-.06.07-.06.09,0,0a.59.59,0,0,1,0-.08.24.24,0,0,0-.21-.12.58.58,0,0,0-.22.08.81.81,0,0,0-.18.19,1.91,1.91,0,0,0-.16.32,1.11,1.11,0,0,0-.05.51.17.17,0,0,0,0,.12.11.11,0,0,0,.14.07h0l.12-.07a.86.86,0,0,0,.13-.14l.16-.24s0,0,0,0a1.62,1.62,0,0,0,0,.58s0,0,0,0l-.22,0h-.54l-.7,0h-.26s0,0,0,0l.2-.18c.1-.1.2-.21.29-.32a2.59,2.59,0,0,0,.4-.63,2,2,0,0,0,.21-.94,1,1,0,0,0-.06-.35.92.92,0,0,0-.15-.25L15,15.47a1,1,0,0,0-.59-.21.93.93,0,0,0-.29,0h0a2.07,2.07,0,0,0-.49.12l-.1,0a2.46,2.46,0,0,0-.56.34l-.09.09,0,.05a.08.08,0,0,0,0,.08s.07,0,.09,0l0,0a2.9,2.9,0,0,1,.29-.19,1.73,1.73,0,0,1,.31-.14,1.84,1.84,0,0,1,.51-.14h.23a1.09,1.09,0,0,1,.25,0,.74.74,0,0,1,.37.22h0a.58.58,0,0,1,.15.36,1.7,1.7,0,0,1-.05.5,2.55,2.55,0,0,1-.42.84h-.22c-.27.06-.53.14-.8.22a2.83,2.83,0,0,0-.54.23h0s0,0,0,0l.2-.57.33-.83c.07-.15.13-.29.19-.44a1.34,1.34,0,0,0,.07-.18.34.34,0,0,0,0-.1s0-.09-.06-.11a.12.12,0,0,0-.19,0,.35.35,0,0,0-.05.08c-.06.12-.11.23-.16.35-.11.27-.21.55-.32.82s-.21.61-.3.92a2.1,2.1,0,0,0-.09.42.15.15,0,0,1,0,.11h0l-.41,0h-.65l-.42,0H11l-.2,0-.72,0-.46,0H9.13s0,0,0,0l.38-.23h.05l0,0a.29.29,0,0,0,.12.1.22.22,0,0,0,.14,0,.28.28,0,0,0,.15,0,.71.71,0,0,0,.14-.1l.14-.14.16-.2a.05.05,0,0,1,0,0v0s0,.08,0,.12a.54.54,0,0,0,.08.19.29.29,0,0,0,.24.12.38.38,0,0,0,.23-.08l.13-.12a.83.83,0,0,0,.16-.21l0-.06,0,0h.06a.2.2,0,0,0,.15,0,.61.61,0,0,0,.21-.11,1.87,1.87,0,0,0,.29-.34.36.36,0,0,0,0-.11s0,0,0-.06a.07.07,0,0,0-.09,0,.1.1,0,0,1-.05,0l-.1.14a.67.67,0,0,1-.21.2l-.1,0a0,0,0,0,1-.06,0,.06.06,0,0,1,0,0,.86.86,0,0,1,0-.16,1.09,1.09,0,0,0,0-.18.41.41,0,0,0-.11-.28.31.31,0,0,0-.22-.11A.49.49,0,0,0,11,17a.81.81,0,0,0-.18.19,1.22,1.22,0,0,0-.17.29.35.35,0,0,1-.07.12l-.27.35a1.26,1.26,0,0,1-.24.22.31.31,0,0,1-.1.05,0,0,0,0,1-.06,0,.09.09,0,0,1,0-.06,1,1,0,0,1,0-.38v0l0,0h0a.77.77,0,0,0,.49-.44.43.43,0,0,0,0-.25.11.11,0,0,0,0-.08.15.15,0,0,0-.13-.1h-.14a.58.58,0,0,0-.25.15,1.48,1.48,0,0,0-.31.43,1.26,1.26,0,0,0-.12.64.06.06,0,0,1,0,0l-.05,0-.4.22-.39.21a.27.27,0,0,1-.12,0h-.3s-.05,0-.05-.06a.57.57,0,0,1,0-.13c0-.1,0-.2.06-.3a8.64,8.64,0,0,1,.31-.85A10.4,10.4,0,0,1,9,16.3c.08-.15.16-.31.25-.46l.06-.14a.57.57,0,0,0,0-.14.25.25,0,0,0,0-.09l0-.07a.15.15,0,0,0-.17,0,.6.6,0,0,0-.08.08l-.21.31,0,.06a9.41,9.41,0,0,0-.53,1,7.54,7.54,0,0,0-.3.79,2.65,2.65,0,0,0-.15.69.74.74,0,0,0,0,.21v.05a.15.15,0,0,1-.09,0,2.55,2.55,0,0,0-.39,0h0s0,0,0,0v.05a0,0,0,0,0,0,0h0a2.75,2.75,0,0,0,.4,0,.17.17,0,0,1,.1,0l.06.08a.33.33,0,0,0,.25.13.53.53,0,0,0,.25-.05l.15-.06a1.71,1.71,0,0,0,.23-.13.19.19,0,0,1,.1,0h1l.72,0h0l.27,0,.7,0h.91s0,0,0,0a.3.3,0,0,0,.14.19.41.41,0,0,0,.18.05,1,1,0,0,0,.43,0,2.24,2.24,0,0,0,.57-.25l.08-.05a.08.08,0,0,1,.06,0l.4,0h1l.29,0c.1,0,.2,0,.3,0l.05,0a.23.23,0,0,0,.24,0l.06,0,.06-.05h.21a2.17,2.17,0,0,1,.36,0h.76a.38.38,0,0,0,.15,0H18c.2,0,.39,0,.59,0h.08l.33,0h.15a2.55,2.55,0,0,1,.39,0h.89l.5,0h0l0,0A.13.13,0,0,0,21,18.06Zm-1-.82a0,0,0,0,1,0,0,1.28,1.28,0,0,1,.17-.3.39.39,0,0,1,.08-.1l0,0s0,0,0,0v0a.5.5,0,0,1-.11.26.6.6,0,0,1-.22.16h0Zm-9.13.64a1.34,1.34,0,0,1,.23-.5.83.83,0,0,1,.23-.19h0a.22.22,0,0,1,0,.16.54.54,0,0,0-.05.31.4.4,0,0,1,0,.15,1,1,0,0,1-.22.31.26.26,0,0,1-.13.08.05.05,0,0,1-.08,0,.14.14,0,0,1,0-.06s0-.05,0-.06A.32.32,0,0,1,10.82,17.88Zm-.84-.4a1.27,1.27,0,0,1,.2-.36.28.28,0,0,1,.1-.09s0,0,0,0v0a.37.37,0,0,1-.08.22.68.68,0,0,1-.24.2h0S10,17.49,10,17.48Zm3.25,1h0a.69.69,0,0,1-.25,0l-.08,0h0a0,0,0,0,1,0,0h.34Zm.44-.17h0l-.06,0-.4,0H13a0,0,0,0,1-.05,0s0-.06,0-.08a.83.83,0,0,1,.21-.16,2.42,2.42,0,0,1,.36-.18,6.18,6.18,0,0,1,.73-.23l.17-.05h0s0,0,0,0A3.85,3.85,0,0,1,13.67,18.32ZM16,17.26a.19.19,0,0,1,0,.08l-.31.42,0,0h0s0,0,0,0a1.66,1.66,0,0,1,.11-.38.75.75,0,0,1,.1-.2.27.27,0,0,1,.11-.1,0,0,0,0,1,.06,0v0s0,.05,0,.07S16,17.24,16,17.26Zm1.79-.13-.09.31c0,.12-.07.24-.09.36a.54.54,0,0,0,0,.33v0h0l-.42,0-.29,0h-.31a.08.08,0,0,0,0,0l.07-.11s0,0,0,0h0a.13.13,0,0,0,.14,0,.05.05,0,0,0,0,0L17,18a3,3,0,0,1,.47-.66l.17-.18.12-.1,0,0a0,0,0,0,1,0,0Zm.65,1h-.22s0,0,0,0,0,0,0,0l.15-.21h0a.47.47,0,0,0,.1.2A.05.05,0,0,1,18.43,18.14Zm1.06-.05h-.43a0,0,0,0,1,0,0h0a2.16,2.16,0,0,0,.36-.38s0,0,0,0a.77.77,0,0,1,0,.15.57.57,0,0,0,0,.14.33.33,0,0,0,.07.13A.23.23,0,0,1,19.49,18.09Z"/>
      <path d="M25.39,9.53h0l-.08,0-.21-.06,0,0,.18.09,0,0s0,0,0,0h-.05a.32.32,0,0,1-.09,0h0l.11.09,0,0a0,0,0,0,1,0,0H25.2L25,9.69H25a.09.09,0,0,1,0,.05l.09.11a0,0,0,0,1,0,0s0,0,0,0h0a.55.55,0,0,0-.3-.2h-.05a.14.14,0,0,0-.15,0c-.13.06-.27.11-.39.18a1.15,1.15,0,0,1-.23.1.66.66,0,0,0-.2.06l-.16.08c-.06,0-.07,0-.08.08l-.06.25c0,.1-.09.17-.09.27s0,.17,0,.25a3.68,3.68,0,0,1,.05.58s0,0,0,0a.41.41,0,0,1-.06.34.18.18,0,0,0,0,.22l.18.35.32.58c.06.13.11.27.17.4a1.74,1.74,0,0,0,.1.19A.32.32,0,0,1,24,14l-.09.1-.09.07-.18.08a.08.08,0,0,0-.06.09,1,1,0,0,1,0,.38.9.9,0,0,0,0,.16c0,.11,0,.22-.08.33s-.13.41-.19.61a.37.37,0,0,1-.19.27c-.08.05-.08.06,0,.15a.69.69,0,0,1,0,.13l0,0h.07s0,.05,0,.05l.36.25c.06,0,.15,0,.19.12a.28.28,0,0,1,0,.09c0,.08-.05.15-.14.17A1.41,1.41,0,0,1,23,17a4.54,4.54,0,0,1-.5-.12.86.86,0,0,1-.23-.06s0-.05-.07-.07a.35.35,0,0,1,0-.18v-.05a.8.8,0,0,0,0-.15.43.43,0,0,0,0-.16c0-.09,0-.1.06-.16h0a.32.32,0,0,0,.1-.27.39.39,0,0,1,.1-.3.11.11,0,0,0,0-.06c0-.1,0-.21.05-.32s.07-.31.1-.47,0-.05,0-.06l-.33,0c-.06,0-.11,0-.15.06l-.1.07-.21,0-.16.07c0,.09-.05.09-.1.12a1,1,0,0,0-.17.19,2.56,2.56,0,0,0-.11.24.12.12,0,0,1-.22,0,.26.26,0,0,1-.07-.11,1,1,0,0,1,0-.66,2.47,2.47,0,0,0,.1-.29c.05-.12.08-.25.14-.37s.09-.11.2-.06a1,1,0,0,0,.25,0h0l.11,0c.06,0,.09,0,.07.09l.06-.07s.05-.06.1,0h.13a.48.48,0,0,0,.17-.05s0-.08,0-.13,0,0,0-.05a3.07,3.07,0,0,0-.17-.31,1.83,1.83,0,0,1-.14-.28,1.26,1.26,0,0,0-.17-.35.59.59,0,0,1-.06-.14c0-.12-.06-.24-.1-.36a.65.65,0,0,1,0-.28.45.45,0,0,0,0-.12.77.77,0,0,1,0-.15,1.46,1.46,0,0,1,0-.22,1,1,0,0,0,0-.25c0-.15-.11-.28-.16-.42s0-.07-.1,0l-.17.1-.07.05-.31.17s-.07.08-.13.07l0,0c0,.08-.12.12-.18.17l-.14.11-.21.15a.62.62,0,0,0-.25.17l0,0a.69.69,0,0,0-.15.07c-.05.05-.12.09-.12.18v.28a.2.2,0,0,0,0,.08.72.72,0,0,1,.11.35.07.07,0,0,1,0,.05s0,0,0,0a1.43,1.43,0,0,1-.27-.28.44.44,0,0,0-.13-.14h0c0,.07,0,.14-.05.21s0,.11-.07.1,0-.07,0-.11c0-.21,0-.42.06-.64,0,0,0-.09,0-.13a.19.19,0,0,1-.06-.07.08.08,0,0,1,0-.07l.07,0,0,0c.06,0,.07,0,.1-.05l0-.07a.58.58,0,0,0,.22-.22l.05,0a3,3,0,0,0,.27-.23l.25-.24h0l.27-.21.06,0a1.13,1.13,0,0,1,.23-.17.59.59,0,0,0,.26-.2l0,0c.07-.06.12-.15.19-.22a.29.29,0,0,0,.11-.18l0,0a.12.12,0,0,0,0-.14.29.29,0,0,1,.17-.32,1.7,1.7,0,0,0,.26-.18L22,9a.43.43,0,0,1,.1-.09,1.7,1.7,0,0,1,.24-.09h.12l.22,0c0-.06,0-.1,0-.15a.75.75,0,0,1,0-.2,3.38,3.38,0,0,1,.11-.34.49.49,0,0,1,.52-.36.36.36,0,0,1,.18,0l.24.12a.31.31,0,0,1,.17.36c0,.08,0,.16-.05.24s0,.07.05.09l.11.08a.2.2,0,0,1-.15,0c-.07,0-.1,0-.12.05l0,.07a.78.78,0,0,1-.22.41.06.06,0,0,0,0,0l.06.2c0,.08,0,.09.1.06h.05A.84.84,0,0,0,24,9.42H24a.71.71,0,0,0,.35-.05.35.35,0,0,1,.14,0,.13.13,0,0,0,.13-.08s.07-.1.12-.13A.3.3,0,0,0,24.85,9V9a0,0,0,0,1,.07,0V9a.88.88,0,0,1-.05.15c0,.08,0,.1.05.13l.21.08.25.12s0,0,0,0A.05.05,0,0,1,25.39,9.53Z"/>
      <path d="M19,11.38a2.31,2.31,0,0,0-.18.35.37.37,0,0,1,.09-.28Z"/>
      <path d="M20.16,12.74a.44.44,0,0,1-.13.31v0c0-.11.08-.22.11-.33A.09.09,0,0,1,20.16,12.74Z"/>
      <path d="M25.41,9.49a.05.05,0,0,1,0,0h0l-.08,0-.21-.06,0,0,.18.09,0,0s0,0,0,0h-.05a.32.32,0,0,1-.09,0h0l.11.09,0,0a0,0,0,0,1,0,0H25.2L25,9.69H25a.09.09,0,0,1,0,.05l.09.11a0,0,0,0,1,0,0s0,0,0,0h0a.55.55,0,0,0-.3-.2h-.05a.14.14,0,0,0-.15,0c-.13.06-.27.11-.39.18a1.15,1.15,0,0,1-.23.1.66.66,0,0,0-.2.06l-.16.08c-.06,0-.07,0-.08.08l-.06.25c0,.1-.09.17-.09.27s0,.17,0,.25a3.68,3.68,0,0,1,.05.58s0,0,0,0a.41.41,0,0,1-.06.34.18.18,0,0,0,0,.22l.18.35.32.58c.06.13.11.27.17.4a1.74,1.74,0,0,0,.1.19A.32.32,0,0,1,24,14l-.09.1-.09.07-.18.08a.08.08,0,0,0-.06.09,1,1,0,0,1,0,.38.9.9,0,0,0,0,.16c0,.11,0,.22-.08.33s-.13.41-.19.61a.37.37,0,0,1-.19.27c-.08.05-.08.06,0,.15a.69.69,0,0,1,0,.13l0,0h.07s0,.05,0,.05l.36.25c.06,0,.15,0,.19.12a.28.28,0,0,1,0,.09c0,.08-.05.15-.14.17A1.41,1.41,0,0,1,23,17a4.54,4.54,0,0,1-.5-.12.86.86,0,0,1-.23-.06s0-.05-.07-.07a.35.35,0,0,1,0-.18v-.05a.8.8,0,0,0,0-.15.43.43,0,0,0,0-.16c0-.09,0-.1.06-.16h0a.32.32,0,0,0,.1-.27.39.39,0,0,1,.1-.3.11.11,0,0,0,0-.06c0-.1,0-.21.05-.32s.07-.31.1-.47,0-.05,0-.06l-.33,0c-.06,0-.11,0-.15.06l-.1.07-.21,0-.16.07c0,.09-.05.09-.1.12a1,1,0,0,0-.17.19,2.56,2.56,0,0,0-.11.24.12.12,0,0,1-.22,0,.26.26,0,0,1-.07-.11,1,1,0,0,1,0-.66,2.47,2.47,0,0,0,.1-.29c.05-.12.08-.25.14-.37s.09-.11.2-.06a1,1,0,0,0,.25,0h0l.11,0c.06,0,.09,0,.07.09l.06-.07s.05-.06.1,0h.13a.48.48,0,0,0,.17-.05s0-.08,0-.13,0,0,0-.05a3.07,3.07,0,0,0-.17-.31,1.83,1.83,0,0,1-.14-.28,1.26,1.26,0,0,0-.17-.35.59.59,0,0,1-.06-.14c0-.12-.06-.24-.1-.36a.65.65,0,0,1,0-.28.45.45,0,0,0,0-.12.77.77,0,0,1,0-.15,1.46,1.46,0,0,1,0-.22,1,1,0,0,0,0-.25c0-.15-.11-.28-.16-.42s0-.07-.1,0l-.17.1-.07.05-.31.17s-.07.08-.13.07l0,0c0,.08-.12.12-.18.17l-.14.11-.21.15a.62.62,0,0,0-.25.17l0,0a.69.69,0,0,0-.15.07c-.05.05-.12.09-.12.18v.28a.2.2,0,0,0,0,.08.72.72,0,0,1,.11.35.07.07,0,0,1,0,.05s0,0,0,0a1.43,1.43,0,0,1-.27-.28.44.44,0,0,0-.13-.14h0c0,.07,0,.14-.05.21s0,.11-.07.1,0-.07,0-.11c0-.21,0-.42.06-.64,0,0,0-.09,0-.13a.19.19,0,0,1-.06-.07.08.08,0,0,1,0-.07l.07,0,0,0c.06,0,.07,0,.1-.05l0-.07a.58.58,0,0,0,.22-.22l.05,0a3,3,0,0,0,.27-.23l.25-.24h0l.27-.21.06,0a1.13,1.13,0,0,1,.23-.17.59.59,0,0,0,.26-.2l0,0c.07-.06.12-.15.19-.22a.29.29,0,0,0,.11-.18l0,0a.12.12,0,0,0,0-.14.29.29,0,0,1,.17-.32,1.7,1.7,0,0,0,.26-.18L22,9a.43.43,0,0,1,.1-.09,1.7,1.7,0,0,1,.24-.09h.12l.22,0c0-.06,0-.1,0-.15a.75.75,0,0,1,0-.2,3.38,3.38,0,0,1,.11-.34.49.49,0,0,1,.52-.36.36.36,0,0,1,.18,0l.24.12a.31.31,0,0,1,.17.36c0,.08,0,.16-.05.24s0,.07.05.09l.11.08a.2.2,0,0,1-.15,0c-.07,0-.1,0-.12.05l0,.07a.78.78,0,0,1-.22.41.06.06,0,0,0,0,0l.06.2c0,.08,0,.09.1.06h.05A.84.84,0,0,0,24,9.42H24a.71.71,0,0,0,.35-.05.35.35,0,0,1,.14,0,.13.13,0,0,0,.13-.08s.07-.1.12-.13A.3.3,0,0,0,24.85,9V9a0,0,0,0,1,.07,0V9a.88.88,0,0,1-.05.15c0,.08,0,.1.05.13l.21.08.25.12S25.4,9.49,25.41,9.49Z"/>
      <path class="cls-4" d="M25.41,9.49a.05.05,0,0,1,0,0h0l-.08,0-.21-.06,0,0,.18.09,0,0s0,0,0,0h-.05a.32.32,0,0,1-.09,0h0l.11.09,0,0a0,0,0,0,1,0,0H25.2L25,9.69H25a.09.09,0,0,1,0,.05l.09.11a0,0,0,0,1,0,0s0,0,0,0h0a.55.55,0,0,0-.3-.2h-.05a.14.14,0,0,0-.15,0c-.13.06-.27.11-.39.18a1.15,1.15,0,0,1-.23.1.66.66,0,0,0-.2.06l-.16.08c-.06,0-.07,0-.08.08l-.06.25c0,.1-.09.17-.09.27s0,.17,0,.25a3.68,3.68,0,0,1,.05.58s0,0,0,0a.41.41,0,0,1-.06.34.18.18,0,0,0,0,.22l.18.35.32.58c.06.13.11.27.17.4a1.74,1.74,0,0,0,.1.19A.32.32,0,0,1,24,14l-.09.1-.09.07-.18.08a.08.08,0,0,0-.06.09,1,1,0,0,1,0,.38.9.9,0,0,0,0,.16c0,.11,0,.22-.08.33s-.13.41-.19.61a.37.37,0,0,1-.19.27c-.08.05-.08.06,0,.15a.69.69,0,0,1,0,.13l0,0h.07s0,.05,0,.05l.36.25c.06,0,.15,0,.19.12a.28.28,0,0,1,0,.09c0,.08-.05.15-.14.17A1.41,1.41,0,0,1,23,17a4.54,4.54,0,0,1-.5-.12.86.86,0,0,1-.23-.06s0-.05-.07-.07a.35.35,0,0,1,0-.18v-.05a.8.8,0,0,0,0-.15.43.43,0,0,0,0-.16c0-.09,0-.1.06-.16h0a.32.32,0,0,0,.1-.27.39.39,0,0,1,.1-.3.11.11,0,0,0,0-.06c0-.1,0-.21.05-.32s.07-.31.1-.47,0-.05,0-.06l-.33,0c-.06,0-.11,0-.15.06l-.1.07-.21,0-.16.07c0,.09-.05.09-.1.12a1,1,0,0,0-.17.19,2.56,2.56,0,0,0-.11.24.12.12,0,0,1-.22,0,.26.26,0,0,1-.07-.11,1,1,0,0,1,0-.66,2.47,2.47,0,0,0,.1-.29c.05-.12.08-.25.14-.37s.09-.11.2-.06a1,1,0,0,0,.25,0h0l.11,0c.06,0,.09,0,.07.09l.06-.07s.05-.06.1,0h.13a.48.48,0,0,0,.17-.05s0-.08,0-.13,0,0,0-.05a3.07,3.07,0,0,0-.17-.31,1.83,1.83,0,0,1-.14-.28,1.26,1.26,0,0,0-.17-.35.59.59,0,0,1-.06-.14c0-.12-.06-.24-.1-.36a.65.65,0,0,1,0-.28.45.45,0,0,0,0-.12.77.77,0,0,1,0-.15,1.46,1.46,0,0,1,0-.22,1,1,0,0,0,0-.25c0-.15-.11-.28-.16-.42s0-.07-.1,0l-.17.1-.07.05-.31.17s-.07.08-.13.07l0,0c0,.08-.12.12-.18.17l-.14.11-.21.15a.62.62,0,0,0-.25.17l0,0a.69.69,0,0,0-.15.07c-.05.05-.12.09-.12.18v.28a.2.2,0,0,0,0,.08.72.72,0,0,1,.11.35.07.07,0,0,1,0,.05s0,0,0,0a1.43,1.43,0,0,1-.27-.28.44.44,0,0,0-.13-.14h0c0,.07,0,.14-.05.21s0,.11-.07.1,0-.07,0-.11c0-.21,0-.42.06-.64,0,0,0-.09,0-.13a.19.19,0,0,1-.06-.07.08.08,0,0,1,0-.07l.07,0,0,0c.06,0,.07,0,.1-.05l0-.07a.58.58,0,0,0,.22-.22l.05,0a3,3,0,0,0,.27-.23l.25-.24h0l.27-.21.06,0a1.13,1.13,0,0,1,.23-.17.59.59,0,0,0,.26-.2l0,0c.07-.06.12-.15.19-.22a.29.29,0,0,0,.11-.18l0,0a.12.12,0,0,0,0-.14.29.29,0,0,1,.17-.32,1.7,1.7,0,0,0,.26-.18L22,9a.43.43,0,0,1,.1-.09,1.7,1.7,0,0,1,.24-.09h.12l.22,0c0-.06,0-.1,0-.15a.75.75,0,0,1,0-.2,3.38,3.38,0,0,1,.11-.34.49.49,0,0,1,.52-.36.36.36,0,0,1,.18,0l.24.12a.31.31,0,0,1,.17.36c0,.08,0,.16-.05.24s0,.07.05.09l.11.08a.2.2,0,0,1-.15,0c-.07,0-.1,0-.12.05l0,.07a.78.78,0,0,1-.22.41.06.06,0,0,0,0,0l.06.2c0,.08,0,.09.1.06h.05A.84.84,0,0,0,24,9.42H24a.71.71,0,0,0,.35-.05.35.35,0,0,1,.14,0,.13.13,0,0,0,.13-.08s.07-.1.12-.13A.3.3,0,0,0,24.85,9V9a0,0,0,0,1,.07,0V9a.88.88,0,0,1-.05.15c0,.08,0,.1.05.13l.21.08.25.12S25.4,9.49,25.41,9.49Z"/>
    </g>
  </g>
</svg>
