<svg xmlns="http://www.w3.org/2000/svg" viewBox="0 0 24.32 18.13">
  <defs>
    <style>
      .cls-1 {
        fill: #e41679;
      }

      .cls-2 {
        fill: #27abe3;
      }

      .cls-3 {
        font-size: 1.58px;
        fill: #1d1d1b;
        font-family: Poppins-ExtraLight, Poppins;
        font-weight: 200;
      }

      .cls-4 {
        fill: #212121;
      }
    </style>
  </defs>
  <g id="Capa_2" data-name="Capa 2">
    <g id="Capa_1-2" data-name="Capa 1">
      <g>
        <path class="cls-1" d="M6.2,7.3v0h0c-.08.25-.19.48-.27.74s-.16.5-.22.75a7.08,7.08,0,0,0-.16.8,2.33,2.33,0,0,0-.06.35,1.07,1.07,0,0,1-.11.46h0a.21.21,0,0,1-.09.1.35.35,0,0,1-.54-.18,1.11,1.11,0,0,1,0-.48c0-.15,0-.29.07-.43A7.1,7.1,0,0,1,5,8.64a9.77,9.77,0,0,1,.35-1.13l-.25,0c-.35.06-.7.1-1,.13L3,7.75l-.49,0L2.7,8c.21.22.42.44.61.67a15.31,15.31,0,0,1,1.14,1.51,4.65,4.65,0,0,1,1,3.15,2.51,2.51,0,0,1-2,2,3,3,0,0,1-2.72-.88c0,.15-.05.28-.07.42-.06.37-.7.28-.67-.08a12.47,12.47,0,0,1,.39-2.37c.09-.34.29-1.51.75-1.53a.33.33,0,0,1,.34.4c-.29.86-.9,2.14-.08,2.89a2.19,2.19,0,0,0,2.4.27,1.84,1.84,0,0,0,.92-2A6.84,6.84,0,0,0,3.44,9.91c-.26-.38-.55-.76-.85-1.13l-.47-.55a3.79,3.79,0,0,1-.48-.58.22.22,0,0,1,0-.21A.36.36,0,0,1,2,7.09c.33,0,.68,0,1,0S3.67,7,4,7l1-.1a1.63,1.63,0,0,1,.76,0A.36.36,0,0,1,6.11,7,.34.34,0,0,1,6.2,7.3Z"/>
        <path class="cls-1" d="M11.75,8.44a.41.41,0,0,1-.4.4C10,8.94,9.3,9,7.93,9H7.79c-.44,1.9-1.44,6.26-1.47,6.43h0a2.56,2.56,0,0,1,0,.27l0,0a.37.37,0,0,1,.61.36,1.77,1.77,0,0,1-.25.47l-.24.41-.51.85a.42.42,0,0,1-.47.19.41.41,0,0,1-.3-.4c.07-.61,1.3-6.47,1.55-7.5L6.94,9H5.87L4.64,9a.3.3,0,0,1-.45.27,4.24,4.24,0,0,1-.56-.38.37.37,0,0,1,.18-.69c.69,0,1.37,0,2.06,0H6.8a.26.26,0,0,1,.07-.31,2.15,2.15,0,0,0,.57-.63A1.73,1.73,0,0,1,7.54,7V7h0a.34.34,0,0,1,.62.16A4.14,4.14,0,0,1,8,8.08a.43.43,0,0,1,0,.11c1.36,0,2-.08,3.37-.16A.41.41,0,0,1,11.75,8.44Z"/>
        <path class="cls-1" d="M8.76,14.75a.27.27,0,0,0-.07.08,3.06,3.06,0,0,0-.21.29l0,.06a1.37,1.37,0,0,0,.41-.35l.06-.09A.13.13,0,0,0,8.76,14.75Zm2-4.81c-.33.66-.72,1.29-1.08,1.93L8.62,13.76a2.31,2.31,0,0,1-.46.69l-.06,0h0l0,0h0a.31.31,0,0,0,0-.08,1.59,1.59,0,0,1,.06-.43c0-.18.08-.36.12-.54q.1-.51.24-1c.09-.36.21-.72.31-1.09a11.59,11.59,0,0,0,.33-1.15.33.33,0,0,0-.6-.25A5.39,5.39,0,0,0,8,11c-.14.37-.25.76-.36,1.14s-.2.76-.27,1.13a4,4,0,0,0-.17,1.23.92.92,0,0,0,.73.82H8L8.21,15a2.85,2.85,0,0,1,.23-.33l.1-.12a.46.46,0,0,1,.3-.11.44.44,0,0,1,.25.08c.13-.22.24-.44.35-.65l.19-.33a10.3,10.3,0,0,0-.19,1.65.38.38,0,0,0,.38.39.4.4,0,0,0,.39-.39,23,23,0,0,1,.44-2.48,18.68,18.68,0,0,1,.77-2.44A.37.37,0,0,0,10.76,9.94Z"/>
        <path class="cls-2" d="M15.34,7V7a2.59,2.59,0,0,0-.17.38,1,1,0,0,1-.11.17c-.13.16-.3.31-.31.52a.17.17,0,0,0,.13.17h0c0,.11-.06.21-.08.32-.15.53-.27,1.07-.4,1.6,0,.08,0,.15,0,.22A1.68,1.68,0,0,0,14,10a1.12,1.12,0,0,0-1.31-.13A2.45,2.45,0,0,0,12,11a8,8,0,0,0-.52,1.28,7.69,7.69,0,0,0-.27,1.35,2.24,2.24,0,0,0,.1,1.4.93.93,0,0,0,.71.45.38.38,0,0,1,0-.33.42.42,0,0,1,.09-.14l.11-.12a2.29,2.29,0,0,1,.73-.41l.21-.07.11-.22c.21-.41.42-.83.62-1.24,0,.17-.07.35-.1.52s-.11.58-.16.87h.22a1.25,1.25,0,0,1,.61.18c0-.22.08-.45.13-.67.1-.54.21-1.08.33-1.61.22-1.07.45-2.14.71-3.2.07-.29.13-.59.2-.89a3.59,3.59,0,0,0,.17-1A.32.32,0,0,0,15.34,7Zm-1.91,4.94L12.88,13l-.54,1c-.08.15-.16.3-.26.45a.21.21,0,0,1-.05.07,0,0,0,0,1,0,0,.69.69,0,0,0,0-.1,2.18,2.18,0,0,1,0-.57,6.32,6.32,0,0,1,.17-1A6.92,6.92,0,0,1,13,10.9a1.07,1.07,0,0,1,.24-.32.31.31,0,0,1,.3,0,.94.94,0,0,1,.38.43C13.71,11.3,13.58,11.61,13.43,11.91Z"/>
        <path class="cls-2" d="M16.7,10.05a.31.31,0,0,0-.58-.15,2.33,2.33,0,0,0-.28.69c-.07.22-.13.45-.19.67-.13.45-.24.91-.35,1.37s-.2.91-.29,1.36l-.12.69c0,.07,0,.15,0,.22a.7.7,0,0,0,0,.25.46.46,0,0,0,.16.23.34.34,0,0,0,.18.09.4.4,0,0,0,.49-.24.36.36,0,0,0,0-.27c.14-.79.3-1.56.46-2.35.09-.41.19-.82.29-1.23l.15-.64A2.06,2.06,0,0,0,16.7,10.05Zm.58-1.82a.33.33,0,0,0-.07-.13L17.14,8A.24.24,0,0,0,17,8l-.1,0L16.8,8a.28.28,0,0,0-.13.07.33.33,0,0,0-.09.11l-.09.18,0,.12,0,.1a.78.78,0,0,0,0,.21l0,.11a.37.37,0,0,0,.07.14.23.23,0,0,0,.07.07.31.31,0,0,0,.14.07.41.41,0,0,0,.22,0A.21.21,0,0,0,17,9.07.29.29,0,0,0,17.15,9a0,0,0,0,1,0,0,.3.3,0,0,0,0-.1s0,0,0,0,0,0,0-.05a.43.43,0,0,0,0-.11l0-.11a1.49,1.49,0,0,0,0-.21Z"/>
        <path class="cls-2" d="M19.59,10.16l-.26.2h0l.2,0h0a1,1,0,0,1,0,.4l0,.23.13-.1a.58.58,0,0,0,.18-.17l0,0c.06,0,.08,0,.12-.07l.3-.17.07,0a1.23,1.23,0,0,0,0-.19.85.85,0,0,0-.25-.43.79.79,0,0,1-.25.19c-.09,0-.15.1-.22.15Zm.63.69h0l-.12.08a1.31,1.31,0,0,1-.16.13l0,0a2.21,2.21,0,0,1-.37.27l0,0a7.1,7.1,0,0,1-.2.76c0,.11-.07.21-.11.32v0a7,7,0,0,1-.51,1.07,5.08,5.08,0,0,1-.65.94.46.46,0,0,1-.31.17c-.07,0,0,0-.07,0s0-.06,0,0a.6.6,0,0,1-.09-.18,1.78,1.78,0,0,1-.06-.47,4.73,4.73,0,0,1,0-.65A5.53,5.53,0,0,1,18,11.23a3.59,3.59,0,0,1,.17-.34l.12-.2.09-.13.27-.05h.05l0,0a.47.47,0,0,0,.13-.11,3.77,3.77,0,0,1,.49-.42l.06,0h0l.05,0,.05,0a.7.7,0,0,1,.27-.17l.06-.05h0a2.44,2.44,0,0,0-1.31.11,6.59,6.59,0,0,1-1.3.24h0a.34.34,0,0,0-.25.31.27.27,0,0,0,.16.39,1.53,1.53,0,0,0,.29.07A4.35,4.35,0,0,0,17,11.78a6.24,6.24,0,0,0-.27,1.47,4.05,4.05,0,0,0,.09,1.43,1,1,0,0,0,1.19.73,2.07,2.07,0,0,0,1.12-1A8.74,8.74,0,0,0,19.8,13a7.32,7.32,0,0,0,.45-1.37,6.88,6.88,0,0,0,.13-.77.62.62,0,0,1,0-.13h0Z"/>
      </g>
      <text class="cls-3" transform="translate(20.63 10.37)">®</text>
      <path class="cls-4" d="M15.42,5.2v0A.7.7,0,0,0,15.18,5l-.12,0-.26-.08a1.58,1.58,0,0,0-.48-.06,2.17,2.17,0,0,1-.36,0l-.24,0a1.16,1.16,0,0,0-.49,0l-.12,0a1.54,1.54,0,0,0-.37,0l-.13,0a.45.45,0,0,1-.2,0l-.17,0-.4-.08h-.05l0,0v0a.55.55,0,0,1,.26-.3l.05,0a.2.2,0,0,1,.11,0l.09,0a.21.21,0,0,0,.11,0s.07,0,.08,0,0-.06,0-.08a.16.16,0,0,0,0-.07.2.2,0,0,1,.08-.13.11.11,0,0,0,0-.13l0,0a.38.38,0,0,1,0-.18v0a.08.08,0,0,0,0-.06.25.25,0,0,1-.06-.14.07.07,0,0,0,0,0,.33.33,0,0,0,0-.14.57.57,0,0,0-.11-.11.62.62,0,0,0-.26-.09H12a.54.54,0,0,0-.27.11.63.63,0,0,0-.26.41.3.3,0,0,0,0,.1,0,0,0,0,0,0,0l0,0h0l0,0a.51.51,0,0,0-.1-.21l-.11-.13L11,3.25l-.2-.19-.15-.19-.09-.13-.1-.15a1.06,1.06,0,0,1-.18-.33.64.64,0,0,0-.08-.14l-.06-.06A4.57,4.57,0,0,1,9.8,1.7l-.26-.39A.5.5,0,0,1,9.46,1V1a.09.09,0,0,0,0-.07l0,0a.06.06,0,0,0-.08,0l0,0a.11.11,0,0,1,0,0c0-.17.07-.34.11-.51l0-.17A.07.07,0,0,0,9.38,0H9.31s-.05,0-.05,0l0,.07L9.11.72l0,.13L9,.88A.05.05,0,0,0,9,.94a.57.57,0,0,1,0,.13s0,.08,0,.11l-.06.29c0,.19-.07.37-.11.56l-.12.6c0,.19-.07.38-.11.58l-.12.56A2.56,2.56,0,0,1,8.41,4a0,0,0,0,1-.06,0L8.27,4l-.42-.2L7.6,3.71a1.44,1.44,0,0,1-.52-.52,1.31,1.31,0,0,0-.36-.38l-.25-.14c-.21-.09-.41-.2-.62-.31a.21.21,0,0,1-.13-.17.24.24,0,0,0,0-.08A.15.15,0,0,0,5.62,2L5.54,2H5.47a1,1,0,0,1-.24-.11A2.12,2.12,0,0,1,5,1.76L4.92,1.7a.17.17,0,0,0-.1,0,.61.61,0,0,0-.13,0,.22.22,0,0,0-.13.08,0,0,0,0,0,0,.07l0,0a.45.45,0,0,1,.14.19.13.13,0,0,0,.07.06l.11,0,.26.17a1.65,1.65,0,0,0,.32.18,1.13,1.13,0,0,1,.21.12A2.91,2.91,0,0,1,6,2.92c.17.14.33.3.49.46a.85.85,0,0,1,.21.32.4.4,0,0,0,.15.19A.38.38,0,0,1,7,4l.11.13.56.6L8,5.05l0,0s0,0,0,0l0,0a1.37,1.37,0,0,0-.23.25l-.27.33c-.1.13-.21.25-.32.37A.36.36,0,0,1,7,6.24l-.19.09-.2.1A1.76,1.76,0,0,0,5.92,7l-.09.12a.93.93,0,0,1-.16.18l-.14.14h0l-.12.11a.23.23,0,0,1-.1.07v0l-.21.61h.25v0l0,0,.19-.2a1.12,1.12,0,0,1,.2-.18l.56-.39.09-.06.19-.15a1.08,1.08,0,0,1,.51-.29l.1,0a.19.19,0,0,0,.1,0,1,1,0,0,1,.18-.1l.14-.08a.77.77,0,0,1,.19-.08,0,0,0,0,1,0,0v0c0,.13,0,.26-.07.39s0,0,0,0l0,.06L8,7V7H8l.06-.31c0-.1.05-.19.07-.29a.16.16,0,0,1,.06-.08c.12-.06.24-.14.36-.19L8.91,6a.72.72,0,0,1,.25-.07l.4,0h.75l.24,0A2.64,2.64,0,0,0,11,5.66l.59-.28A.64.64,0,0,1,12,5.31h.08a4.19,4.19,0,0,0,.61,0l.34,0a1.75,1.75,0,0,1,.46,0h.21c.1,0,.21,0,.31,0l.23,0,.21,0a.23.23,0,0,1,.14,0l.27.11a.94.94,0,0,1,.18.12.45.45,0,0,0,.19.11h0a0,0,0,0,0,0,0,0,0,0,0,1,0,0l-.08-.13,0-.08h.05l.1,0,0,0h0S15.43,5.21,15.42,5.2ZM10.57,3.77a.23.23,0,0,1,0,.07.94.94,0,0,1-.1.23,1.12,1.12,0,0,1-.16.22.57.57,0,0,1-.16.15L10,4.53l-.12.08a.35.35,0,0,1-.16.08l-.18,0a.06.06,0,0,1-.07,0,.56.56,0,0,0-.05-.08.83.83,0,0,0-.07-.13.41.41,0,0,0-.21-.15L9,4.29a1.91,1.91,0,0,1-.34-.1h0s0,0,0-.06a.43.43,0,0,1,0-.11c.08-.42.17-.84.26-1.26s.19-.88.28-1.32a.11.11,0,0,0,0-.05s0,0,0,0a0,0,0,0,1,.06,0,.28.28,0,0,1,.08.11.14.14,0,0,0,0,.06,1.31,1.31,0,0,0,.12.27,1,1,0,0,1,.11.28,1.23,1.23,0,0,0,.12.26.51.51,0,0,1,.09.16l.06.1a1.55,1.55,0,0,1,.26.37,2,2,0,0,1,.14.25,2.44,2.44,0,0,0,.28.43l0,0A.15.15,0,0,1,10.57,3.77Z"/>
      <path class="cls-4" d="M20.09,17.28s0,0,0,0H19.3s0,0,0,0l.29-.33.26-.35a.41.41,0,0,0,.07-.11.08.08,0,0,0,0-.11.06.06,0,0,0-.08,0l0,0a2.43,2.43,0,0,1-.14.2l-.27.33a.93.93,0,0,1-.14.14l-.13.1h-.05a0,0,0,0,1-.06,0,.08.08,0,0,1,0-.07.85.85,0,0,1,0-.32.09.09,0,0,1,0-.06h.05a.75.75,0,0,0,.39-.29.56.56,0,0,0,.09-.17.36.36,0,0,0,0-.23.17.17,0,0,0-.14-.15.44.44,0,0,0-.16,0,.59.59,0,0,0-.22.14,1,1,0,0,0-.26.36.71.71,0,0,1-.12.18,1,1,0,0,1-.08.11,4,4,0,0,1-.26.32l-.13.12a.42.42,0,0,1-.12.08l-.1,0c-.06,0-.1,0-.12-.07s0,0,0,0V17a1.8,1.8,0,0,1,.06-.32,1.46,1.46,0,0,1,.16-.36l.12-.13.09,0a.08.08,0,0,1,.09.08s0,0,0,0v0s0,0,0,0a.06.06,0,0,0,.09,0,.19.19,0,0,0,.07-.17.3.3,0,0,0-.1-.22.32.32,0,0,0-.19-.07A.48.48,0,0,0,18,16a1,1,0,0,0-.19.17,1.35,1.35,0,0,0-.15.26.92.92,0,0,0-.1.36l0,.08-.15.25a.36.36,0,0,1-.08.12.63.63,0,0,1-.12.11h-.05s0,0,0,0a.41.41,0,0,1,0-.11c0-.13.05-.26.08-.38a3.58,3.58,0,0,0,.09-.35.57.57,0,0,0,0-.13.27.27,0,0,0-.08-.17.11.11,0,0,0-.08,0,.35.35,0,0,0-.17,0l-.09.05a2.81,2.81,0,0,0-.31.29s0,.06-.08.08v0a.44.44,0,0,0,0-.1.14.14,0,0,0,0-.15.13.13,0,0,0-.21,0,.93.93,0,0,0-.05.1l-.09.23a.42.42,0,0,1,0,.1,3.43,3.43,0,0,1-.28.49l-.1.12a.39.39,0,0,1-.1.08s0,0,0,0a.13.13,0,0,1,0-.06,1,1,0,0,1,0-.38l.12-.37c0-.06,0-.13.07-.2a.32.32,0,0,0,0-.17.12.12,0,0,0-.08-.1.12.12,0,0,0-.14,0l-.06.07a.35.35,0,0,1,0,.08l0,0a.59.59,0,0,1,0-.08.23.23,0,0,0-.2-.11.39.39,0,0,0-.21.08.59.59,0,0,0-.17.18,1.77,1.77,0,0,0-.15.31,1,1,0,0,0-.06.48.42.42,0,0,0,0,.12.12.12,0,0,0,.14.07l0,0a.24.24,0,0,0,.11-.06.86.86,0,0,0,.13-.14l.15-.23,0,0a1.32,1.32,0,0,0,0,.56s0,0,0,0l-.2,0h-.52l-.67,0h-.24a0,0,0,0,1,0,0l.19-.17a4.12,4.12,0,0,0,.28-.31,3.43,3.43,0,0,0,.39-.6,2,2,0,0,0,.2-.9,1,1,0,0,0-.07-.34A.65.65,0,0,0,14.5,15a.75.75,0,0,0-.16-.15,1,1,0,0,0-.57-.2h-.3a1.89,1.89,0,0,0-.47.11l-.09,0a1.87,1.87,0,0,0-.54.33l-.09.08,0,.05a.08.08,0,0,0,0,.08.08.08,0,0,0,.08,0l.05,0,.28-.19L13,15a2.09,2.09,0,0,1,.49-.13h.22a.67.67,0,0,1,.24,0,.67.67,0,0,1,.36.21h0a.53.53,0,0,1,.15.34,1.32,1.32,0,0,1-.06.48,2.21,2.21,0,0,1-.39.8h-.06a.41.41,0,0,0-.16,0,7.1,7.1,0,0,0-.76.2,2.91,2.91,0,0,0-.51.22h0a.06.06,0,0,0,0,0l.2-.54c.1-.27.2-.54.32-.8s.12-.27.17-.41a1.34,1.34,0,0,0,.07-.18.28.28,0,0,0,0-.09s0-.09-.06-.11A.12.12,0,0,0,13,15a.22.22,0,0,0-.05.08,2.41,2.41,0,0,0-.15.33c-.11.26-.21.52-.3.79s-.21.58-.3.88a1.35,1.35,0,0,0-.08.4.15.15,0,0,1,0,.11h0l-.39,0h-.19l-.29,0H11l-.39,0H10.3l-.69,0-.44,0H8.74a.05.05,0,0,1,0,0l.37-.22h0l0,0a.31.31,0,0,0,.11.09.23.23,0,0,0,.14,0,.34.34,0,0,0,.14-.05.61.61,0,0,0,.14-.1,1.59,1.59,0,0,0,.13-.13L10,17.2s0,0,0,0v0s0,.07,0,.11a.58.58,0,0,0,.08.18.26.26,0,0,0,.23.11.37.37,0,0,0,.22-.08l.12-.11a1.56,1.56,0,0,0,.16-.2.21.21,0,0,1,0-.06s0,0,0,0h.2a.64.64,0,0,0,.2-.11,1.75,1.75,0,0,0,.28-.33.17.17,0,0,0,0-.1s0,0,0-.06a.07.07,0,0,0-.08,0l-.05,0-.1.14a.68.68,0,0,1-.2.18l-.09,0a.06.06,0,0,1-.07,0v0a.61.61,0,0,1,0-.14,1.09,1.09,0,0,0,0-.18.46.46,0,0,0-.11-.27.28.28,0,0,0-.21-.1.44.44,0,0,0-.27.09,1.37,1.37,0,0,0-.17.17,1,1,0,0,0-.16.29.41.41,0,0,1-.07.11l-.26.33a1.61,1.61,0,0,1-.23.22l-.09.05a.09.09,0,0,1-.07,0,.08.08,0,0,1,0,0,1.14,1.14,0,0,1,0-.37s0,0,0,0l0,0h0A.76.76,0,0,0,10,16.5a.48.48,0,0,0,0-.24.31.31,0,0,0,0-.08.19.19,0,0,0-.14-.09H9.75a.59.59,0,0,0-.23.14,1.25,1.25,0,0,0-.3.42,1.06,1.06,0,0,0-.11.61s0,0,0,0l-.05,0-.38.22-.37.19a.28.28,0,0,1-.12,0H7.89s0,0,0-.05a.62.62,0,0,1,0-.13,1.4,1.4,0,0,1,.06-.28,8,8,0,0,1,.29-.82c.13-.31.28-.61.44-.91l.24-.44L8.94,15a.65.65,0,0,0,0-.13.16.16,0,0,0,0-.1l0-.06a.13.13,0,0,0-.16,0,.27.27,0,0,0-.07.08,3.06,3.06,0,0,0-.21.29l0,.06a7.18,7.18,0,0,0-.5.95,7.71,7.71,0,0,0-.29.75,3.09,3.09,0,0,0-.15.67,1.33,1.33,0,0,0,0,.2v0s0,0-.08,0l-.38,0H7a0,0,0,0,0,0,0s0,0,0,.05,0,0,0,0h0a2.3,2.3,0,0,0,.37,0s.07,0,.1,0l.06.08a.31.31,0,0,0,.24.12.64.64,0,0,0,.24,0A.61.61,0,0,0,8.23,18a.94.94,0,0,0,.22-.12l.1,0h.26l.28,0h.46l.68,0h.28l.67,0h.87a.08.08,0,0,1,0,0,.31.31,0,0,0,.14.18.48.48,0,0,0,.17.05,1.12,1.12,0,0,0,.41,0,2.24,2.24,0,0,0,.55-.24l.07-.05a.11.11,0,0,1,.06,0l.38,0h.22l.27,0h1l.05,0a.21.21,0,0,0,.23,0l.06,0,0,0h1.49c.19,0,.38,0,.57,0h.07l.31,0h.15l.38,0H19l.32,0h.24l.48,0h0l0,0Zm-1-.77a0,0,0,0,1,0,0,1.08,1.08,0,0,1,.16-.3l.08-.09,0,0a0,0,0,0,1,.05,0v0a.41.41,0,0,1-.11.25.59.59,0,0,1-.2.15h0Zm-8.75.61a1.34,1.34,0,0,1,.23-.48.6.6,0,0,1,.21-.18s0,0,0,0a.12.12,0,0,1,0,.14.52.52,0,0,0,0,.3.37.37,0,0,1,0,.15,1.08,1.08,0,0,1-.21.3.57.57,0,0,1-.13.08.07.07,0,0,1-.08,0s0,0,0-.06,0,0,0,0A.42.42,0,0,1,10.35,17.12Zm-.8-.39a1.17,1.17,0,0,1,.2-.34.2.2,0,0,1,.09-.09s0,0,0,0v0a.38.38,0,0,1-.07.21.83.83,0,0,1-.23.19h0Zm3.12,1h0a.85.85,0,0,1-.23,0l-.08,0h.34Zm.41-.17h0a.07.07,0,0,1-.06,0l-.38,0h-.2s0,0,0,0a.06.06,0,0,1,0-.07,1.3,1.3,0,0,1,.2-.15,2.81,2.81,0,0,1,.35-.17c.23-.09.46-.16.7-.23a.42.42,0,0,1,.16,0h0a0,0,0,0,1,0,0A2.86,2.86,0,0,1,13.08,17.53Zm2.23-1a.11.11,0,0,1,0,.08c-.09.13-.18.27-.29.4s0,0,0,0h0v0a2.59,2.59,0,0,1,.11-.37.61.61,0,0,1,.09-.18.27.27,0,0,1,.11-.1,0,0,0,0,1,0,0l0,0v.12ZM17,16.4c0,.1-.05.2-.08.29a2.25,2.25,0,0,0-.09.35.58.58,0,0,0,0,.32s0,0,0,0h0l-.4,0-.28,0h-.3a0,0,0,0,0,0,0l.07-.1s0,0,0,0h0a.12.12,0,0,0,.13,0l0,0,0-.07a3.09,3.09,0,0,1,.44-.63c.06-.06.11-.12.17-.17a.52.52,0,0,1,.11-.1l0,0a0,0,0,0,1,0,0Zm.62,1h-.21s0,0,0,0,0,0,0,0l.14-.19h0s0,0,0,0a.69.69,0,0,0,.1.19S17.66,17.36,17.64,17.36Zm1,0h-.41a1.94,1.94,0,0,0,.34-.36s0,0,.05,0a.59.59,0,0,1,0,.14l0,.13s0,.09.07.13S18.69,17.31,18.66,17.32Z"/>
      <path d="M24.3,9.12h0l-.08,0L24,9l0,0,.17.08,0,0s0,0,0,0h-.05s0,0-.08,0h0l.11.08a.05.05,0,0,1,0,0s0,0,0,0h0L24,9.28H23.9a.06.06,0,0,0,0,0,.76.76,0,0,0,.08.11s0,0,0,0,0,0,0,0h0a.51.51,0,0,0-.29-.19l0,0a.15.15,0,0,0-.13,0c-.13.06-.26.11-.38.18a.85.85,0,0,1-.22.09.76.76,0,0,0-.2.06.69.69,0,0,1-.15.07.11.11,0,0,0-.07.09l-.06.24c0,.08-.09.16-.08.26a1.64,1.64,0,0,0,0,.23,2.56,2.56,0,0,1,.05.55.06.06,0,0,0,0,0,.41.41,0,0,1-.07.32.17.17,0,0,0,0,.21,3.59,3.59,0,0,0,.17.34l.3.55c.06.13.11.26.17.38l.09.19a.29.29,0,0,1,0,.31l-.08.1a.71.71,0,0,1-.09.07l-.17.07a.09.09,0,0,0-.06.09,1.09,1.09,0,0,1,0,.36.94.94,0,0,0,0,.16c0,.1,0,.21-.07.31s-.12.39-.18.59a.43.43,0,0,1-.18.26c-.09,0-.08,0,0,.14a.56.56,0,0,1,0,.12v0h.06s0,0,0,.05l.35.24c.05,0,.14,0,.18.11a.14.14,0,0,1,0,.09.17.17,0,0,1-.13.16,1.32,1.32,0,0,1-.56,0l-.47-.11-.23-.06a.22.22,0,0,1-.06-.07s0-.16,0-.17v-.05a.7.7,0,0,0,0-.14.38.38,0,0,0,0-.15c0-.09,0-.1.06-.16h0a.33.33,0,0,0,.11-.26.32.32,0,0,1,.09-.28s0,0,0-.06,0-.2.05-.3L21.7,14s0-.06,0-.06l-.31,0a.14.14,0,0,0-.15,0,.26.26,0,0,1-.1.07l-.19.05-.15.07c0,.08-.05.08-.1.11a1,1,0,0,0-.17.19c0,.07-.06.15-.1.22s-.14.12-.21,0a.26.26,0,0,1-.07-.11,1,1,0,0,1,0-.62c0-.09.07-.19.1-.28a2.6,2.6,0,0,1,.13-.36c0-.1.09-.1.19-.06a.93.93,0,0,0,.24,0h0l.11,0c.05,0,.08,0,.06.08l.06-.07s.05-.05.09,0h.13a.6.6,0,0,0,.16-.05s0-.08,0-.12l0-.06-.17-.29a1.11,1.11,0,0,1-.13-.27,1.26,1.26,0,0,0-.16-.33.61.61,0,0,1-.07-.14c0-.11-.05-.23-.09-.35a.58.58,0,0,1,0-.26.37.37,0,0,0,0-.11c0-.05,0-.1,0-.15a1.52,1.52,0,0,1,0-.21,1,1,0,0,0,0-.24c0-.14-.1-.27-.15-.4s0-.07-.1,0l-.16.1-.07,0-.3.17s-.06.07-.12.07l0,0a.58.58,0,0,1-.18.17l-.13.1-.21.15c-.08.05-.18.07-.23.16l-.05,0a.91.91,0,0,0-.13.08c-.06,0-.12.08-.12.17v.26l0,.08a.82.82,0,0,1,.12.34l0,0s0,0,0,0a.84.84,0,0,1-.26-.27.74.74,0,0,0-.12-.13h0a1.46,1.46,0,0,1-.05.2s0,.1-.06.1,0-.07,0-.1c0-.21,0-.41.06-.62,0,0,0-.09,0-.12a.16.16,0,0,1-.06-.08.06.06,0,0,1,0-.06l.07,0,0,0c.06,0,.07,0,.09,0a.13.13,0,0,1,.05-.07.6.6,0,0,0,.21-.21.1.1,0,0,1,0,0c.08-.08.18-.14.26-.22a2.61,2.61,0,0,1,.24-.23h0l.26-.2.07-.06c.07,0,.13-.13.22-.15a.79.79,0,0,0,.25-.19l0,0c.07-.06.12-.15.19-.21a.4.4,0,0,0,.1-.18l0,0a.12.12,0,0,0,0-.13.28.28,0,0,1,.15-.31,1.17,1.17,0,0,0,.26-.17,1.42,1.42,0,0,0,.13-.12s.05-.07.09-.09l.23-.08a.28.28,0,0,1,.13,0l.2,0a.61.61,0,0,0,0-.14.41.41,0,0,1,0-.19,2.07,2.07,0,0,1,.1-.33.48.48,0,0,1,.5-.35.86.86,0,0,1,.17,0l.23.13a.28.28,0,0,1,.16.34c0,.07,0,.15,0,.22a.08.08,0,0,0,0,.1.46.46,0,0,1,.1.07.18.18,0,0,1-.14,0c-.07,0-.09,0-.11,0a.33.33,0,0,1,0,.06.73.73,0,0,1-.22.4,0,0,0,0,0,0,0c0,.06,0,.12.05.18s0,.09.11.06h0a.63.63,0,0,0,.3-.07h0a.78.78,0,0,0,.34,0l.13,0a.14.14,0,0,0,.13-.07.75.75,0,0,1,.11-.13.26.26,0,0,0,.11-.14h0a0,0,0,0,1,.06,0,0,0,0,0,1,0,0,.58.58,0,0,1-.05.14c0,.08,0,.1.05.13l.21.07.23.12s0,0,0,0S24.31,9.12,24.3,9.12Z"/>
      <path d="M18.17,10.89a3.59,3.59,0,0,0-.17.34.32.32,0,0,1,.09-.27A.27.27,0,0,1,18.17,10.89Z"/>
      <path d="M19.3,12.19a.4.4,0,0,1-.13.3v0c0-.11.08-.21.11-.32Z"/>
      <path d="M24.32,9.09s0,0,0,0h0l-.08,0L24,9l0,0,.17.08,0,0s0,0,0,0h-.05s0,0-.08,0h0l.11.08a.05.05,0,0,1,0,0s0,0,0,0h0L24,9.28H23.9a.06.06,0,0,0,0,0,.76.76,0,0,0,.08.11s0,0,0,0,0,0,0,0h0a.51.51,0,0,0-.29-.19l0,0a.15.15,0,0,0-.13,0c-.13.06-.26.11-.38.18a.85.85,0,0,1-.22.09.76.76,0,0,0-.2.06.69.69,0,0,1-.15.07.11.11,0,0,0-.07.09l-.06.24c0,.08-.09.16-.08.26a1.64,1.64,0,0,0,0,.23,2.56,2.56,0,0,1,.05.55.06.06,0,0,0,0,0,.41.41,0,0,1-.07.32.17.17,0,0,0,0,.21,3.59,3.59,0,0,0,.17.34l.3.55c.06.13.11.26.17.38l.09.19a.29.29,0,0,1,0,.31l-.08.1a.71.71,0,0,1-.09.07l-.17.07a.09.09,0,0,0-.06.09,1.09,1.09,0,0,1,0,.36.94.94,0,0,0,0,.16c0,.1,0,.21-.07.31s-.12.39-.18.59a.43.43,0,0,1-.18.26c-.09,0-.08,0,0,.14a.56.56,0,0,1,0,.12v0h.06s0,0,0,.05l.35.24c.05,0,.14,0,.18.11a.14.14,0,0,1,0,.09.17.17,0,0,1-.13.16,1.32,1.32,0,0,1-.56,0l-.47-.11-.23-.06a.22.22,0,0,1-.06-.07s0-.16,0-.17v-.05a.7.7,0,0,0,0-.14.38.38,0,0,0,0-.15c0-.09,0-.1.06-.16h0a.33.33,0,0,0,.11-.26.32.32,0,0,1,.09-.28s0,0,0-.06,0-.2.05-.3L21.7,14s0-.06,0-.06l-.31,0a.14.14,0,0,0-.15,0,.26.26,0,0,1-.1.07l-.19.05-.15.07c0,.08-.05.08-.1.11a1,1,0,0,0-.17.19c0,.07-.06.15-.1.22s-.14.12-.21,0a.26.26,0,0,1-.07-.11,1,1,0,0,1,0-.62c0-.09.07-.19.1-.28a2.6,2.6,0,0,1,.13-.36c0-.1.09-.1.19-.06a.93.93,0,0,0,.24,0h0l.11,0c.05,0,.08,0,.06.08l.06-.07s.05-.05.09,0h.13a.6.6,0,0,0,.16-.05s0-.08,0-.12l0-.06-.17-.29a1.11,1.11,0,0,1-.13-.27,1.26,1.26,0,0,0-.16-.33.61.61,0,0,1-.07-.14c0-.11-.05-.23-.09-.35a.58.58,0,0,1,0-.26.37.37,0,0,0,0-.11c0-.05,0-.1,0-.15a1.52,1.52,0,0,1,0-.21,1,1,0,0,0,0-.24c0-.14-.1-.27-.15-.4s0-.07-.1,0l-.16.1-.07,0-.3.17s-.06.07-.12.07l0,0a.58.58,0,0,1-.18.17l-.13.1-.21.15c-.08.05-.18.07-.23.16l-.05,0a.91.91,0,0,0-.13.08c-.06,0-.12.08-.12.17v.26l0,.08a.82.82,0,0,1,.12.34l0,0s0,0,0,0a.84.84,0,0,1-.26-.27.74.74,0,0,0-.12-.13h0a1.46,1.46,0,0,1-.05.2s0,.1-.06.1,0-.07,0-.1c0-.21,0-.41.06-.62,0,0,0-.09,0-.12a.16.16,0,0,1-.06-.08.06.06,0,0,1,0-.06l.07,0,0,0c.06,0,.07,0,.09,0a.13.13,0,0,1,.05-.07.6.6,0,0,0,.21-.21.1.1,0,0,1,0,0c.08-.08.18-.14.26-.22a2.61,2.61,0,0,1,.24-.23h0l.26-.2.07-.06c.07,0,.13-.13.22-.15a.79.79,0,0,0,.25-.19l0,0c.07-.06.12-.15.19-.21a.4.4,0,0,0,.1-.18l0,0a.12.12,0,0,0,0-.13.28.28,0,0,1,.15-.31,1.17,1.17,0,0,0,.26-.17,1.42,1.42,0,0,0,.13-.12s.05-.07.09-.09l.23-.08a.28.28,0,0,1,.13,0l.2,0a.61.61,0,0,0,0-.14.41.41,0,0,1,0-.19,2.07,2.07,0,0,1,.1-.33.48.48,0,0,1,.5-.35.86.86,0,0,1,.17,0l.23.13a.28.28,0,0,1,.16.34c0,.07,0,.15,0,.22a.08.08,0,0,0,0,.1.46.46,0,0,1,.1.07.18.18,0,0,1-.14,0c-.07,0-.09,0-.11,0a.33.33,0,0,1,0,.06.73.73,0,0,1-.22.4,0,0,0,0,0,0,0c0,.06,0,.12.05.18s0,.09.11.06h0a.63.63,0,0,0,.3-.07h0a.78.78,0,0,0,.34,0l.13,0a.14.14,0,0,0,.13-.07.75.75,0,0,1,.11-.13.26.26,0,0,0,.11-.14h0a0,0,0,0,1,.06,0,0,0,0,0,1,0,0,.58.58,0,0,1-.05.14c0,.08,0,.1.05.13l.21.07.23.12S24.32,9.08,24.32,9.09Z"/>
      <path class="cls-4" d="M24.32,9.09s0,0,0,0h0l-.08,0L24,9l0,0,.17.08,0,0s0,0,0,0h-.05s0,0-.08,0h0l.11.08a.05.05,0,0,1,0,0s0,0,0,0h0L24,9.28H23.9a.06.06,0,0,0,0,0,.76.76,0,0,0,.08.11s0,0,0,0,0,0,0,0h0a.51.51,0,0,0-.29-.19l0,0a.15.15,0,0,0-.13,0c-.13.06-.26.11-.38.18a.85.85,0,0,1-.22.09.76.76,0,0,0-.2.06.69.69,0,0,1-.15.07.11.11,0,0,0-.07.09l-.06.24c0,.08-.09.16-.08.26a1.64,1.64,0,0,0,0,.23,2.56,2.56,0,0,1,.05.55.06.06,0,0,0,0,0,.41.41,0,0,1-.07.32.17.17,0,0,0,0,.21,3.59,3.59,0,0,0,.17.34l.3.55c.06.13.11.26.17.38l.09.19a.29.29,0,0,1,0,.31l-.08.1a.71.71,0,0,1-.09.07l-.17.07a.09.09,0,0,0-.06.09,1.09,1.09,0,0,1,0,.36.94.94,0,0,0,0,.16c0,.1,0,.21-.07.31s-.12.39-.18.59a.43.43,0,0,1-.18.26c-.09,0-.08,0,0,.14a.56.56,0,0,1,0,.12v0h.06s0,0,0,.05l.35.24c.05,0,.14,0,.18.11a.14.14,0,0,1,0,.09.17.17,0,0,1-.13.16,1.32,1.32,0,0,1-.56,0l-.47-.11-.23-.06a.22.22,0,0,1-.06-.07s0-.16,0-.17v-.05a.7.7,0,0,0,0-.14.38.38,0,0,0,0-.15c0-.09,0-.1.06-.16h0a.33.33,0,0,0,.11-.26.32.32,0,0,1,.09-.28s0,0,0-.06,0-.2.05-.3L21.7,14s0-.06,0-.06l-.31,0a.14.14,0,0,0-.15,0,.26.26,0,0,1-.1.07l-.19.05-.15.07c0,.08-.05.08-.1.11a1,1,0,0,0-.17.19c0,.07-.06.15-.1.22s-.14.12-.21,0a.26.26,0,0,1-.07-.11,1,1,0,0,1,0-.62c0-.09.07-.19.1-.28a2.6,2.6,0,0,1,.13-.36c0-.1.09-.1.19-.06a.93.93,0,0,0,.24,0h0l.11,0c.05,0,.08,0,.06.08l.06-.07s.05-.05.09,0h.13a.6.6,0,0,0,.16-.05s0-.08,0-.12l0-.06-.17-.29a1.11,1.11,0,0,1-.13-.27,1.26,1.26,0,0,0-.16-.33.61.61,0,0,1-.07-.14c0-.11-.05-.23-.09-.35a.58.58,0,0,1,0-.26.37.37,0,0,0,0-.11c0-.05,0-.1,0-.15a1.52,1.52,0,0,1,0-.21,1,1,0,0,0,0-.24c0-.14-.1-.27-.15-.4s0-.07-.1,0l-.16.1-.07,0-.3.17s-.06.07-.12.07l0,0a.58.58,0,0,1-.18.17l-.13.1-.21.15c-.08.05-.18.07-.23.16l-.05,0a.91.91,0,0,0-.13.08c-.06,0-.12.08-.12.17v.26l0,.08a.82.82,0,0,1,.12.34l0,0s0,0,0,0a.84.84,0,0,1-.26-.27.74.74,0,0,0-.12-.13h0a1.46,1.46,0,0,1-.05.2s0,.1-.06.1,0-.07,0-.1c0-.21,0-.41.06-.62,0,0,0-.09,0-.12a.16.16,0,0,1-.06-.08.06.06,0,0,1,0-.06l.07,0,0,0c.06,0,.07,0,.09,0a.13.13,0,0,1,.05-.07.6.6,0,0,0,.21-.21.1.1,0,0,1,0,0c.08-.08.18-.14.26-.22a2.61,2.61,0,0,1,.24-.23h0l.26-.2.07-.06c.07,0,.13-.13.22-.15a.79.79,0,0,0,.25-.19l0,0c.07-.06.12-.15.19-.21a.4.4,0,0,0,.1-.18l0,0a.12.12,0,0,0,0-.13.28.28,0,0,1,.15-.31,1.17,1.17,0,0,0,.26-.17,1.42,1.42,0,0,0,.13-.12s.05-.07.09-.09l.23-.08a.28.28,0,0,1,.13,0l.2,0a.61.61,0,0,0,0-.14.41.41,0,0,1,0-.19,2.07,2.07,0,0,1,.1-.33.48.48,0,0,1,.5-.35.86.86,0,0,1,.17,0l.23.13a.28.28,0,0,1,.16.34c0,.07,0,.15,0,.22a.08.08,0,0,0,0,.1.46.46,0,0,1,.1.07.18.18,0,0,1-.14,0c-.07,0-.09,0-.11,0a.33.33,0,0,1,0,.06.73.73,0,0,1-.22.4,0,0,0,0,0,0,0c0,.06,0,.12.05.18s0,.09.11.06h0a.63.63,0,0,0,.3-.07h0a.78.78,0,0,0,.34,0l.13,0a.14.14,0,0,0,.13-.07.75.75,0,0,1,.11-.13.26.26,0,0,0,.11-.14h0a0,0,0,0,1,.06,0,0,0,0,0,1,0,0,.58.58,0,0,1-.05.14c0,.08,0,.1.05.13l.21.07.23.12S24.32,9.08,24.32,9.09Z"/>
    </g>
  </g>
</svg>
